<svg xmlns="http://www.w3.org/2000/svg" viewBox="0 0 85.04 85.04"><defs><style>.cls-1{fill:#054959;}.cls-2{fill:#fff;}</style></defs><title>aguaicon</title><g id="Capa_2" data-name="Capa 2"><g id="Layer_1" data-name="Layer 1"><circle class="cls-1" cx="42.52" cy="42.52" r="42.52"/><path class="cls-2" d="M30.65,21.84a1.47,1.47,0,0,0-1,2.46,11.49,11.49,0,0,1,2.19,4.62c.76,3,.82,7.35-2.36,12.84-3.52,6.11-3.57,11.37-2.65,15a15.06,15.06,0,0,0,2.82,5.84,1.48,1.48,0,1,0,2.29-1.87.27.27,0,0,1-.07-.08,11.39,11.39,0,0,1-2.19-4.61c-.76-3-.81-7.35,2.36-12.85,3.53-6.1,3.59-11.37,2.67-15a15.18,15.18,0,0,0-2.84-5.85A1.49,1.49,0,0,0,30.65,21.84Zm11.8,0A1.47,1.47,0,0,0,41,23.37a1.44,1.44,0,0,0,.38.93,11.56,11.56,0,0,1,2.18,4.62c.76,3,.82,7.35-2.36,12.84-3.52,6.11-3.58,11.37-2.66,15a14.92,14.92,0,0,0,2.84,5.84,1.47,1.47,0,1,0,2.31-1.83l-.1-.12a11.39,11.39,0,0,1-2.19-4.61c-.76-3-.81-7.35,2.36-12.85,3.53-6.1,3.59-11.37,2.67-15a15.18,15.18,0,0,0-2.84-5.85A1.49,1.49,0,0,0,42.45,21.84Zm11.8,0a1.47,1.47,0,0,0-1.41,1.53,1.44,1.44,0,0,0,.38.93,11.56,11.56,0,0,1,2.18,4.62c.76,3,.82,7.35-2.36,12.84-3.52,6.11-3.58,11.37-2.66,15a14.92,14.92,0,0,0,2.84,5.84,1.47,1.47,0,1,0,2.31-1.83l-.1-.12a11.55,11.55,0,0,1-2.19-4.61c-.76-3-.83-7.35,2.35-12.85,3.52-6.1,3.58-11.37,2.67-15a15.25,15.25,0,0,0-2.83-5.85A1.49,1.49,0,0,0,54.25,21.84Z"/></g></g></svg>