<?xml version="1.0" encoding="utf-8"?>
<!-- Generator: Adobe Illustrator 24.1.2, SVG Export Plug-In . SVG Version: 6.00 Build 0)  -->
<svg version="1.1" id="Capa_1" xmlns="http://www.w3.org/2000/svg" xmlns:xlink="http://www.w3.org/1999/xlink" x="0px" y="0px"
	 viewBox="0 0 751.9 708.7" style="enable-background:new 0 0 751.9 708.7;" xml:space="preserve">
<style type="text/css">
	.st0{fill:none;stroke:#004756;stroke-width:2;stroke-miterlimit:10;}
	.st1{fill:none;stroke:#004756;stroke-width:2;stroke-miterlimit:10;stroke-dasharray:4.9039,4.9039;}
	.st2{fill:none;stroke:#004756;stroke-width:2;stroke-miterlimit:10;stroke-dasharray:5.1163,5.1163;}
	.st3{fill:none;stroke:#004756;stroke-width:2;stroke-miterlimit:10;stroke-dasharray:5.0462,5.0462;}
	.st4{fill:none;stroke:#004756;stroke-width:2;stroke-miterlimit:10;stroke-dasharray:5.0984,5.0984;}
	.st5{fill:none;stroke:#004756;stroke-width:2;stroke-miterlimit:10;stroke-dasharray:5.0868,5.0868;}
	.st6{fill:none;stroke:#004756;stroke-width:2;stroke-miterlimit:10;stroke-dasharray:4.8073,4.8073;}
	.st7{fill:none;stroke:#004756;stroke-width:2;stroke-miterlimit:10;stroke-dasharray:4.8872,4.8872;}
	.st8{fill:none;stroke:#004756;stroke-width:2;stroke-miterlimit:10;stroke-dasharray:2.796,2.796;}
	.st9{fill:none;stroke:#004756;stroke-width:2;stroke-miterlimit:10;stroke-dasharray:4.9014,4.9014;}
	.st10{fill:none;stroke:#004756;stroke-width:2;stroke-miterlimit:10;stroke-dasharray:4.9143,4.9143;}
	.st11{fill:#E4C55A;}
	.st12{fill:#004756;}
	.st13{fill:none;stroke:#E4C55A;stroke-width:3;stroke-miterlimit:10;}
	.st14{fill:none;}
	.st15{fill:#211915;}
	.st16{font-family:'OpenSans-SemiBold';}
	.st17{font-size:13px;}
	.st18{fill:none;stroke:#004756;stroke-width:2;stroke-miterlimit:10;stroke-dasharray:5;}
	.st19{font-family:'OpenSans-Regular';}
	.st20{font-size:11px;}
	.st21{fill:none;stroke:#211915;stroke-miterlimit:10;}
</style>
<image style="display:none;overflow:visible;opacity:0.69;" width="845" height="763" xlink:href="613C8605.jpg"  transform="matrix(0.9006 0 0 0.9006 -6.9615 -50.4219)">
</image>
<g id="rios">
	<g>
		<g>
			<line class="st0" x1="31.5" y1="209.8" x2="33.7" y2="208.6"/>
			<line class="st1" x1="38" y1="206.3" x2="139.9" y2="152.5"/>
			<polyline class="st0" points="142.1,151.4 144.3,150.2 146.6,151.1 			"/>
			<line class="st2" x1="151.4" y1="153" x2="253.8" y2="193.1"/>
			<polyline class="st0" points="256.2,194 258.5,194.9 258.5,197.4 			"/>
			<polyline class="st3" points="258.5,202.4 258.5,289.3 358.6,439 425.7,469.5 			"/>
			<line class="st0" x1="428" y1="470.6" x2="430.2" y2="471.6"/>
		</g>
	</g>
	<g>
		<g>
			<line class="st0" x1="577.1" y1="287.8" x2="575.7" y2="289.9"/>
			<polyline class="st4" points="572.9,294.2 472.1,444.7 439.3,468.6 			"/>
			<line class="st0" x1="437.2" y1="470.1" x2="435.2" y2="471.6"/>
		</g>
	</g>
	<g>
		<g>
			<line class="st0" x1="426.7" y1="495.7" x2="429.2" y2="495.7"/>
			<polyline class="st5" points="434.3,495.7 516.8,495 559.4,519.2 630.3,519.2 676,500.5 			"/>
			<polyline class="st0" points="678.4,499.5 680.7,498.6 681.7,500.9 			"/>
			<line class="st6" x1="683.6" y1="505.3" x2="716.4" y2="582.8"/>
			<line class="st0" x1="717.3" y1="585" x2="718.3" y2="587.3"/>
		</g>
	</g>
	<g>
		<g>
			<line class="st0" x1="412.5" y1="467.4" x2="413.2" y2="469.8"/>
			<line class="st7" x1="414.5" y1="474.5" x2="419" y2="491"/>
			<polyline class="st0" points="419.6,493.3 420.3,495.7 419,497.9 			"/>
			<line class="st8" x1="417.5" y1="500.2" x2="415.3" y2="503.8"/>
			<polyline class="st0" points="414.5,505 413.2,507.1 414.7,509.1 			"/>
			<polyline class="st9" points="417.8,512.9 445.9,549 445.9,667.5 			"/>
			<line class="st0" x1="445.9" y1="669.9" x2="445.9" y2="672.4"/>
		</g>
	</g>
	<g>
		<g>
			<line class="st0" x1="229.4" y1="182.7" x2="231.5" y2="181.3"/>
			<line class="st10" x1="235.7" y1="178.7" x2="465.8" y2="32.2"/>
			<line class="st0" x1="467.8" y1="30.9" x2="469.9" y2="29.5"/>
		</g>
	</g>
</g>
<g id="nombres_proyectos">
	<g>
		<path class="st11" d="M423.7,117.9l-0.9-2.6h-3.5l-0.9,2.6h-1.6l3.5-9.3h1.7l3.5,9.3H423.7z M422.4,114l-0.9-2.5
			c-0.1-0.2-0.2-0.4-0.3-0.8c-0.1-0.4-0.2-0.6-0.2-0.8c-0.1,0.5-0.3,1.1-0.5,1.7l-0.8,2.4H422.4z"/>
		<path class="st11" d="M427.9,117.9h-1.5V108h1.5V117.9z"/>
		<path class="st11" d="M433.5,112h-1.7v5.9h-1.5V112h-1.2v-0.7l1.2-0.5v-0.5c0-0.8,0.2-1.4,0.6-1.8c0.4-0.4,1-0.6,1.8-0.6
			c0.5,0,1,0.1,1.5,0.3l-0.4,1.1c-0.4-0.1-0.7-0.2-1.1-0.2c-0.3,0-0.6,0.1-0.7,0.3c-0.2,0.2-0.2,0.5-0.2,0.9v0.5h1.7V112z"/>
		<path class="st11" d="M439.1,117.9l-0.3-1h-0.1c-0.3,0.4-0.7,0.7-1,0.9s-0.8,0.2-1.3,0.2c-0.7,0-1.2-0.2-1.6-0.6
			c-0.4-0.4-0.6-0.9-0.6-1.6c0-0.7,0.3-1.3,0.8-1.6c0.5-0.4,1.4-0.6,2.5-0.6l1.2,0v-0.4c0-0.4-0.1-0.8-0.3-1c-0.2-0.2-0.5-0.3-1-0.3
			c-0.4,0-0.7,0.1-1,0.2c-0.3,0.1-0.6,0.2-1,0.4l-0.5-1.1c0.4-0.2,0.8-0.3,1.3-0.5c0.5-0.1,0.9-0.2,1.3-0.2c0.9,0,1.6,0.2,2,0.6
			c0.5,0.4,0.7,1,0.7,1.8v4.7H439.1z M436.9,116.9c0.5,0,1-0.2,1.3-0.5c0.3-0.3,0.5-0.7,0.5-1.3v-0.6l-0.9,0c-0.7,0-1.2,0.1-1.5,0.4
			c-0.3,0.2-0.5,0.5-0.5,1c0,0.3,0.1,0.6,0.3,0.7C436.2,116.8,436.5,116.9,436.9,116.9z"/>
		<path class="st11" d="M443.7,117.9h-1.5V108h1.5V117.9z"/>
		<path class="st11" d="M449.4,112h-1.7v5.9h-1.5V112H445v-0.7l1.2-0.5v-0.5c0-0.8,0.2-1.4,0.6-1.8c0.4-0.4,1-0.6,1.8-0.6
			c0.5,0,1,0.1,1.5,0.3l-0.4,1.1c-0.4-0.1-0.7-0.2-1.1-0.2c-0.3,0-0.6,0.1-0.7,0.3c-0.2,0.2-0.2,0.5-0.2,0.9v0.5h1.7V112z"/>
		<path class="st11" d="M455,117.9l-0.3-1h-0.1c-0.3,0.4-0.7,0.7-1,0.9s-0.8,0.2-1.3,0.2c-0.7,0-1.2-0.2-1.6-0.6
			c-0.4-0.4-0.6-0.9-0.6-1.6c0-0.7,0.3-1.3,0.8-1.6c0.5-0.4,1.4-0.6,2.5-0.6l1.2,0v-0.4c0-0.4-0.1-0.8-0.3-1c-0.2-0.2-0.5-0.3-1-0.3
			c-0.4,0-0.7,0.1-1,0.2c-0.3,0.1-0.6,0.2-1,0.4l-0.5-1.1c0.4-0.2,0.8-0.3,1.3-0.5c0.5-0.1,0.9-0.2,1.3-0.2c0.9,0,1.6,0.2,2,0.6
			c0.5,0.4,0.7,1,0.7,1.8v4.7H455z M452.8,116.9c0.5,0,1-0.2,1.3-0.5c0.3-0.3,0.5-0.7,0.5-1.3v-0.6l-0.9,0c-0.7,0-1.2,0.1-1.5,0.4
			c-0.3,0.2-0.5,0.5-0.5,1c0,0.3,0.1,0.6,0.3,0.7C452.1,116.8,452.4,116.9,452.8,116.9z"/>
		<path class="st11" d="M459.6,117.9h-1.5V108h1.5V117.9z"/>
		<path class="st11" d="M466.6,117.9h-1.5V108h1.5V117.9z"/>
		<path class="st11" d="M470.3,117.9h-1.5V108h1.5V117.9z"/>
	</g>
	<g>
		<path class="st11" d="M310,161.9v-9.3h1.5v8h3.9v1.3H310z"/>
		<path class="st11" d="M321.3,161.9l-0.3-1h-0.1c-0.3,0.4-0.7,0.7-1,0.9s-0.8,0.2-1.3,0.2c-0.7,0-1.2-0.2-1.6-0.6
			c-0.4-0.4-0.6-0.9-0.6-1.6c0-0.7,0.3-1.3,0.8-1.6c0.5-0.4,1.4-0.6,2.5-0.6l1.2,0v-0.4c0-0.4-0.1-0.8-0.3-1c-0.2-0.2-0.5-0.3-1-0.3
			c-0.4,0-0.7,0.1-1,0.2c-0.3,0.1-0.6,0.2-1,0.4l-0.5-1.1c0.4-0.2,0.8-0.3,1.3-0.5c0.5-0.1,0.9-0.2,1.3-0.2c0.9,0,1.6,0.2,2,0.6
			c0.5,0.4,0.7,1,0.7,1.8v4.7H321.3z M319.1,160.9c0.5,0,1-0.2,1.3-0.5c0.3-0.3,0.5-0.7,0.5-1.3v-0.6l-0.9,0c-0.7,0-1.2,0.1-1.5,0.4
			c-0.3,0.2-0.5,0.5-0.5,1c0,0.3,0.1,0.6,0.3,0.7C318.4,160.8,318.7,160.9,319.1,160.9z"/>
		<path class="st11" d="M329.1,159.9c0,0.7-0.3,1.2-0.8,1.6c-0.5,0.4-1.2,0.5-2.1,0.5c-0.9,0-1.7-0.1-2.3-0.4v-1.3
			c0.8,0.4,1.6,0.6,2.3,0.6c0.9,0,1.4-0.3,1.4-0.8c0-0.2-0.1-0.3-0.2-0.4c-0.1-0.1-0.3-0.2-0.5-0.4c-0.2-0.1-0.6-0.3-1-0.4
			c-0.8-0.3-1.4-0.6-1.6-0.9c-0.3-0.3-0.4-0.7-0.4-1.2c0-0.6,0.2-1.1,0.7-1.4c0.5-0.3,1.1-0.5,2-0.5c0.8,0,1.6,0.2,2.3,0.5l-0.5,1.1
			c-0.8-0.3-1.4-0.5-1.9-0.5c-0.8,0-1.2,0.2-1.2,0.7c0,0.2,0.1,0.4,0.3,0.6s0.7,0.4,1.3,0.6c0.6,0.2,1,0.4,1.3,0.6
			c0.3,0.2,0.5,0.4,0.6,0.6S329.1,159.6,329.1,159.9z"/>
		<path class="st11" d="M334.3,161.9v-9.3h1.5v8h3.9v1.3H334.3z"/>
		<path class="st11" d="M345.6,161.9l-0.3-1h-0.1c-0.3,0.4-0.7,0.7-1,0.9s-0.8,0.2-1.3,0.2c-0.7,0-1.2-0.2-1.6-0.6
			c-0.4-0.4-0.6-0.9-0.6-1.6c0-0.7,0.3-1.3,0.8-1.6c0.5-0.4,1.4-0.6,2.5-0.6l1.2,0v-0.4c0-0.4-0.1-0.8-0.3-1c-0.2-0.2-0.5-0.3-1-0.3
			c-0.4,0-0.7,0.1-1,0.2c-0.3,0.1-0.6,0.2-1,0.4l-0.5-1.1c0.4-0.2,0.8-0.3,1.3-0.5c0.5-0.1,0.9-0.2,1.3-0.2c0.9,0,1.6,0.2,2,0.6
			c0.5,0.4,0.7,1,0.7,1.8v4.7H345.6z M343.3,160.9c0.5,0,1-0.2,1.3-0.5c0.3-0.3,0.5-0.7,0.5-1.3v-0.6l-0.9,0c-0.7,0-1.2,0.1-1.5,0.4
			c-0.3,0.2-0.5,0.5-0.5,1c0,0.3,0.1,0.6,0.3,0.7C342.7,160.8,343,160.9,343.3,160.9z"/>
		<path class="st11" d="M348,165c-0.4,0-0.8-0.1-1.1-0.2v-1.2c0.3,0.1,0.6,0.1,0.9,0.1c0.6,0,1-0.4,1-1.1v-7.8h1.5v7.9
			c0,0.7-0.2,1.3-0.6,1.6C349.3,164.8,348.7,165,348,165z M348.6,153c0-0.3,0.1-0.5,0.2-0.6c0.1-0.1,0.4-0.2,0.6-0.2
			c0.3,0,0.5,0.1,0.6,0.2c0.1,0.1,0.2,0.3,0.2,0.6c0,0.3-0.1,0.5-0.2,0.6c-0.1,0.1-0.4,0.2-0.6,0.2c-0.3,0-0.5-0.1-0.6-0.2
			C348.7,153.5,348.6,153.3,348.6,153z"/>
		<path class="st11" d="M356.7,161.9l-0.3-1h-0.1c-0.3,0.4-0.7,0.7-1,0.9s-0.8,0.2-1.3,0.2c-0.7,0-1.2-0.2-1.6-0.6
			c-0.4-0.4-0.6-0.9-0.6-1.6c0-0.7,0.3-1.3,0.8-1.6c0.5-0.4,1.4-0.6,2.5-0.6l1.2,0v-0.4c0-0.4-0.1-0.8-0.3-1c-0.2-0.2-0.5-0.3-1-0.3
			c-0.4,0-0.7,0.1-1,0.2c-0.3,0.1-0.6,0.2-1,0.4l-0.5-1.1c0.4-0.2,0.8-0.3,1.3-0.5c0.5-0.1,0.9-0.2,1.3-0.2c0.9,0,1.6,0.2,2,0.6
			c0.5,0.4,0.7,1,0.7,1.8v4.7H356.7z M354.5,160.9c0.5,0,1-0.2,1.3-0.5c0.3-0.3,0.5-0.7,0.5-1.3v-0.6l-0.9,0c-0.7,0-1.2,0.1-1.5,0.4
			c-0.3,0.2-0.5,0.5-0.5,1c0,0.3,0.1,0.6,0.3,0.7C353.9,160.8,354.1,160.9,354.5,160.9z"/>
		<path class="st11" d="M364.6,159.9c0,0.7-0.3,1.2-0.8,1.6c-0.5,0.4-1.2,0.5-2.1,0.5c-0.9,0-1.7-0.1-2.3-0.4v-1.3
			c0.8,0.4,1.6,0.6,2.3,0.6c0.9,0,1.4-0.3,1.4-0.8c0-0.2-0.1-0.3-0.2-0.4c-0.1-0.1-0.3-0.2-0.5-0.4c-0.2-0.1-0.6-0.3-1-0.4
			c-0.8-0.3-1.4-0.6-1.6-0.9c-0.3-0.3-0.4-0.7-0.4-1.2c0-0.6,0.2-1.1,0.7-1.4c0.5-0.3,1.1-0.5,2-0.5c0.8,0,1.6,0.2,2.3,0.5l-0.5,1.1
			c-0.8-0.3-1.4-0.5-1.9-0.5c-0.8,0-1.2,0.2-1.2,0.7c0,0.2,0.1,0.4,0.3,0.6s0.7,0.4,1.3,0.6c0.6,0.2,1,0.4,1.3,0.6
			c0.3,0.2,0.5,0.4,0.6,0.6S364.6,159.6,364.6,159.9z"/>
	</g>
</g>
<g id="nombres_rios">
	<g>
		<path class="st12" d="M455.6,584.5h-3.7v-1.5h9.3v2.6c0,1.2-0.2,2.1-0.7,2.7c-0.4,0.6-1.1,0.9-2,0.9c-1.2,0-2-0.6-2.5-1.8
			l-4.1,2.6v-1.7l3.7-2.2V584.5z M456.9,584.5v1.1c0,0.7,0.1,1.2,0.4,1.5c0.3,0.3,0.7,0.5,1.2,0.5c0.5,0,0.9-0.2,1.1-0.5
			s0.3-0.9,0.3-1.5v-1H456.9z"/>
		<path class="st12" d="M459.8,591h0.2c0.3,0.2,0.6,0.5,1,0.7c0.4,0.3,0.7,0.5,0.9,0.6v1.7h-0.1c-0.3-0.2-0.6-0.5-1-1
			c-0.4-0.4-0.7-0.8-0.9-1.1V591z M451.9,592.6v-1.5h7v1.5H451.9z"/>
		<path class="st12" d="M455.5,601c-1.1,0-2-0.3-2.7-0.9c-0.6-0.6-1-1.4-1-2.5c0-0.7,0.1-1.2,0.4-1.7c0.3-0.5,0.7-0.9,1.3-1.2
			c0.6-0.3,1.2-0.4,1.9-0.4c1.1,0,2,0.3,2.7,0.9c0.6,0.6,1,1.4,1,2.5c0,1-0.3,1.8-1,2.4C457.4,600.7,456.6,601,455.5,601z
			 M455.5,595.8c-1.6,0-2.4,0.6-2.4,1.8c0,1.2,0.8,1.8,2.4,1.8c1.6,0,2.4-0.6,2.4-1.8c0-0.6-0.2-1.1-0.6-1.4
			C456.8,596,456.2,595.8,455.5,595.8z"/>
		<path class="st12" d="M451.9,610.2l7.8-2.7v-0.1c-1.2,0.1-2.2,0.1-3.2,0.1h-4.5v-1.4h9.3v2.1l-7.4,2.6v0l7.4,2.7v2.1h-9.3v-1.5
			h4.6c0.5,0,1.1,0,1.8,0c0.7,0,1.2,0,1.3,0.1v-0.1l-7.7-2.8V610.2z"/>
		<path class="st12" d="M451.9,622.4l1-0.3v-0.1c-0.4-0.3-0.7-0.7-0.9-1s-0.2-0.8-0.2-1.3c0-0.7,0.2-1.2,0.6-1.6
			c0.4-0.4,0.9-0.6,1.6-0.6c0.7,0,1.3,0.3,1.6,0.8c0.4,0.5,0.6,1.4,0.6,2.5l0,1.2h0.4c0.4,0,0.8-0.1,1-0.3c0.2-0.2,0.3-0.5,0.3-1
			c0-0.4-0.1-0.7-0.2-1c-0.1-0.3-0.2-0.6-0.4-1l1.1-0.5c0.2,0.4,0.3,0.8,0.5,1.3c0.1,0.5,0.2,0.9,0.2,1.3c0,0.9-0.2,1.6-0.6,2
			c-0.4,0.5-1,0.7-1.8,0.7h-4.7V622.4z M452.9,620.2c0,0.5,0.2,1,0.5,1.3c0.3,0.3,0.7,0.5,1.3,0.5h0.6l0-0.9c0-0.7-0.1-1.2-0.4-1.5
			c-0.2-0.3-0.5-0.5-1-0.5c-0.3,0-0.6,0.1-0.7,0.3C453,619.6,452.9,619.8,452.9,620.2z"/>
		<path class="st12" d="M460.8,625.5c0.3,0,0.5,0.1,0.6,0.2c0.1,0.1,0.2,0.4,0.2,0.6c0,0.3-0.1,0.5-0.2,0.6
			c-0.1,0.1-0.3,0.2-0.6,0.2c-0.3,0-0.5-0.1-0.6-0.2c-0.1-0.1-0.2-0.4-0.2-0.6c0-0.3,0.1-0.5,0.2-0.6
			C460.4,625.6,460.6,625.5,460.8,625.5z M451.9,627.1v-1.5h7v1.5H451.9z"/>
		<path class="st12" d="M451.8,632.8c0-0.9,0.3-1.6,1-2.1v-0.1c-0.6,0.1-1,0.1-1.1,0.1h-2.9v-1.5H459v1.2c-0.1,0-0.4,0.1-0.9,0.2
			v0.1c0.7,0.5,1.1,1.2,1.1,2.1c0,0.9-0.3,1.6-1,2c-0.6,0.5-1.5,0.7-2.7,0.7c-1.1,0-2-0.2-2.7-0.7
			C452.1,634.3,451.8,633.6,451.8,632.8z M457.9,632.4c0-0.6-0.2-1-0.5-1.3c-0.3-0.3-0.9-0.4-1.7-0.4h-0.2c-0.9,0-1.5,0.1-1.9,0.4
			c-0.4,0.3-0.6,0.7-0.6,1.3c0,0.5,0.2,0.9,0.6,1.2c0.4,0.3,1,0.4,1.8,0.4c0.8,0,1.4-0.1,1.8-0.4S457.9,632.9,457.9,632.4z"/>
		<path class="st12" d="M455.5,643.5c-1.1,0-2-0.3-2.7-0.9c-0.6-0.6-1-1.4-1-2.5c0-0.7,0.1-1.2,0.4-1.7c0.3-0.5,0.7-0.9,1.3-1.2
			c0.6-0.3,1.2-0.4,1.9-0.4c1.1,0,2,0.3,2.7,0.9c0.6,0.6,1,1.4,1,2.5c0,1-0.3,1.8-1,2.4C457.4,643.2,456.6,643.5,455.5,643.5z
			 M455.5,638.4c-1.6,0-2.4,0.6-2.4,1.8c0,1.2,0.8,1.8,2.4,1.8c1.6,0,2.4-0.6,2.4-1.8c0-0.6-0.2-1.1-0.6-1.4
			C456.8,638.6,456.2,638.4,455.5,638.4z"/>
	</g>
	<g>
		<path class="st12" d="M275.7,340.5l-3.1,2.1l-0.8-1.3l7.7-5.1l1.5,2.2c0.7,1,1,1.9,0.9,2.6c-0.1,0.7-0.5,1.3-1.2,1.8
			c-1,0.6-2,0.6-3.1-0.1l-2,4.5l-1-1.4l1.9-3.9L275.7,340.5z M276.8,339.8l0.6,0.9c0.4,0.6,0.8,0.9,1.2,1.1c0.4,0.1,0.8,0,1.2-0.2
			c0.4-0.3,0.7-0.6,0.7-1.1s-0.2-0.9-0.6-1.5l-0.6-0.8L276.8,339.8z"/>
		<path class="st12" d="M282.8,343.7l0.1-0.1c0.4,0,0.8,0.1,1.2,0.1c0.4,0,0.8,0,1.1,0l1,1.4l-0.1,0.1c-0.3,0-0.8-0.1-1.4-0.3
			c-0.6-0.1-1.1-0.3-1.4-0.4L282.8,343.7z M277.1,349.4l-0.8-1.2l5.8-3.9l0.8,1.2L277.1,349.4z"/>
		<path class="st12" d="M284.7,354.4c-1,0.6-1.9,0.9-2.7,0.8c-0.9-0.1-1.6-0.6-2.2-1.5c-0.4-0.5-0.6-1.1-0.6-1.7
			c0-0.6,0.1-1.1,0.4-1.7c0.3-0.5,0.8-1,1.4-1.4c0.9-0.6,1.8-0.9,2.7-0.7c0.9,0.1,1.6,0.6,2.2,1.5c0.6,0.8,0.7,1.7,0.5,2.6
			C286.2,353,285.6,353.8,284.7,354.4z M281.9,350.1c-1.3,0.9-1.7,1.8-1,2.8c0.7,1,1.7,1,3,0.1c1.3-0.9,1.7-1.8,1-2.8
			c-0.3-0.5-0.8-0.8-1.3-0.8C283.1,349.5,282.5,349.7,281.9,350.1z"/>
		<path class="st12" d="M286.9,364l5-6.5l0,0c-0.9,0.7-1.8,1.3-2.6,1.9l-3.8,2.5l-0.8-1.1l7.7-5.1l1.2,1.8l-4.7,6.2l0,0l7.6-1.9
			l1.2,1.8l-7.7,5.1l-0.8-1.2l3.8-2.5c0.4-0.3,0.9-0.6,1.5-1c0.6-0.4,1-0.6,1.2-0.7l0,0l-8,2L286.9,364z"/>
		<path class="st12" d="M293.6,374.2l0.6-0.8l0,0c-0.5,0-1-0.2-1.3-0.4c-0.3-0.2-0.6-0.5-0.9-1c-0.4-0.6-0.5-1.1-0.4-1.7
			c0.1-0.5,0.4-1,1-1.4c0.6-0.4,1.2-0.5,1.8-0.2c0.6,0.2,1.2,0.8,1.9,1.7l0.7,1l0.3-0.2c0.4-0.2,0.6-0.5,0.7-0.8
			c0.1-0.3,0-0.6-0.3-1c-0.2-0.3-0.4-0.6-0.7-0.8c-0.3-0.2-0.5-0.4-0.8-0.6l0.6-1c0.4,0.2,0.7,0.5,1.1,0.8c0.3,0.3,0.6,0.6,0.8,1
			c0.5,0.7,0.7,1.4,0.6,2c-0.1,0.6-0.5,1.1-1.1,1.6l-3.9,2.6L293.6,374.2z M293.3,371.8c0.3,0.5,0.7,0.7,1.1,0.8
			c0.4,0.1,0.9,0,1.3-0.3l0.5-0.3l-0.5-0.7c-0.4-0.6-0.8-0.9-1.1-1.1c-0.4-0.2-0.7-0.1-1.1,0.1c-0.3,0.2-0.4,0.4-0.5,0.6
			C293,371.2,293.1,371.5,293.3,371.8z"/>
		<path class="st12" d="M302.7,371.8c0.2-0.1,0.4-0.2,0.6-0.2c0.2,0,0.4,0.2,0.5,0.4c0.1,0.2,0.2,0.4,0.2,0.6c0,0.2-0.2,0.4-0.4,0.5
			c-0.2,0.1-0.4,0.2-0.6,0.1c-0.2,0-0.4-0.2-0.5-0.4c-0.2-0.2-0.2-0.4-0.2-0.6C302.4,372.2,302.5,372,302.7,371.8z M296.2,378.1
			l-0.8-1.2l5.8-3.9l0.8,1.2L296.2,378.1z"/>
		<path class="st12" d="M299.3,382.9c-0.5-0.7-0.6-1.5-0.3-2.3l0-0.1c-0.5,0.4-0.7,0.6-0.8,0.7l-2.4,1.6l-0.8-1.2l8.4-5.6l0.7,1
			c-0.1,0.1-0.3,0.3-0.7,0.7l0,0.1c0.8,0,1.5,0.4,2,1.2c0.5,0.7,0.6,1.5,0.3,2.2c-0.3,0.8-0.9,1.5-1.8,2.1c-1,0.6-1.8,0.9-2.6,0.9
			C300.4,384,299.7,383.6,299.3,382.9z M304.1,379.2c-0.3-0.5-0.7-0.8-1.2-0.8c-0.4,0-1,0.2-1.6,0.6l-0.2,0.1
			c-0.7,0.5-1.2,0.9-1.3,1.4c-0.2,0.4-0.1,0.9,0.3,1.4c0.3,0.4,0.7,0.6,1.2,0.6c0.5,0,1.1-0.2,1.7-0.7c0.7-0.4,1.1-0.9,1.3-1.3
			C304.5,380.1,304.4,379.7,304.1,379.2z"/>
		<path class="st12" d="M308.3,389.8c-1,0.6-1.9,0.9-2.7,0.8c-0.9-0.1-1.6-0.6-2.2-1.5c-0.4-0.5-0.6-1.1-0.6-1.7
			c0-0.6,0.1-1.1,0.4-1.7c0.3-0.5,0.8-1,1.4-1.4c0.9-0.6,1.8-0.9,2.7-0.7c0.9,0.1,1.6,0.6,2.2,1.5c0.6,0.8,0.7,1.7,0.5,2.6
			C309.8,388.5,309.2,389.2,308.3,389.8z M305.4,385.6c-1.3,0.9-1.7,1.8-1,2.8c0.7,1,1.7,1,3,0.1c1.3-0.9,1.7-1.8,1-2.8
			c-0.3-0.5-0.8-0.8-1.3-0.8C306.6,384.9,306.1,385.1,305.4,385.6z"/>
	</g>
	<g>
		<path class="st12" d="M83.7,197.3l1.9,3.2l-1.3,0.8l-4.7-8l2.3-1.3c1-0.6,1.9-0.9,2.6-0.8c0.7,0.1,1.3,0.5,1.8,1.3
			c0.6,1,0.5,2-0.3,3l4.3,2.2l-1.5,0.9l-3.8-2.1L83.7,197.3z M83.1,196.2l0.9-0.5c0.6-0.4,1-0.7,1.1-1.1c0.1-0.4,0.1-0.8-0.2-1.2
			c-0.3-0.5-0.6-0.7-1-0.7c-0.4,0-0.9,0.1-1.5,0.5l-0.9,0.5L83.1,196.2z"/>
		<path class="st12" d="M87.3,190.4l-0.1-0.1c0.1-0.4,0.1-0.8,0.1-1.2c0-0.4,0.1-0.8,0.1-1.1l1.5-0.9l0.1,0.1
			c-0.1,0.3-0.2,0.8-0.3,1.4c-0.2,0.6-0.3,1-0.5,1.4L87.3,190.4z M92.6,196.4l-1.3,0.8l-3.6-6.1l1.3-0.8L92.6,196.4z"/>
		<path class="st12" d="M98.1,189.1c0.6,1,0.8,1.9,0.6,2.8c-0.2,0.9-0.7,1.5-1.6,2.1c-0.6,0.3-1.1,0.5-1.7,0.5
			c-0.6,0-1.1-0.2-1.6-0.5c-0.5-0.3-1-0.8-1.3-1.5c-0.6-1-0.8-1.9-0.6-2.7c0.2-0.8,0.7-1.5,1.6-2.1c0.9-0.5,1.7-0.6,2.6-0.4
			C96.8,187.6,97.5,188.2,98.1,189.1z M93.7,191.7c0.8,1.4,1.7,1.8,2.8,1.2c1-0.6,1.1-1.6,0.3-3c-0.8-1.4-1.7-1.8-2.8-1.2
			c-0.5,0.3-0.8,0.7-0.9,1.2C93.1,190.5,93.3,191,93.7,191.7z"/>
		<path class="st12" d="M107.8,187.5l-6.2-5.3l0,0c0.6,1,1.2,1.9,1.7,2.7l2.3,3.9l-1.2,0.7l-4.7-8l1.8-1.1l6,5.1l0,0l-1.4-7.7
			l1.9-1.1l4.7,8l-1.3,0.7l-2.3-4c-0.2-0.4-0.5-0.9-0.9-1.6c-0.4-0.7-0.6-1-0.6-1.2l0,0l1.5,8.1L107.8,187.5z"/>
		<path class="st12" d="M118.4,181.3l-0.8-0.7l0,0c-0.1,0.5-0.2,1-0.4,1.3c-0.2,0.3-0.6,0.6-1,0.9c-0.6,0.3-1.2,0.5-1.7,0.3
			c-0.5-0.1-1-0.5-1.3-1.1c-0.4-0.6-0.4-1.2-0.1-1.8c0.3-0.6,0.9-1.2,1.8-1.8l1-0.6l-0.2-0.3c-0.2-0.4-0.5-0.6-0.8-0.7
			c-0.3-0.1-0.6,0-1,0.2c-0.3,0.2-0.6,0.4-0.8,0.7c-0.2,0.3-0.4,0.5-0.6,0.8l-1-0.7c0.2-0.4,0.5-0.7,0.8-1c0.3-0.3,0.7-0.6,1-0.8
			c0.8-0.5,1.5-0.6,2-0.5c0.6,0.1,1.1,0.5,1.5,1.2l2.4,4.1L118.4,181.3z M115.9,181.5c0.5-0.3,0.8-0.6,0.9-1.1
			c0.1-0.4,0.1-0.9-0.2-1.3l-0.3-0.5l-0.8,0.5c-0.6,0.4-1,0.7-1.1,1.1c-0.2,0.3-0.1,0.7,0.1,1.1c0.2,0.3,0.4,0.4,0.6,0.5
			C115.3,181.8,115.6,181.7,115.9,181.5z"/>
		<path class="st12" d="M116.5,172.1c-0.1-0.2-0.2-0.4-0.1-0.6c0.1-0.2,0.2-0.4,0.4-0.5c0.2-0.1,0.4-0.2,0.6-0.1
			c0.2,0.1,0.4,0.2,0.5,0.4c0.1,0.2,0.2,0.4,0.1,0.6c-0.1,0.2-0.2,0.4-0.4,0.5c-0.2,0.1-0.5,0.2-0.7,0.1
			C116.8,172.4,116.7,172.3,116.5,172.1z M122.4,179l-1.3,0.8l-3.6-6.1l1.3-0.8L122.4,179z"/>
		<path class="st12" d="M127.4,176.2c-0.8,0.4-1.5,0.5-2.3,0.2l-0.1,0c0.4,0.5,0.6,0.8,0.6,0.9l1.5,2.5l-1.3,0.8l-5.1-8.8l1-0.6
			c0.1,0.1,0.3,0.3,0.7,0.7l0.1,0c0-0.8,0.5-1.5,1.3-2c0.8-0.4,1.5-0.5,2.2-0.2c0.7,0.3,1.4,0.9,2,1.9c0.6,1,0.8,1.9,0.7,2.7
			C128.5,175.1,128.1,175.7,127.4,176.2z M124,171.1c-0.5,0.3-0.8,0.7-0.9,1.1c-0.1,0.4,0.1,1,0.5,1.6l0.1,0.2
			c0.4,0.7,0.9,1.2,1.3,1.4c0.4,0.2,0.9,0.1,1.4-0.2c0.4-0.3,0.7-0.6,0.7-1.2c0-0.5-0.2-1.1-0.6-1.8c-0.4-0.7-0.8-1.1-1.3-1.3
			C124.9,170.8,124.4,170.9,124,171.1z"/>
		<path class="st12" d="M134.8,167.6c0.6,1,0.8,1.9,0.6,2.8c-0.2,0.9-0.7,1.5-1.6,2.1c-0.6,0.3-1.1,0.5-1.7,0.5
			c-0.6,0-1.1-0.2-1.6-0.5c-0.5-0.3-1-0.8-1.3-1.5c-0.6-1-0.8-1.9-0.6-2.7c0.2-0.8,0.7-1.5,1.6-2.1c0.9-0.5,1.7-0.6,2.6-0.4
			C133.5,166,134.2,166.6,134.8,167.6z M130.4,170.2c0.8,1.4,1.7,1.8,2.8,1.2c1-0.6,1.1-1.6,0.3-3c-0.8-1.4-1.7-1.8-2.8-1.2
			c-0.5,0.3-0.8,0.7-0.9,1.2C129.8,168.9,130,169.5,130.4,170.2z"/>
	</g>
	<g>
		<path class="st12" d="M329.6,105.3l2,3.1l-1.3,0.8l-5-7.8l2.2-1.4c1-0.6,1.9-0.9,2.6-0.9c0.7,0.1,1.3,0.5,1.8,1.2
			c0.6,1,0.6,2-0.2,3.1l4.4,2.1l-1.5,0.9l-3.9-1.9L329.6,105.3z M328.9,104.3l0.9-0.6c0.6-0.4,1-0.8,1.1-1.2
			c0.1-0.4,0.1-0.8-0.2-1.2c-0.3-0.4-0.6-0.7-1-0.7c-0.4,0-0.9,0.2-1.5,0.5l-0.8,0.5L328.9,104.3z"/>
		<path class="st12" d="M332.9,98.3l-0.1-0.1c0-0.4,0.1-0.8,0.1-1.2c0-0.4,0-0.8,0-1.1l1.5-0.9l0.1,0.1c0,0.3-0.1,0.8-0.3,1.4
			c-0.1,0.6-0.3,1-0.4,1.4L332.9,98.3z M338.4,104.1l-1.3,0.8l-3.8-5.9l1.3-0.8L338.4,104.1z"/>
		<path class="st12" d="M343.6,96.6c0.6,1,0.9,1.9,0.7,2.7c-0.1,0.9-0.7,1.6-1.6,2.1c-0.6,0.4-1.1,0.5-1.7,0.6
			c-0.6,0-1.1-0.1-1.7-0.5c-0.5-0.3-1-0.8-1.4-1.4c-0.6-1-0.8-1.9-0.7-2.7c0.1-0.9,0.7-1.6,1.6-2.1c0.9-0.5,1.7-0.7,2.6-0.5
			C342.3,95.1,343,95.7,343.6,96.6z M339.3,99.4c0.9,1.4,1.8,1.7,2.8,1.1c1-0.6,1.1-1.6,0.2-3c-0.9-1.4-1.8-1.7-2.8-1.1
			c-0.5,0.3-0.8,0.8-0.8,1.3C338.7,98.1,338.9,98.7,339.3,99.4z"/>
		<path class="st12" d="M348.9,87.8c-0.7,0.5-1.1,1.1-1.2,1.9c-0.1,0.8,0.2,1.6,0.7,2.6c0.6,1,1.3,1.6,2,1.8
			c0.7,0.2,1.5,0.1,2.2-0.4c0.3-0.2,0.6-0.4,0.9-0.7c0.3-0.3,0.5-0.6,0.8-0.9l0.7,1.1c-0.5,0.6-1.1,1.2-1.9,1.7
			c-1.1,0.7-2.2,0.9-3.3,0.6c-1.1-0.3-2-1.1-2.8-2.4c-0.5-0.8-0.8-1.6-0.9-2.4c-0.1-0.8,0-1.5,0.4-2.2c0.4-0.7,0.9-1.3,1.7-1.8
			c0.8-0.5,1.6-0.8,2.5-0.9l0.2,1.4c-0.3,0-0.7,0.1-1,0.2C349.5,87.4,349.2,87.6,348.9,87.8z"/>
		<path class="st12" d="M360.1,86.1c0.6,1,0.9,1.9,0.7,2.7c-0.1,0.9-0.7,1.6-1.6,2.1c-0.6,0.4-1.1,0.5-1.7,0.6
			c-0.6,0-1.1-0.1-1.7-0.5c-0.5-0.3-1-0.8-1.4-1.4c-0.6-1-0.8-1.9-0.7-2.7c0.1-0.9,0.7-1.6,1.6-2.1c0.9-0.5,1.7-0.7,2.6-0.5
			C358.7,84.6,359.5,85.2,360.1,86.1z M355.8,88.8c0.9,1.4,1.8,1.7,2.8,1.1c1-0.6,1.1-1.6,0.2-3c-0.9-1.4-1.8-1.7-2.8-1.1
			c-0.5,0.3-0.8,0.8-0.8,1.3C355.1,87.6,355.3,88.2,355.8,88.8z"/>
		<path class="st12" d="M364.7,87.3l-1.3,0.8l-5.3-8.3l1.3-0.8L364.7,87.3z"/>
		<path class="st12" d="M369.8,79.9c0.6,1,0.9,1.9,0.7,2.7c-0.1,0.9-0.7,1.6-1.6,2.1c-0.6,0.4-1.1,0.5-1.7,0.6
			c-0.6,0-1.1-0.1-1.7-0.5c-0.5-0.3-1-0.8-1.4-1.4c-0.6-1-0.8-1.9-0.7-2.7c0.1-0.9,0.7-1.6,1.6-2.1c0.9-0.5,1.7-0.7,2.6-0.5
			C368.5,78.3,369.2,78.9,369.8,79.9z M365.5,82.6c0.9,1.4,1.8,1.7,2.8,1.1c1-0.6,1.1-1.6,0.2-3c-0.9-1.4-1.8-1.7-2.8-1.1
			c-0.5,0.3-0.8,0.8-0.8,1.3C364.9,81.4,365.1,82,365.5,82.6z"/>
		<path class="st12" d="M372.3,74c0.3-0.2,0.5-0.3,0.7-0.3l0.6,1.2c-0.2,0.1-0.4,0.2-0.6,0.3c-0.5,0.3-0.8,0.7-0.9,1.3
			c-0.1,0.5,0,1.1,0.3,1.6l2,3.1l-1.3,0.8l-3.8-5.9l1-0.6l0.8,0.9l0.1,0c0-0.5,0-0.9,0.2-1.3C371.7,74.5,371.9,74.2,372.3,74z"/>
		<path class="st12" d="M381.6,76.5l-0.8-0.7l0,0c-0.1,0.5-0.2,1-0.4,1.3c-0.2,0.3-0.5,0.6-1,0.9c-0.6,0.4-1.1,0.5-1.7,0.4
			c-0.5-0.1-1-0.4-1.3-1c-0.4-0.6-0.5-1.2-0.2-1.8c0.3-0.6,0.8-1.2,1.7-1.8l1-0.7l-0.2-0.3c-0.2-0.4-0.5-0.6-0.8-0.7
			c-0.3-0.1-0.6,0-1,0.2c-0.3,0.2-0.6,0.4-0.8,0.7c-0.2,0.3-0.4,0.5-0.6,0.8l-1-0.6c0.2-0.4,0.5-0.7,0.8-1.1c0.3-0.3,0.7-0.6,1-0.8
			c0.8-0.5,1.4-0.7,2-0.6c0.6,0.1,1.1,0.5,1.6,1.2l2.5,4L381.6,76.5z M379.2,76.9c0.5-0.3,0.7-0.7,0.9-1.1s0-0.9-0.3-1.3l-0.3-0.5
			l-0.7,0.5c-0.6,0.4-0.9,0.8-1.1,1.1c-0.2,0.3-0.1,0.7,0.1,1.1c0.2,0.3,0.4,0.4,0.6,0.5C378.6,77.1,378.9,77.1,379.2,76.9z"/>
		<path class="st12" d="M386.3,73.7c-0.7,0.5-1.5,0.6-2.2,0.3c-0.8-0.3-1.4-0.9-2.1-1.9c-0.6-1-0.9-1.9-0.8-2.7
			c0.1-0.8,0.5-1.4,1.2-1.9c0.8-0.5,1.6-0.6,2.3-0.3l0.1,0c-0.3-0.4-0.6-0.7-0.7-0.9l-1.4-2.2l1.3-0.8l5.3,8.3l-1,0.6l-0.7-0.6
			l-0.1,0C387.5,72.5,387.1,73.2,386.3,73.7z M386,72.4c0.5-0.3,0.8-0.7,0.9-1.2c0-0.4-0.1-1-0.5-1.6l-0.1-0.2
			c-0.5-0.7-0.9-1.2-1.4-1.4c-0.4-0.2-0.9-0.1-1.4,0.3c-0.4,0.3-0.7,0.7-0.7,1.2c0,0.5,0.2,1.1,0.6,1.8c0.4,0.7,0.9,1.1,1.3,1.3
			C385.1,72.8,385.5,72.7,386,72.4z"/>
		<path class="st12" d="M394.4,64.2c0.6,1,0.9,1.9,0.7,2.7c-0.1,0.9-0.7,1.6-1.6,2.1c-0.6,0.4-1.1,0.5-1.7,0.6
			c-0.6,0-1.1-0.1-1.7-0.5c-0.5-0.3-1-0.8-1.4-1.4c-0.6-1-0.8-1.9-0.7-2.7c0.1-0.9,0.7-1.6,1.6-2.1c0.9-0.5,1.7-0.7,2.6-0.5
			C393.1,62.6,393.8,63.2,394.4,64.2z M390.1,66.9c0.9,1.4,1.8,1.7,2.8,1.1c1-0.6,1.1-1.6,0.2-3c-0.9-1.4-1.8-1.7-2.8-1.1
			c-0.5,0.3-0.8,0.8-0.8,1.3C389.5,65.7,389.7,66.3,390.1,66.9z"/>
	</g>
	<g>
		<path class="st12" d="M484.7,406.8l3.1,2l-0.8,1.3l-7.8-5.1l1.4-2.2c0.7-1,1.3-1.6,2-1.9c0.7-0.2,1.4-0.1,2.2,0.4
			c1,0.6,1.3,1.6,1.1,2.9l4.9,0.1l-0.9,1.4l-4.3-0.2L484.7,406.8z M483.6,406.2l0.6-0.9c0.4-0.6,0.6-1.1,0.5-1.5
			c0-0.4-0.3-0.8-0.7-1c-0.4-0.3-0.8-0.4-1.2-0.2c-0.4,0.2-0.8,0.5-1.1,1.1l-0.6,0.8L483.6,406.2z"/>
		<path class="st12" d="M484.8,399.1l-0.1-0.1c-0.1-0.4-0.3-0.8-0.4-1.2c-0.2-0.4-0.3-0.8-0.4-1l1-1.4l0.1,0.1
			c0.1,0.3,0.2,0.8,0.3,1.4c0.1,0.6,0.2,1.1,0.2,1.4L484.8,399.1z M492.3,402.1l-0.8,1.2l-5.9-3.9l0.8-1.2L492.3,402.1z"/>
		<path class="st12" d="M493.9,393.2c1,0.6,1.5,1.4,1.8,2.2c0.2,0.8,0,1.7-0.5,2.6c-0.4,0.5-0.8,1-1.3,1.2c-0.5,0.3-1.1,0.3-1.7,0.3
			c-0.6-0.1-1.2-0.3-1.8-0.7c-1-0.6-1.5-1.4-1.7-2.2c-0.2-0.8,0-1.7,0.6-2.6c0.6-0.8,1.3-1.3,2.1-1.5
			C492.1,392.3,493,392.6,493.9,393.2z M491.1,397.4c1.4,0.9,2.4,0.8,3-0.2c0.7-1,0.3-1.9-1.1-2.8c-1.3-0.9-2.3-0.8-3,0.2
			c-0.3,0.5-0.4,1-0.2,1.5C490,396.6,490.4,397,491.1,397.4z"/>
		<path class="st12" d="M496.9,385.8l-2.3-4.2l0.9-1.4l3,5.7l3,2l-0.8,1.3l-3-1.9l-6.5-0.6l0.9-1.4L496.9,385.8z"/>
		<path class="st12" d="M505.7,381.9c-0.6,0.9-1.3,1.5-2.2,1.6c-0.9,0.2-1.8-0.1-2.7-0.7c-1-0.6-1.6-1.4-1.8-2.2
			c-0.2-0.8-0.1-1.7,0.5-2.5c0.5-0.8,1.1-1.2,1.9-1.4c0.8-0.1,1.6,0.1,2.4,0.6l0.7,0.4l-2.6,3.9c0.6,0.4,1.1,0.5,1.6,0.4
			c0.5-0.1,0.9-0.4,1.3-0.9c0.2-0.3,0.4-0.7,0.5-1c0.1-0.3,0.2-0.7,0.3-1.2l1,0.7c-0.1,0.4-0.2,0.8-0.3,1.1
			C506.1,381.1,505.9,381.5,505.7,381.9z M500.4,378.8c-0.3,0.4-0.3,0.8-0.2,1.2c0.1,0.4,0.4,0.8,0.8,1.1l1.7-2.7
			c-0.5-0.3-0.9-0.4-1.3-0.4C501,378.2,500.6,378.4,500.4,378.8z"/>
		<path class="st12" d="M508.9,373.1c0.6,0.4,0.9,0.9,0.9,1.5c0,0.6-0.2,1.3-0.7,2.1c-0.5,0.8-1,1.3-1.6,1.6l-1.1-0.7
			c0.8-0.5,1.4-1,1.7-1.6c0.5-0.8,0.5-1.3,0.1-1.6c-0.1-0.1-0.3-0.1-0.5-0.1c-0.2,0-0.3,0.1-0.6,0.2c-0.2,0.1-0.5,0.3-0.9,0.6
			c-0.7,0.5-1.3,0.8-1.7,0.9c-0.4,0.1-0.8,0-1.3-0.3c-0.5-0.3-0.8-0.8-0.8-1.4c0-0.6,0.2-1.2,0.7-1.9c0.5-0.7,1-1.3,1.7-1.7l0.7,1
			c-0.7,0.5-1.2,0.9-1.4,1.3c-0.4,0.7-0.5,1.1-0.1,1.4c0.2,0.1,0.4,0.1,0.6,0c0.2-0.1,0.7-0.3,1.3-0.8c0.5-0.4,0.9-0.6,1.2-0.7
			c0.3-0.1,0.6-0.2,0.9-0.1C508.3,372.8,508.6,372.9,508.9,373.1z"/>
		<path class="st12" d="M511.9,365.7c1,0.6,1.5,1.4,1.8,2.2c0.2,0.8,0,1.7-0.5,2.6c-0.4,0.5-0.8,1-1.3,1.2c-0.5,0.3-1.1,0.3-1.7,0.3
			c-0.6-0.1-1.2-0.3-1.8-0.7c-1-0.6-1.5-1.4-1.7-2.2c-0.2-0.8,0-1.7,0.6-2.6c0.6-0.8,1.3-1.3,2.1-1.5
			C510.1,364.9,511,365.1,511.9,365.7z M509.1,370c1.4,0.9,2.4,0.8,3-0.2c0.7-1,0.3-1.9-1.1-2.8c-1.3-0.9-2.3-0.8-3,0.2
			c-0.3,0.5-0.4,1-0.2,1.5C508.1,369.1,508.5,369.6,509.1,370z"/>
	</g>
	<g>
		<path class="st12" d="M565,508.8v3.7h-1.5v-9.3h2.6c1.2,0,2.1,0.2,2.7,0.7c0.6,0.4,0.9,1.1,0.9,2c0,1.2-0.6,2-1.8,2.5l2.6,4.1
			h-1.7l-2.2-3.7H565z M565,507.5h1.1c0.7,0,1.2-0.1,1.5-0.4c0.3-0.3,0.5-0.7,0.5-1.2c0-0.5-0.2-0.9-0.5-1.1s-0.9-0.3-1.5-0.3h-1
			V507.5z"/>
		<path class="st12" d="M571.6,504.6v-0.2c0.2-0.3,0.5-0.6,0.7-1c0.3-0.4,0.5-0.7,0.6-0.9h1.7v0.1c-0.2,0.3-0.5,0.6-1,1
			c-0.4,0.4-0.8,0.7-1.1,0.9H571.6z M573.2,512.5h-1.5v-7h1.5V512.5z"/>
		<path class="st12" d="M581.5,509c0,1.1-0.3,2-0.9,2.7c-0.6,0.6-1.4,1-2.5,1c-0.7,0-1.2-0.1-1.7-0.4c-0.5-0.3-0.9-0.7-1.2-1.3
			c-0.3-0.6-0.4-1.2-0.4-1.9c0-1.1,0.3-2,0.9-2.7c0.6-0.6,1.4-1,2.5-1c1,0,1.8,0.3,2.4,1C581.2,507,581.5,507.8,581.5,509z
			 M576.4,509c0,1.6,0.6,2.4,1.8,2.4c1.2,0,1.8-0.8,1.8-2.4c0-1.6-0.6-2.4-1.8-2.4c-0.6,0-1.1,0.2-1.4,0.6
			C576.6,507.6,576.4,508.2,576.4,509z"/>
		<path class="st12" d="M592.1,503.2h1.6l-3.3,9.3h-1.6l-3.2-9.3h1.6l1.9,5.8c0.1,0.3,0.2,0.6,0.3,1.1s0.2,0.8,0.2,1
			c0.1-0.3,0.1-0.7,0.3-1.1c0.1-0.4,0.2-0.7,0.3-0.9L592.1,503.2z"/>
		<path class="st12" d="M600.9,509c0,1.1-0.3,2-0.9,2.7c-0.6,0.6-1.4,1-2.5,1c-0.7,0-1.2-0.1-1.7-0.4c-0.5-0.3-0.9-0.7-1.2-1.3
			c-0.3-0.6-0.4-1.2-0.4-1.9c0-1.1,0.3-2,0.9-2.7c0.6-0.6,1.4-1,2.5-1c1,0,1.8,0.3,2.4,1C600.6,507,600.9,507.8,600.9,509z
			 M595.8,509c0,1.6,0.6,2.4,1.8,2.4c1.2,0,1.8-0.8,1.8-2.4c0-1.6-0.6-2.4-1.8-2.4c-0.6,0-1.1,0.2-1.4,0.6
			C596,507.6,595.8,508.2,595.8,509z"/>
		<path class="st12" d="M604.1,512.5h-1.5v-9.9h1.5V512.5z"/>
		<path class="st12" d="M609.1,512.6c-1.1,0-1.9-0.3-2.4-0.9c-0.6-0.6-0.8-1.5-0.8-2.7c0-1.2,0.3-2.1,0.9-2.7c0.6-0.6,1.4-1,2.5-1
			c0.7,0,1.4,0.1,2,0.4l-0.5,1.2c-0.6-0.2-1.2-0.4-1.6-0.4c-1.2,0-1.8,0.8-1.8,2.4c0,0.8,0.2,1.4,0.5,1.8s0.7,0.6,1.3,0.6
			c0.7,0,1.3-0.2,1.9-0.5v1.3c-0.3,0.2-0.6,0.3-0.9,0.3C609.9,512.6,609.5,512.6,609.1,512.6z"/>
		<path class="st12" d="M617.1,512.5l-0.3-1h-0.1c-0.3,0.4-0.7,0.7-1,0.9c-0.3,0.2-0.8,0.2-1.3,0.2c-0.7,0-1.2-0.2-1.6-0.6
			c-0.4-0.4-0.6-0.9-0.6-1.6c0-0.7,0.3-1.3,0.8-1.6c0.5-0.4,1.4-0.6,2.5-0.6l1.2,0v-0.4c0-0.4-0.1-0.8-0.3-1c-0.2-0.2-0.5-0.3-1-0.3
			c-0.4,0-0.7,0.1-1,0.2c-0.3,0.1-0.6,0.2-1,0.4l-0.5-1.1c0.4-0.2,0.8-0.4,1.3-0.5s0.9-0.2,1.3-0.2c0.9,0,1.6,0.2,2,0.6
			c0.5,0.4,0.7,1,0.7,1.8v4.7H617.1z M614.9,511.5c0.5,0,1-0.2,1.3-0.5s0.5-0.7,0.5-1.3v-0.6l-0.9,0c-0.7,0-1.2,0.1-1.5,0.4
			c-0.3,0.2-0.5,0.5-0.5,1c0,0.3,0.1,0.6,0.3,0.7C614.2,511.4,614.5,511.5,614.9,511.5z M614.4,504.6v-0.2c0.2-0.3,0.5-0.6,0.7-1
			c0.3-0.4,0.5-0.7,0.6-0.9h1.7v0.1c-0.2,0.3-0.5,0.6-1,1c-0.4,0.4-0.8,0.7-1.1,0.9H614.4z"/>
		<path class="st12" d="M626.4,512.5h-1.5v-4.3c0-0.5-0.1-0.9-0.3-1.2s-0.6-0.4-1-0.4c-0.6,0-1.1,0.2-1.4,0.6
			c-0.3,0.4-0.4,1-0.4,1.9v3.5h-1.5v-7h1.2l0.2,0.9h0.1c0.2-0.3,0.5-0.6,0.9-0.8c0.4-0.2,0.8-0.3,1.3-0.3c1.7,0,2.5,0.9,2.5,2.6
			V512.5z"/>
	</g>
</g>
<g id="proyectos_1_">
	<polyline class="st13" points="545.4,309.2 550.9,302 561.2,302 570.5,286.5 	"/>
	<g id="proyectos">
		<polyline class="st13" points="164.2,152.3 178.3,157.3 294,158 481.3,40.2 		"/>
		<polyline class="st13" points="364.3,113.3 405.4,113.3 406.1,191.3 523.2,309.1 584.9,309.1 584.9,385.1 663.7,463.8 		"/>
		<circle class="st11" cx="294.5" cy="158.2" r="4.2"/>
		<circle class="st11" cx="406.2" cy="113.3" r="4.2"/>
		<circle class="st11" cx="663.3" cy="463.4" r="4.2"/>
	</g>
</g>
<g id="simbologia">
	<rect x="117" y="455.1" class="st14" width="103.2" height="16.3"/>
	<text transform="matrix(1 0 0 1 116.9866 464.9708)" class="st15 st16 st17">Ríos</text>
	<rect x="117" y="484.9" class="st14" width="103.2" height="16.3"/>
	<text transform="matrix(1 0 0 1 116.9866 494.8264)" class="st15 st16 st17">Proyectos</text>
	<line class="st18" x1="26.9" y1="463.1" x2="106.5" y2="463.1"/>
	<line class="st13" x1="26.9" y1="492.5" x2="106.5" y2="492.5"/>
</g>
<g id="descarga_alto_maipo">
	<rect x="10.5" y="131.8" class="st14" width="103.2" height="26.6"/>
	<text transform="matrix(1 0 0 1 38.4015 140.139)"><tspan x="0" y="0" class="st15 st19 st20">Descarga </tspan><tspan x="-4" y="13.2" class="st15 st19 st20">Alto Maipo</tspan></text>
	<line class="st21" x1="51.1" y1="196.8" x2="51.1" y2="161.5"/>
</g>
</svg>
