<svg xmlns="http://www.w3.org/2000/svg" viewBox="0 0 85.04 85.04"><defs><style>.cls-1{fill:#054959;}.cls-2{fill:#fff;}</style></defs><title>arbolicon</title><g id="Capa_2" data-name="Capa 2"><g id="Layer_1" data-name="Layer 1"><circle class="cls-1" cx="42.52" cy="42.52" r="42.52"/><path class="cls-2" d="M28.5,58.1H41.87v8.84a.63.63,0,0,0,1.26,0V58.1H56.51a.57.57,0,0,0,.51-.31.76.76,0,0,0,.06-.63l-4.23-9.28h3a.57.57,0,0,0,.51-.31.76.76,0,0,0,.06-.63L52,37.16h2a.65.65,0,0,0,.57-.32.56.56,0,0,0,0-.63L43.7,17.79a.63.63,0,0,0-.5-.32.68.68,0,0,0-.57.32L30.52,36.21a.56.56,0,0,0,0,.63.65.65,0,0,0,.56.32h2.46l-5,9.78a.73.73,0,0,0,0,.63.58.58,0,0,0,.57.31h3.53L28,57.16a.77.77,0,0,0,0,.63A.49.49,0,0,0,28.5,58.1Z"/><path class="cls-2" d="M34.17,47.57a.7.7,0,0,0,0-.63.65.65,0,0,0-.56-.32H30.07l5-9.78a.77.77,0,0,0,0-.63.6.6,0,0,0-.57-.32H32.16l11-16.59L52.92,36H51.09a.56.56,0,0,0-.51.31.69.69,0,0,0-.06.63L55,46.68H52a.58.58,0,0,0-.51.32.76.76,0,0,0-.06.63l4.23,9.28H29.51Z"/></g></g></svg>