<svg xmlns="http://www.w3.org/2000/svg" viewBox="0 0 85.04 85.04"><defs><style>.cls-1{fill:#054959;}.cls-2,.cls-3{fill:#fff;}.cls-2{stroke:#fff;stroke-miterlimit:10;stroke-width:0.25px;}</style></defs><title>flechasicon</title><g id="Capa_2" data-name="Capa 2"><g id="Layer_1" data-name="Layer 1"><circle class="cls-1" cx="42.52" cy="42.52" r="42.52"/><path class="cls-2" d="M42.63,29.36a.62.62,0,0,1,.35.2c4.43,4.89,8.63,10.69,8.63,16.18s-4,9.95-9.09,9.95-9.09-4.49-9.09-9.95,4.2-11.29,8.63-16.18a.61.61,0,0,1,.57-.2ZM42.52,31c-4.17,4.7-7.84,10.14-7.84,14.79,0,4.84,3.54,8.7,7.84,8.7s7.84-3.86,7.84-8.7c0-4.65-3.67-10.09-7.84-14.79Zm5.7,13.74a.63.63,0,0,1,.55.58A7.2,7.2,0,0,1,46,51.48a.63.63,0,0,1-.76-1l0,0a6.39,6.39,0,0,0,2.2-5.07.62.62,0,0,1,.55-.69Z"/><path class="cls-3" d="M64.92,50.57a1.58,1.58,0,0,0-2.08.81,22.17,22.17,0,0,1-42.48-8.86v-.93l2,2a1.58,1.58,0,0,0,1.12.46,1.57,1.57,0,0,0,1.12-.46,1.58,1.58,0,0,0,0-2.24l-4.75-4.75a1.57,1.57,0,0,0-2.23,0L12.91,41.4a1.58,1.58,0,0,0,2.24,2.24l2-2v.93A25.33,25.33,0,0,0,65.74,52.65,1.58,1.58,0,0,0,64.92,50.57Z"/><path class="cls-3" d="M72.13,41.4a1.58,1.58,0,0,0-2.24,0l-2,2.05v-.93A25.33,25.33,0,0,0,19.3,32.39a1.58,1.58,0,0,0,2.9,1.27,22.17,22.17,0,0,1,42.48,8.86v.93L62.63,41.4a1.58,1.58,0,1,0-2.23,2.24l4.74,4.75a1.62,1.62,0,0,0,1.12.46,1.59,1.59,0,0,0,1.12-.46l4.75-4.75A1.58,1.58,0,0,0,72.13,41.4Z"/></g></g></svg>