<svg width="697" height="791" viewBox="0 0 697 791" fill="none" xmlns="http://www.w3.org/2000/svg">
<path d="M227.906 354.586C227.906 356.49 227.325 358.128 226.163 359.5C225.001 360.857 223.322 361.844 221.124 362.46V362.586C226.247 363.23 228.809 365.651 228.809 369.851C228.809 372.706 227.675 374.953 225.407 376.59C223.154 378.228 220.018 379.047 216.001 379.047C214.349 379.047 212.817 378.928 211.403 378.69C210.003 378.452 208.484 378.018 206.847 377.388V370.501C208.19 371.187 209.555 371.698 210.941 372.034C212.341 372.356 213.628 372.517 214.804 372.517C216.624 372.517 217.947 372.265 218.772 371.761C219.612 371.243 220.032 370.438 220.032 369.347C220.032 368.507 219.815 367.863 219.381 367.415C218.947 366.953 218.248 366.61 217.282 366.386C216.316 366.148 215.056 366.029 213.502 366.029H211.613V359.793H213.544C217.758 359.793 219.864 358.716 219.864 356.56C219.864 355.748 219.549 355.146 218.919 354.754C218.304 354.362 217.471 354.167 216.421 354.167C214.461 354.167 212.432 354.824 210.332 356.14L206.889 350.597C208.512 349.477 210.171 348.68 211.865 348.204C213.572 347.728 215.525 347.49 217.723 347.49C220.9 347.49 223.392 348.12 225.197 349.379C227.003 350.639 227.906 352.375 227.906 354.586ZM253.101 354.586C253.101 356.49 252.52 358.128 251.358 359.5C250.197 360.857 248.517 361.844 246.319 362.46V362.586C251.442 363.23 254.004 365.651 254.004 369.851C254.004 372.706 252.87 374.953 250.603 376.59C248.349 378.228 245.214 379.047 241.196 379.047C239.545 379.047 238.012 378.928 236.598 378.69C235.198 378.452 233.68 378.018 232.042 377.388V370.501C233.386 371.187 234.75 371.698 236.136 372.034C237.536 372.356 238.824 372.517 240 372.517C241.819 372.517 243.142 372.265 243.968 371.761C244.808 371.243 245.228 370.438 245.228 369.347C245.228 368.507 245.011 367.863 244.577 367.415C244.143 366.953 243.443 366.61 242.477 366.386C241.511 366.148 240.251 366.029 238.698 366.029H236.808V359.793H238.74C242.953 359.793 245.06 358.716 245.06 356.56C245.06 355.748 244.745 355.146 244.115 354.754C243.499 354.362 242.666 354.167 241.616 354.167C239.657 354.167 237.627 354.824 235.527 356.14L232.084 350.597C233.708 349.477 235.366 348.68 237.06 348.204C238.768 347.728 240.72 347.49 242.918 347.49C246.095 347.49 248.587 348.12 250.393 349.379C252.198 350.639 253.101 352.375 253.101 354.586ZM279.451 363.321C279.451 368.752 278.541 372.734 276.722 375.268C274.902 377.787 272.117 379.047 268.365 379.047C264.698 379.047 261.933 377.731 260.072 375.1C258.21 372.454 257.279 368.528 257.279 363.321C257.279 357.862 258.189 353.859 260.009 351.311C261.828 348.764 264.614 347.49 268.365 347.49C272.019 347.49 274.776 348.819 276.638 351.479C278.513 354.125 279.451 358.072 279.451 363.321ZM265.531 363.321C265.531 366.792 265.748 369.179 266.182 370.48C266.616 371.782 267.343 372.433 268.365 372.433C269.401 372.433 270.129 371.761 270.549 370.417C270.983 369.074 271.2 366.708 271.2 363.321C271.2 359.919 270.983 357.54 270.549 356.182C270.115 354.81 269.387 354.125 268.365 354.125C267.343 354.125 266.616 354.782 266.182 356.098C265.748 357.414 265.531 359.821 265.531 363.321ZM282.769 375.142C282.769 373.854 283.146 372.86 283.902 372.16C284.672 371.46 285.785 371.11 287.241 371.11C288.626 371.11 289.69 371.46 290.432 372.16C291.174 372.86 291.545 373.854 291.545 375.142C291.545 376.401 291.16 377.388 290.39 378.102C289.634 378.802 288.584 379.152 287.241 379.152C285.855 379.152 284.763 378.802 283.965 378.102C283.167 377.402 282.769 376.415 282.769 375.142ZM297.781 378.627L308.321 354.838H295.03V347.973H317.181V352.865L306.368 378.627H297.781ZM322.976 378.627L333.516 354.838H320.226V347.973H342.376V352.865L331.563 378.627H322.976ZM367.467 363.321C367.467 368.752 366.557 372.734 364.737 375.268C362.918 377.787 360.132 379.047 356.381 379.047C352.714 379.047 349.949 377.731 348.087 375.1C346.226 372.454 345.295 368.528 345.295 363.321C345.295 357.862 346.205 353.859 348.024 351.311C349.844 348.764 352.63 347.49 356.381 347.49C360.034 347.49 362.792 348.819 364.653 351.479C366.529 354.125 367.467 358.072 367.467 363.321ZM353.546 363.321C353.546 366.792 353.763 369.179 354.197 370.48C354.631 371.782 355.359 372.433 356.381 372.433C357.417 372.433 358.145 371.761 358.564 370.417C358.998 369.074 359.215 366.708 359.215 363.321C359.215 359.919 358.998 357.54 358.564 356.182C358.131 354.81 357.403 354.125 356.381 354.125C355.359 354.125 354.631 354.782 354.197 356.098C353.763 357.414 353.546 359.821 353.546 363.321Z" fill="#211915"/>
<path d="M289.15 239.319L289.039 239.097L286.477 194.766C253.062 197.328 222.431 209.357 197.036 228.181L227.666 261.039C245.376 249.01 266.428 241.213 289.15 239.319Z" fill="#E4C55A"/>
<path d="M343.84 200.112C339.83 198.999 335.709 198.107 331.476 197.328L331.587 197.439L343.84 200.112Z" fill="#E4C55A"/>
<path d="M171.641 366.964C171.641 322.968 193.806 284.207 227.555 261.15L196.925 228.292C154.488 259.702 127.088 310.159 127.088 367.076C127.088 402.941 138.003 436.245 156.827 463.868L193.918 439.252C179.883 418.646 171.641 393.808 171.641 366.964Z" fill="#73B3C0"/>
<path d="M299.732 495.055C255.736 495.055 216.975 472.89 193.918 439.141L156.828 463.756C187.904 509.535 240.365 539.608 299.732 539.608C315.66 539.608 331.031 537.492 345.733 533.371L335.375 490.043C324.014 493.384 312.096 495.055 299.732 495.055Z" fill="#474747"/>
<path d="M454.777 291.112L413.788 308.822C422.698 326.309 427.711 346.024 427.711 366.964C427.711 425.329 388.615 474.56 335.263 490.043L345.621 533.371C418.689 513.322 472.375 446.492 472.375 366.964C472.375 339.787 466.026 314.057 454.777 291.112Z" fill="#004756"/>
<path d="M413.899 308.822L454.888 291.112C433.057 246.671 392.736 212.921 343.951 200.112L335.374 244.22C368.232 254.579 398.417 278.638 413.899 308.822Z" fill="#B77E4A"/>
<path d="M324.459 241.101C327.912 241.881 332.144 242.995 335.486 243.997L343.84 200.001L331.031 197.216L324.459 241.101Z" fill="#A73839"/>
<path d="M289.151 239.319C292.381 239.097 295.722 238.874 299.064 238.874L300.4 194.321C300.178 194.321 299.955 194.321 299.732 194.321C295.277 194.321 290.821 194.543 286.478 194.877L289.039 239.208L289.151 239.319Z" fill="#00646E"/>
<path d="M301.959 238.985C303.742 238.985 305.635 239.096 307.64 239.208C305.858 239.096 303.964 238.985 301.959 238.985Z" fill="#643623"/>
<path d="M317.553 239.765L324.793 241.213L331.587 197.551L331.476 197.439C328.023 196.771 324.458 196.325 320.894 195.88L317.553 239.765Z" fill="#AE5A40"/>
<path d="M299.732 238.874C300.4 238.874 301.18 238.874 301.959 238.874C303.853 238.874 305.746 238.985 307.64 239.097C309.645 239.208 315.66 239.542 317.553 239.765L323.791 196.103C318.11 195.546 305.746 194.432 300.4 194.321L299.063 238.874C299.286 238.985 299.509 238.874 299.732 238.874Z" fill="#643623"/>
<path d="M519.921 81.2057C519.921 76.4576 521.855 74.0836 525.724 74.0836C526.332 74.0836 526.847 74.1307 527.268 74.2247V75.8517C526.847 75.7299 526.36 75.6691 525.807 75.6691C524.506 75.6691 523.529 76.0177 522.876 76.715C522.223 77.4122 521.869 78.5301 521.814 80.0685H521.914C522.174 79.6202 522.539 79.2744 523.009 79.0309C523.48 78.7819 524.033 78.6573 524.669 78.6573C525.771 78.6573 526.628 78.9949 527.243 79.67C527.857 80.3452 528.164 81.261 528.164 82.4176C528.164 83.6904 527.807 84.6976 527.093 85.4391C526.385 86.1751 525.417 86.5431 524.188 86.5431C523.319 86.5431 522.564 86.3356 521.922 85.9205C521.28 85.5 520.785 84.8912 520.436 84.0944C520.093 83.292 519.921 82.3291 519.921 81.2057ZM524.155 84.9327C524.824 84.9327 525.339 84.7169 525.699 84.2853C526.064 83.8536 526.247 83.2366 526.247 82.4342C526.247 81.7369 526.075 81.1891 525.732 80.7906C525.394 80.3922 524.885 80.193 524.205 80.193C523.784 80.193 523.397 80.2843 523.042 80.4669C522.688 80.644 522.409 80.8903 522.204 81.2057C521.999 81.5156 521.897 81.8338 521.897 82.1603C521.897 82.9406 522.107 83.5991 522.528 84.1359C522.954 84.6671 523.496 84.9327 524.155 84.9327ZM532.273 84.5924C532.007 85.6217 531.52 86.9471 530.812 88.5685H529.376C529.758 87.0743 530.043 85.6853 530.231 84.4015H532.148L532.273 84.5924ZM539.876 86.3771H537.926V78.5411C537.926 77.6059 537.948 76.8644 537.992 76.3165C537.865 76.4493 537.707 76.596 537.519 76.7565C537.336 76.917 536.717 77.4261 535.66 78.2838L534.68 77.047L538.25 74.2413H539.876V86.3771ZM545.43 77.8771C545.43 78.7016 545.51 79.3159 545.67 79.7198C545.831 80.1238 546.094 80.3258 546.459 80.3258C547.189 80.3258 547.555 79.5096 547.555 77.8771C547.555 76.2446 547.189 75.4283 546.459 75.4283C546.094 75.4283 545.831 75.6303 545.67 76.0343C545.51 76.4383 545.43 77.0525 545.43 77.8771ZM549.165 77.8605C549.165 79.1333 548.935 80.0906 548.476 80.7325C548.022 81.3689 547.35 81.6871 546.459 81.6871C545.618 81.6871 544.965 81.3579 544.5 80.6993C544.041 80.0353 543.811 79.089 543.811 77.8605C543.811 75.3315 544.694 74.067 546.459 74.067C547.328 74.067 547.995 74.3963 548.459 75.0548C548.93 75.7078 549.165 76.643 549.165 77.8605ZM553.332 82.7247C553.332 83.5493 553.412 84.1663 553.573 84.5758C553.739 84.9853 554.004 85.1901 554.37 85.1901C555.095 85.1901 555.457 84.3683 555.457 82.7247C555.457 81.1033 555.095 80.2926 554.37 80.2926C554.004 80.2926 553.739 80.4918 553.573 80.8903C553.412 81.2887 553.332 81.9002 553.332 82.7247ZM557.067 82.7247C557.067 83.9975 556.838 84.9521 556.378 85.5885C555.919 86.2249 555.25 86.5431 554.37 86.5431C553.528 86.5431 552.875 86.2166 552.411 85.5636C551.946 84.9051 551.713 83.9588 551.713 82.7247C551.713 80.1958 552.599 78.9313 554.37 78.9313C555.222 78.9313 555.883 79.2578 556.354 79.9108C556.829 80.5638 557.067 81.5017 557.067 82.7247ZM554.602 74.2413L547.87 86.3771H546.26L552.992 74.2413H554.602Z" fill="#211915"/>
<path d="M528.114 115.752C528.114 117.86 527.774 119.426 527.093 120.45C526.418 121.474 525.383 121.986 523.989 121.986C522.639 121.986 521.615 121.457 520.917 120.4C520.22 119.343 519.872 117.794 519.872 115.752C519.872 113.61 520.209 112.033 520.884 111.02C521.565 110.002 522.6 109.493 523.989 109.493C525.345 109.493 526.371 110.024 527.068 111.087C527.766 112.149 528.114 113.704 528.114 115.752ZM521.847 115.752C521.847 117.406 522.016 118.588 522.354 119.296C522.697 120.004 523.242 120.359 523.989 120.359C524.736 120.359 525.281 119.999 525.624 119.28C525.973 118.56 526.147 117.384 526.147 115.752C526.147 114.125 525.973 112.949 525.624 112.224C525.281 111.493 524.736 111.128 523.989 111.128C523.242 111.128 522.697 111.485 522.354 112.199C522.016 112.913 521.847 114.097 521.847 115.752ZM532.273 120.035C532.007 121.064 531.52 122.39 530.812 124.011H529.376C529.758 122.517 530.043 121.128 530.231 119.844H532.148L532.273 120.035ZM542.358 114.864C542.358 117.254 541.877 119.039 540.914 120.218C539.951 121.396 538.501 121.986 536.564 121.986C535.828 121.986 535.3 121.941 534.979 121.853V120.218C535.472 120.356 535.967 120.425 536.465 120.425C537.782 120.425 538.764 120.071 539.412 119.363C540.059 118.654 540.413 117.542 540.474 116.026H540.375C540.048 116.524 539.652 116.883 539.188 117.105C538.728 117.326 538.189 117.437 537.569 117.437C536.495 117.437 535.651 117.102 535.037 116.432C534.423 115.763 534.116 114.844 534.116 113.677C534.116 112.409 534.47 111.402 535.178 110.655C535.892 109.902 536.863 109.526 538.092 109.526C538.955 109.526 539.708 109.736 540.35 110.157C540.992 110.578 541.487 111.189 541.835 111.991C542.184 112.788 542.358 113.746 542.358 114.864ZM538.125 111.145C537.45 111.145 536.932 111.366 536.573 111.809C536.213 112.246 536.033 112.863 536.033 113.66C536.033 114.352 536.199 114.897 536.531 115.295C536.869 115.688 537.378 115.885 538.059 115.885C538.717 115.885 539.271 115.688 539.719 115.295C540.167 114.902 540.391 114.443 540.391 113.917C540.391 113.425 540.294 112.965 540.101 112.539C539.912 112.108 539.647 111.767 539.304 111.518C538.961 111.269 538.568 111.145 538.125 111.145ZM545.43 113.32C545.43 114.144 545.51 114.758 545.67 115.162C545.831 115.566 546.094 115.768 546.459 115.768C547.189 115.768 547.555 114.952 547.555 113.32C547.555 111.687 547.189 110.871 546.459 110.871C546.094 110.871 545.831 111.073 545.67 111.477C545.51 111.881 545.43 112.495 545.43 113.32ZM549.165 113.303C549.165 114.576 548.935 115.533 548.476 116.175C548.022 116.811 547.35 117.13 546.459 117.13C545.618 117.13 544.965 116.8 544.5 116.142C544.041 115.478 543.811 114.531 543.811 113.303C543.811 110.774 544.694 109.51 546.459 109.51C547.328 109.51 547.995 109.839 548.459 110.497C548.93 111.15 549.165 112.086 549.165 113.303ZM553.332 118.167C553.332 118.992 553.412 119.609 553.573 120.018C553.739 120.428 554.004 120.633 554.37 120.633C555.095 120.633 555.457 119.811 555.457 118.167C555.457 116.546 555.095 115.735 554.37 115.735C554.004 115.735 553.739 115.934 553.573 116.333C553.412 116.731 553.332 117.343 553.332 118.167ZM557.067 118.167C557.067 119.44 556.838 120.395 556.378 121.031C555.919 121.667 555.25 121.986 554.37 121.986C553.528 121.986 552.875 121.659 552.411 121.006C551.946 120.348 551.713 119.401 551.713 118.167C551.713 115.638 552.599 114.374 554.37 114.374C555.222 114.374 555.883 114.7 556.354 115.353C556.829 116.006 557.067 116.944 557.067 118.167ZM554.602 109.684L547.87 121.82H546.26L552.992 109.684H554.602Z" fill="#211915"/>
<path d="M525.616 151.781H523.665V143.945C523.665 143.009 523.687 142.268 523.731 141.72C523.604 141.853 523.446 141.999 523.258 142.16C523.076 142.32 522.456 142.83 521.399 143.687L520.419 142.45L523.989 139.645H525.616V151.781ZM532.273 149.996C532.007 151.025 531.52 152.351 530.812 153.972H529.376C529.758 152.478 530.043 151.089 530.231 149.805H532.148L532.273 149.996ZM542.807 149.133H541.171V151.781H539.271V149.133H533.726V147.63L539.271 139.612H541.171V147.514H542.807V149.133ZM539.271 147.514V144.468C539.271 143.383 539.298 142.495 539.354 141.803H539.287C539.132 142.168 538.889 142.611 538.557 143.131L535.543 147.514H539.271ZM545.43 143.281C545.43 144.105 545.51 144.719 545.67 145.123C545.831 145.527 546.094 145.729 546.459 145.729C547.189 145.729 547.555 144.913 547.555 143.281C547.555 141.648 547.189 140.832 546.459 140.832C546.094 140.832 545.831 141.034 545.67 141.438C545.51 141.842 545.43 142.456 545.43 143.281ZM549.165 143.264C549.165 144.537 548.935 145.494 548.476 146.136C548.022 146.772 547.35 147.091 546.459 147.091C545.618 147.091 544.965 146.761 544.5 146.103C544.041 145.439 543.811 144.492 543.811 143.264C543.811 140.735 544.694 139.47 546.459 139.47C547.328 139.47 547.995 139.8 548.459 140.458C548.93 141.111 549.165 142.046 549.165 143.264ZM553.332 148.128C553.332 148.953 553.412 149.57 553.573 149.979C553.739 150.389 554.004 150.594 554.37 150.594C555.095 150.594 555.457 149.772 555.457 148.128C555.457 146.507 555.095 145.696 554.37 145.696C554.004 145.696 553.739 145.895 553.573 146.294C553.412 146.692 553.332 147.304 553.332 148.128ZM557.067 148.128C557.067 149.401 556.838 150.356 556.378 150.992C555.919 151.628 555.25 151.947 554.37 151.947C553.528 151.947 552.875 151.62 552.411 150.967C551.946 150.309 551.713 149.362 551.713 148.128C551.713 145.599 552.599 144.335 554.37 144.335C555.222 144.335 555.883 144.661 556.354 145.314C556.829 145.967 557.067 146.905 557.067 148.128ZM554.602 139.645L547.87 151.781H546.26L552.992 139.645H554.602Z" fill="#211915"/>
<path d="M528.114 168.273C528.114 170.382 527.774 171.948 527.093 172.971C526.418 173.995 525.383 174.507 523.989 174.507C522.639 174.507 521.615 173.979 520.917 172.922C520.22 171.865 519.872 170.315 519.872 168.273C519.872 166.132 520.209 164.554 520.884 163.542C521.565 162.524 522.6 162.014 523.989 162.014C525.345 162.014 526.371 162.546 527.068 163.608C527.766 164.671 528.114 166.226 528.114 168.273ZM521.847 168.273C521.847 169.928 522.016 171.109 522.354 171.818C522.697 172.526 523.242 172.88 523.989 172.88C524.736 172.88 525.281 172.52 525.624 171.801C525.973 171.082 526.147 169.906 526.147 168.273C526.147 166.646 525.973 165.47 525.624 164.745C525.281 164.015 524.736 163.65 523.989 163.65C523.242 163.65 522.697 164.007 522.354 164.72C522.016 165.434 521.847 166.619 521.847 168.273ZM532.273 172.556C532.007 173.586 531.52 174.911 530.812 176.532H529.376C529.758 175.038 530.043 173.649 530.231 172.365H532.148L532.273 172.556ZM541.918 164.994C541.918 165.764 541.694 166.406 541.246 166.92C540.798 167.429 540.167 167.772 539.354 167.949V168.016C540.327 168.138 541.058 168.442 541.545 168.929C542.032 169.41 542.275 170.052 542.275 170.855C542.275 172.022 541.863 172.924 541.039 173.561C540.214 174.192 539.041 174.507 537.519 174.507C536.174 174.507 535.04 174.288 534.116 173.851V172.116C534.63 172.371 535.175 172.567 535.751 172.706C536.326 172.844 536.88 172.913 537.411 172.913C538.352 172.913 539.055 172.739 539.52 172.39C539.984 172.042 540.217 171.502 540.217 170.772C540.217 170.124 539.959 169.648 539.445 169.344C538.93 169.04 538.122 168.887 537.021 168.887H535.967V167.302H537.038C538.974 167.302 539.943 166.632 539.943 165.293C539.943 164.773 539.774 164.372 539.437 164.09C539.099 163.807 538.601 163.666 537.942 163.666C537.483 163.666 537.04 163.733 536.614 163.865C536.188 163.993 535.685 164.245 535.104 164.621L534.149 163.26C535.261 162.441 536.553 162.031 538.025 162.031C539.248 162.031 540.203 162.294 540.889 162.82C541.575 163.345 541.918 164.07 541.918 164.994ZM545.43 165.841C545.43 166.666 545.51 167.28 545.67 167.684C545.831 168.088 546.094 168.29 546.459 168.29C547.189 168.29 547.555 167.474 547.555 165.841C547.555 164.209 547.189 163.392 546.459 163.392C546.094 163.392 545.831 163.594 545.67 163.998C545.51 164.402 545.43 165.017 545.43 165.841ZM549.165 165.824C549.165 167.097 548.935 168.055 548.476 168.697C548.022 169.333 547.35 169.651 546.459 169.651C545.618 169.651 544.965 169.322 544.5 168.663C544.041 167.999 543.811 167.053 543.811 165.824C543.811 163.295 544.694 162.031 546.459 162.031C547.328 162.031 547.995 162.36 548.459 163.019C548.93 163.672 549.165 164.607 549.165 165.824ZM553.332 170.689C553.332 171.513 553.412 172.13 553.573 172.54C553.739 172.949 554.004 173.154 554.37 173.154C555.095 173.154 555.457 172.332 555.457 170.689C555.457 169.067 555.095 168.257 554.37 168.257C554.004 168.257 553.739 168.456 553.573 168.854C553.412 169.253 553.332 169.864 553.332 170.689ZM557.067 170.689C557.067 171.962 556.838 172.916 556.378 173.552C555.919 174.189 555.25 174.507 554.37 174.507C553.528 174.507 552.875 174.181 552.411 173.528C551.946 172.869 551.713 171.923 551.713 170.689C551.713 168.16 552.599 166.895 554.37 166.895C555.222 166.895 555.883 167.222 556.354 167.875C556.829 168.528 557.067 169.466 557.067 170.689ZM554.602 162.205L547.87 174.341H546.26L552.992 162.205H554.602Z" fill="#211915"/>
<path d="M528.114 191.896C528.114 194.005 527.774 195.571 527.093 196.594C526.418 197.618 525.383 198.13 523.989 198.13C522.639 198.13 521.615 197.602 520.917 196.545C520.22 195.488 519.872 193.938 519.872 191.896C519.872 189.755 520.209 188.177 520.884 187.165C521.565 186.147 522.6 185.637 523.989 185.637C525.345 185.637 526.371 186.169 527.068 187.231C527.766 188.294 528.114 189.849 528.114 191.896ZM521.847 191.896C521.847 193.551 522.016 194.732 522.354 195.441C522.697 196.149 523.242 196.503 523.989 196.503C524.736 196.503 525.281 196.143 525.624 195.424C525.973 194.705 526.147 193.529 526.147 191.896C526.147 190.269 525.973 189.093 525.624 188.368C525.281 187.638 524.736 187.273 523.989 187.273C523.242 187.273 522.697 187.63 522.354 188.344C522.016 189.057 521.847 190.242 521.847 191.896ZM532.273 196.179C532.007 197.209 531.52 198.534 530.812 200.156H529.376C529.758 198.661 530.043 197.272 530.231 195.989H532.148L532.273 196.179ZM534.182 192.793C534.182 188.045 536.116 185.671 539.984 185.671C540.593 185.671 541.108 185.718 541.528 185.812V187.439C541.108 187.317 540.621 187.256 540.067 187.256C538.767 187.256 537.79 187.605 537.137 188.302C536.484 188.999 536.13 190.117 536.075 191.656H536.174C536.434 191.207 536.8 190.861 537.27 190.618C537.74 190.369 538.294 190.244 538.93 190.244C540.031 190.244 540.889 190.582 541.503 191.257C542.118 191.932 542.425 192.848 542.425 194.005C542.425 195.277 542.068 196.285 541.354 197.026C540.646 197.762 539.677 198.13 538.449 198.13C537.58 198.13 536.825 197.923 536.183 197.508C535.541 197.087 535.045 196.478 534.697 195.681C534.354 194.879 534.182 193.916 534.182 192.793ZM538.416 196.52C539.085 196.52 539.6 196.304 539.959 195.872C540.325 195.441 540.507 194.824 540.507 194.021C540.507 193.324 540.336 192.776 539.993 192.378C539.655 191.979 539.146 191.78 538.465 191.78C538.045 191.78 537.657 191.871 537.303 192.054C536.949 192.231 536.67 192.477 536.465 192.793C536.26 193.103 536.158 193.421 536.158 193.747C536.158 194.528 536.368 195.186 536.789 195.723C537.215 196.254 537.757 196.52 538.416 196.52ZM545.43 189.464C545.43 190.289 545.51 190.903 545.67 191.307C545.831 191.711 546.094 191.913 546.459 191.913C547.189 191.913 547.555 191.097 547.555 189.464C547.555 187.832 547.189 187.015 546.459 187.015C546.094 187.015 545.831 187.217 545.67 187.621C545.51 188.025 545.43 188.64 545.43 189.464ZM549.165 189.448C549.165 190.72 548.935 191.678 548.476 192.32C548.022 192.956 547.35 193.274 546.459 193.274C545.618 193.274 544.965 192.945 544.5 192.286C544.041 191.622 543.811 190.676 543.811 189.448C543.811 186.919 544.694 185.654 546.459 185.654C547.328 185.654 547.995 185.983 548.459 186.642C548.93 187.295 549.165 188.23 549.165 189.448ZM553.332 194.312C553.332 195.136 553.412 195.753 553.573 196.163C553.739 196.572 554.004 196.777 554.37 196.777C555.095 196.777 555.457 195.955 555.457 194.312C555.457 192.69 555.095 191.88 554.37 191.88C554.004 191.88 553.739 192.079 553.573 192.477C553.412 192.876 553.332 193.487 553.332 194.312ZM557.067 194.312C557.067 195.585 556.838 196.539 556.378 197.176C555.919 197.812 555.25 198.13 554.37 198.13C553.528 198.13 552.875 197.804 552.411 197.151C551.946 196.492 551.713 195.546 551.713 194.312C551.713 191.783 552.599 190.518 554.37 190.518C555.222 190.518 555.883 190.845 556.354 191.498C556.829 192.151 557.067 193.089 557.067 194.312ZM554.602 185.828L547.87 197.964H546.26L552.992 185.828H554.602Z" fill="#211915"/>
<path d="M525.616 249.658H523.665V241.822C523.665 240.887 523.687 240.146 523.731 239.598C523.604 239.731 523.446 239.877 523.258 240.038C523.076 240.198 522.456 240.707 521.399 241.565L520.419 240.328L523.989 237.523H525.616V249.658ZM533.717 242.08C534.94 242.08 535.909 242.403 536.623 243.051C537.336 243.698 537.693 244.581 537.693 245.699C537.693 246.994 537.287 248.006 536.473 248.737C535.665 249.462 534.514 249.824 533.02 249.824C531.664 249.824 530.599 249.606 529.824 249.169V247.401C530.272 247.655 530.787 247.852 531.368 247.99C531.949 248.128 532.489 248.197 532.987 248.197C533.867 248.197 534.536 248.001 534.996 247.608C535.455 247.215 535.685 246.64 535.685 245.881C535.685 244.432 534.76 243.707 532.912 243.707C532.652 243.707 532.331 243.734 531.949 243.79C531.567 243.839 531.233 243.898 530.945 243.964L530.073 243.449L530.538 237.523H536.847V239.257H532.256L531.982 242.262C532.176 242.229 532.411 242.19 532.688 242.146C532.97 242.102 533.313 242.08 533.717 242.08ZM540.881 241.158C540.881 241.983 540.961 242.597 541.122 243.001C541.282 243.405 541.545 243.607 541.91 243.607C542.641 243.607 543.006 242.791 543.006 241.158C543.006 239.526 542.641 238.71 541.91 238.71C541.545 238.71 541.282 238.912 541.122 239.316C540.961 239.72 540.881 240.334 540.881 241.158ZM544.616 241.142C544.616 242.415 544.387 243.372 543.927 244.014C543.473 244.65 542.801 244.968 541.91 244.968C541.069 244.968 540.416 244.639 539.951 243.981C539.492 243.317 539.262 242.37 539.262 241.142C539.262 238.613 540.145 237.348 541.91 237.348C542.779 237.348 543.446 237.678 543.911 238.336C544.381 238.989 544.616 239.924 544.616 241.142ZM548.783 246.006C548.783 246.831 548.863 247.448 549.024 247.857C549.19 248.267 549.456 248.471 549.821 248.471C550.546 248.471 550.908 247.65 550.908 246.006C550.908 244.385 550.546 243.574 549.821 243.574C549.456 243.574 549.19 243.773 549.024 244.172C548.863 244.57 548.783 245.181 548.783 246.006ZM552.519 246.006C552.519 247.279 552.289 248.233 551.83 248.87C551.37 249.506 550.701 249.824 549.821 249.824C548.98 249.824 548.327 249.498 547.862 248.845C547.397 248.186 547.165 247.24 547.165 246.006C547.165 243.477 548.05 242.213 549.821 242.213C550.673 242.213 551.334 242.539 551.805 243.192C552.281 243.845 552.519 244.783 552.519 246.006ZM550.053 237.523L543.321 249.658H541.711L548.443 237.523H550.053Z" fill="#211915"/>
<path d="M528.114 420.776H519.888V419.298L523.018 416.152C523.942 415.206 524.553 414.536 524.852 414.143C525.156 413.745 525.378 413.371 525.516 413.023C525.654 412.674 525.724 412.301 525.724 411.902C525.724 411.354 525.558 410.923 525.226 410.607C524.899 410.292 524.445 410.134 523.864 410.134C523.399 410.134 522.948 410.22 522.511 410.391C522.08 410.563 521.579 410.873 521.009 411.321L519.955 410.034C520.63 409.464 521.285 409.06 521.922 408.823C522.558 408.585 523.236 408.466 523.956 408.466C525.084 408.466 525.989 408.762 526.67 409.354C527.351 409.94 527.691 410.732 527.691 411.728C527.691 412.276 527.591 412.796 527.392 413.288C527.198 413.781 526.897 414.29 526.487 414.816C526.083 415.336 525.408 416.041 524.462 416.932L522.354 418.974V419.057H528.114V420.776ZM537.81 413.82C537.81 416.21 537.328 417.995 536.365 419.174C535.402 420.352 533.952 420.942 532.016 420.942C531.28 420.942 530.751 420.897 530.43 420.809V419.174C530.923 419.312 531.418 419.381 531.916 419.381C533.233 419.381 534.215 419.027 534.863 418.319C535.51 417.61 535.864 416.498 535.925 414.982H535.826C535.499 415.48 535.104 415.839 534.639 416.061C534.179 416.282 533.64 416.393 533.02 416.393C531.946 416.393 531.103 416.058 530.488 415.388C529.874 414.719 529.567 413.8 529.567 412.633C529.567 411.365 529.921 410.358 530.629 409.611C531.343 408.858 532.314 408.482 533.543 408.482C534.406 408.482 535.159 408.692 535.801 409.113C536.443 409.534 536.938 410.145 537.287 410.948C537.635 411.744 537.81 412.702 537.81 413.82ZM533.576 410.101C532.901 410.101 532.384 410.322 532.024 410.765C531.664 411.202 531.484 411.819 531.484 412.616C531.484 413.308 531.65 413.853 531.982 414.251C532.32 414.644 532.829 414.841 533.51 414.841C534.168 414.841 534.722 414.644 535.17 414.251C535.618 413.858 535.842 413.399 535.842 412.873C535.842 412.381 535.745 411.921 535.552 411.495C535.364 411.064 535.098 410.723 534.755 410.474C534.412 410.225 534.019 410.101 533.576 410.101ZM540.881 412.276C540.881 413.1 540.961 413.714 541.122 414.118C541.282 414.522 541.545 414.724 541.91 414.724C542.641 414.724 543.006 413.908 543.006 412.276C543.006 410.643 542.641 409.827 541.91 409.827C541.545 409.827 541.282 410.029 541.122 410.433C540.961 410.837 540.881 411.451 540.881 412.276ZM544.616 412.259C544.616 413.532 544.387 414.489 543.927 415.131C543.473 415.767 542.801 416.086 541.91 416.086C541.069 416.086 540.416 415.756 539.951 415.098C539.492 414.434 539.262 413.488 539.262 412.259C539.262 409.73 540.145 408.466 541.91 408.466C542.779 408.466 543.446 408.795 543.911 409.453C544.381 410.106 544.616 411.042 544.616 412.259ZM548.783 417.123C548.783 417.948 548.863 418.565 549.024 418.974C549.19 419.384 549.456 419.589 549.821 419.589C550.546 419.589 550.908 418.767 550.908 417.123C550.908 415.502 550.546 414.691 549.821 414.691C549.456 414.691 549.19 414.89 549.024 415.289C548.863 415.687 548.783 416.299 548.783 417.123ZM552.519 417.123C552.519 418.396 552.289 419.351 551.83 419.987C551.37 420.623 550.701 420.942 549.821 420.942C548.98 420.942 548.327 420.615 547.862 419.962C547.397 419.304 547.165 418.357 547.165 417.123C547.165 414.594 548.05 413.33 549.821 413.33C550.673 413.33 551.334 413.656 551.805 414.309C552.281 414.962 552.519 415.9 552.519 417.123ZM550.053 408.64L543.321 420.776H541.711L548.443 408.64H550.053Z" fill="#211915"/>
<path d="M528.114 577.521H519.888V576.044L523.018 572.898C523.942 571.952 524.553 571.282 524.852 570.889C525.156 570.491 525.378 570.117 525.516 569.769C525.654 569.42 525.724 569.046 525.724 568.648C525.724 568.1 525.558 567.668 525.226 567.353C524.899 567.038 524.445 566.88 523.864 566.88C523.399 566.88 522.948 566.966 522.511 567.137C522.08 567.309 521.579 567.619 521.009 568.067L519.955 566.78C520.63 566.21 521.285 565.806 521.922 565.568C522.558 565.33 523.236 565.211 523.956 565.211C525.084 565.211 525.989 565.507 526.67 566.1C527.351 566.686 527.691 567.478 527.691 568.474C527.691 569.021 527.591 569.542 527.392 570.034C527.198 570.527 526.897 571.036 526.487 571.562C526.083 572.082 525.408 572.787 524.462 573.678L522.354 575.72V575.803H528.114V577.521ZM537.37 568.175C537.37 568.944 537.146 569.586 536.697 570.101C536.249 570.61 535.618 570.953 534.805 571.13V571.196C535.779 571.318 536.509 571.622 536.996 572.109C537.483 572.591 537.727 573.233 537.727 574.035C537.727 575.203 537.314 576.105 536.49 576.741C535.665 577.372 534.492 577.688 532.97 577.688C531.625 577.688 530.491 577.469 529.567 577.032V575.297C530.082 575.551 530.627 575.748 531.202 575.886C531.778 576.025 532.331 576.094 532.862 576.094C533.803 576.094 534.506 575.919 534.971 575.571C535.436 575.222 535.668 574.683 535.668 573.952C535.668 573.305 535.411 572.829 534.896 572.524C534.381 572.22 533.573 572.068 532.472 572.068H531.418V570.482H532.489C534.426 570.482 535.394 569.813 535.394 568.474C535.394 567.953 535.225 567.552 534.888 567.27C534.55 566.988 534.052 566.847 533.394 566.847C532.934 566.847 532.492 566.913 532.065 567.046C531.639 567.173 531.136 567.425 530.555 567.801L529.6 566.44C530.712 565.621 532.005 565.211 533.477 565.211C534.7 565.211 535.654 565.474 536.34 566C537.027 566.526 537.37 567.251 537.37 568.175ZM540.881 569.021C540.881 569.846 540.961 570.46 541.122 570.864C541.282 571.268 541.545 571.47 541.91 571.47C542.641 571.47 543.006 570.654 543.006 569.021C543.006 567.389 542.641 566.573 541.91 566.573C541.545 566.573 541.282 566.775 541.122 567.179C540.961 567.583 540.881 568.197 540.881 569.021ZM544.616 569.005C544.616 570.278 544.387 571.235 543.927 571.877C543.473 572.513 542.801 572.832 541.91 572.832C541.069 572.832 540.416 572.502 539.951 571.844C539.492 571.18 539.262 570.233 539.262 569.005C539.262 566.476 540.145 565.211 541.91 565.211C542.779 565.211 543.446 565.541 543.911 566.199C544.381 566.852 544.616 567.787 544.616 569.005ZM548.783 573.869C548.783 574.694 548.863 575.311 549.024 575.72C549.19 576.13 549.456 576.334 549.821 576.334C550.546 576.334 550.908 575.513 550.908 573.869C550.908 572.248 550.546 571.437 549.821 571.437C549.456 571.437 549.19 571.636 549.024 572.035C548.863 572.433 548.783 573.045 548.783 573.869ZM552.519 573.869C552.519 575.142 552.289 576.097 551.83 576.733C551.37 577.369 550.701 577.688 549.821 577.688C548.98 577.688 548.327 577.361 547.862 576.708C547.397 576.049 547.165 575.103 547.165 573.869C547.165 571.34 548.05 570.076 549.821 570.076C550.673 570.076 551.334 570.402 551.805 571.055C552.281 571.708 552.519 572.646 552.519 573.869ZM550.053 565.386L543.321 577.521H541.711L548.443 565.386H550.053Z" fill="#211915"/>
<path d="M528.114 623.889H519.888V622.411L523.018 619.265C523.942 618.319 524.553 617.649 524.852 617.256C525.156 616.858 525.378 616.484 525.516 616.136C525.654 615.787 525.724 615.414 525.724 615.015C525.724 614.467 525.558 614.036 525.226 613.72C524.899 613.405 524.445 613.247 523.864 613.247C523.399 613.247 522.948 613.333 522.511 613.504C522.08 613.676 521.579 613.986 521.009 614.434L519.955 613.147C520.63 612.577 521.285 612.174 521.922 611.936C522.558 611.698 523.236 611.579 523.956 611.579C525.084 611.579 525.989 611.875 526.67 612.467C527.351 613.053 527.691 613.845 527.691 614.841C527.691 615.389 527.591 615.909 527.392 616.401C527.198 616.894 526.897 617.403 526.487 617.929C526.083 618.449 525.408 619.154 524.462 620.045L522.354 622.087V622.17H528.114V623.889ZM533.717 616.31C534.94 616.31 535.909 616.634 536.623 617.281C537.336 617.929 537.693 618.811 537.693 619.929C537.693 621.224 537.287 622.237 536.473 622.967C535.665 623.692 534.514 624.055 533.02 624.055C531.664 624.055 530.599 623.836 529.824 623.399V621.631C530.272 621.885 530.787 622.082 531.368 622.22C531.949 622.359 532.489 622.428 532.987 622.428C533.867 622.428 534.536 622.231 534.996 621.838C535.455 621.445 535.685 620.87 535.685 620.112C535.685 618.662 534.76 617.937 532.912 617.937C532.652 617.937 532.331 617.965 531.949 618.02C531.567 618.07 531.233 618.128 530.945 618.194L530.073 617.68L530.538 611.753H536.847V613.488H532.256L531.982 616.493C532.176 616.459 532.411 616.421 532.688 616.376C532.97 616.332 533.313 616.31 533.717 616.31ZM540.881 615.389C540.881 616.213 540.961 616.827 541.122 617.231C541.282 617.635 541.545 617.837 541.91 617.837C542.641 617.837 543.006 617.021 543.006 615.389C543.006 613.756 542.641 612.94 541.91 612.94C541.545 612.94 541.282 613.142 541.122 613.546C540.961 613.95 540.881 614.564 540.881 615.389ZM544.616 615.372C544.616 616.645 544.387 617.602 543.927 618.244C543.473 618.881 542.801 619.199 541.91 619.199C541.069 619.199 540.416 618.869 539.951 618.211C539.492 617.547 539.262 616.601 539.262 615.372C539.262 612.843 540.145 611.579 541.91 611.579C542.779 611.579 543.446 611.908 543.911 612.566C544.381 613.219 544.616 614.155 544.616 615.372ZM548.783 620.236C548.783 621.061 548.863 621.678 549.024 622.087C549.19 622.497 549.456 622.702 549.821 622.702C550.546 622.702 550.908 621.88 550.908 620.236C550.908 618.615 550.546 617.804 549.821 617.804C549.456 617.804 549.19 618.003 549.024 618.402C548.863 618.8 548.783 619.412 548.783 620.236ZM552.519 620.236C552.519 621.509 552.289 622.464 551.83 623.1C551.37 623.736 550.701 624.055 549.821 624.055C548.98 624.055 548.327 623.728 547.862 623.075C547.397 622.417 547.165 621.47 547.165 620.236C547.165 617.707 548.05 616.443 549.821 616.443C550.673 616.443 551.334 616.769 551.805 617.422C552.281 618.075 552.519 619.013 552.519 620.236ZM550.053 611.753L543.321 623.889H541.711L548.443 611.753H550.053Z" fill="#211915"/>
<path d="M223.435 212.253V87.2814H510.58" stroke="#020202" stroke-width="0.5" stroke-miterlimit="10"/>
<path d="M510.469 89.3977C511.638 89.3977 512.585 88.4502 512.585 87.2814C512.585 86.1127 511.638 85.1652 510.469 85.1652C509.3 85.1652 508.353 86.1127 508.353 87.2814C508.353 88.4502 509.3 89.3977 510.469 89.3977Z" fill="#020202"/>
<path d="M294.83 194.655V121.587H510.579" stroke="#020202" stroke-width="0.5" stroke-miterlimit="10"/>
<path d="M510.467 123.704C511.636 123.704 512.584 122.756 512.584 121.587C512.584 120.419 511.636 119.471 510.467 119.471C509.299 119.471 508.351 120.419 508.351 121.587C508.351 122.756 509.299 123.704 510.467 123.704Z" fill="#020202"/>
<path d="M308.643 195.323V151.995H510.58" stroke="#020202" stroke-width="0.5" stroke-miterlimit="10"/>
<path d="M510.468 154.111C511.637 154.111 512.585 153.164 512.585 151.995C512.585 150.826 511.637 149.879 510.468 149.879C509.3 149.879 508.352 150.826 508.352 151.995C508.352 153.164 509.3 154.111 510.468 154.111Z" fill="#020202"/>
<path d="M327.688 196.325V175.274H510.579" stroke="#020202" stroke-width="0.5" stroke-miterlimit="10"/>
<path d="M510.468 177.39C511.637 177.39 512.584 176.443 512.584 175.274C512.584 174.105 511.637 173.158 510.468 173.158C509.299 173.158 508.352 174.105 508.352 175.274C508.352 176.443 509.299 177.39 510.468 177.39Z" fill="#020202"/>
<path d="M337.602 198.219H510.58" stroke="#020202" stroke-width="0.5" stroke-miterlimit="10"/>
<path d="M510.468 200.335C511.637 200.335 512.584 199.388 512.584 198.219C512.584 197.05 511.637 196.103 510.468 196.103C509.299 196.103 508.352 197.05 508.352 198.219C508.352 199.388 509.299 200.335 510.468 200.335Z" fill="#020202"/>
<path d="M129.092 393.808V624.705H510.579" stroke="#020202" stroke-width="0.5" stroke-miterlimit="10"/>
<path d="M510.468 626.821C511.637 626.821 512.585 625.874 512.585 624.705C512.585 623.536 511.637 622.589 510.468 622.589C509.3 622.589 508.352 623.536 508.352 624.705C508.352 625.874 509.3 626.821 510.468 626.821Z" fill="#020202"/>
<path d="M225.105 522.455V576.142H510.58" stroke="#020202" stroke-width="0.5" stroke-miterlimit="10"/>
<path d="M510.469 578.258C511.638 578.258 512.585 577.311 512.585 576.142C512.585 574.973 511.638 574.026 510.469 574.026C509.3 574.026 508.353 574.973 508.353 576.142C508.353 577.311 509.3 578.258 510.469 578.258Z" fill="#020202"/>
<path d="M426.819 250.012H510.579" stroke="#020202" stroke-width="0.5" stroke-miterlimit="10"/>
<path d="M510.468 252.128C511.637 252.128 512.584 251.181 512.584 250.012C512.584 248.843 511.637 247.896 510.468 247.896C509.299 247.896 508.352 248.843 508.352 250.012C508.352 251.181 509.299 252.128 510.468 252.128Z" fill="#020202"/>
<path d="M463.464 421.431H510.579" stroke="#020202" stroke-width="0.5" stroke-miterlimit="10"/>
<path d="M510.468 423.436C511.582 423.436 512.584 422.544 512.584 421.319C512.584 420.205 511.693 419.203 510.468 419.203C509.243 419.203 508.352 420.094 508.352 421.319C508.352 422.544 509.354 423.436 510.468 423.436Z" fill="#020202"/>
<path d="M51.9746 678.996H54.8867V683.162C54.4336 683.306 53.9727 683.416 53.5039 683.49C53.0352 683.564 52.4922 683.601 51.875 683.601C50.5781 683.601 49.5684 683.216 48.8457 682.447C48.123 681.673 47.7617 680.591 47.7617 679.201C47.7617 678.31 47.9395 677.531 48.2949 676.863C48.6543 676.191 49.1699 675.679 49.8418 675.328C50.5137 674.972 51.3008 674.795 52.2031 674.795C53.1172 674.795 53.9688 674.963 54.7578 675.298L54.3711 676.177C53.5977 675.849 52.8535 675.685 52.1387 675.685C51.0957 675.685 50.2812 675.996 49.6953 676.617C49.1094 677.238 48.8164 678.099 48.8164 679.201C48.8164 680.357 49.0977 681.234 49.6602 681.832C50.2266 682.429 51.0566 682.728 52.1504 682.728C52.7441 682.728 53.3242 682.66 53.8906 682.523V679.886H51.9746V678.996ZM62.334 683.484L61.2676 680.759H57.834L56.7793 683.484H55.7715L59.1582 674.882H59.9961L63.3652 683.484H62.334ZM60.957 679.863L59.9609 677.209C59.832 676.873 59.6992 676.461 59.5625 675.972C59.4766 676.347 59.3535 676.759 59.1934 677.209L58.1855 679.863H60.957ZM69.377 681.205C69.377 681.959 69.1035 682.547 68.5566 682.968C68.0098 683.39 67.2676 683.601 66.3301 683.601C65.3145 683.601 64.5332 683.47 63.9863 683.209V682.248C64.3379 682.396 64.7207 682.513 65.1348 682.599C65.5488 682.685 65.959 682.728 66.3652 682.728C67.0293 682.728 67.5293 682.603 67.8652 682.353C68.2012 682.099 68.3691 681.748 68.3691 681.298C68.3691 681.002 68.3086 680.759 68.1875 680.572C68.0703 680.38 67.8711 680.205 67.5898 680.045C67.3125 679.884 66.8887 679.703 66.3184 679.5C65.5215 679.214 64.9512 678.877 64.6074 678.486C64.2676 678.095 64.0977 677.586 64.0977 676.957C64.0977 676.297 64.3457 675.771 64.8418 675.38C65.3379 674.99 65.9941 674.795 66.8105 674.795C67.6621 674.795 68.4453 674.951 69.1602 675.263L68.8496 676.13C68.1426 675.834 67.4551 675.685 66.7871 675.685C66.2598 675.685 65.8477 675.798 65.5508 676.025C65.2539 676.252 65.1055 676.566 65.1055 676.968C65.1055 677.265 65.1602 677.509 65.2695 677.701C65.3789 677.888 65.5625 678.062 65.8203 678.222C66.082 678.379 66.4805 678.552 67.0156 678.744C67.9141 679.064 68.5312 679.408 68.8672 679.775C69.207 680.142 69.377 680.619 69.377 681.205ZM80.9375 683.484H79.8008L75.1191 676.295H75.0723C75.1348 677.138 75.166 677.912 75.166 678.615V683.484H74.2461V674.918H75.3711L80.041 682.078H80.0879C80.0801 681.972 80.0625 681.634 80.0352 681.064C80.0078 680.49 79.998 680.08 80.0059 679.834V674.918H80.9375V683.484ZM88.6777 683.484L87.6113 680.759H84.1777L83.123 683.484H82.1152L85.502 674.882H86.3398L89.709 683.484H88.6777ZM87.3008 679.863L86.3047 677.209C86.1758 676.873 86.043 676.461 85.9062 675.972C85.8203 676.347 85.6973 676.759 85.5371 677.209L84.5293 679.863H87.3008ZM93.5234 683.484H92.5273V675.802H89.8145V674.918H96.2363V675.802H93.5234V683.484ZM104 674.918V680.461C104 681.437 103.705 682.205 103.115 682.763C102.525 683.322 101.715 683.601 100.684 683.601C99.6523 683.601 98.8535 683.32 98.2871 682.757C97.7246 682.195 97.4434 681.422 97.4434 680.437V674.918H98.4395V680.507C98.4395 681.222 98.6348 681.771 99.0254 682.154C99.416 682.537 99.9902 682.728 100.748 682.728C101.471 682.728 102.027 682.537 102.418 682.154C102.809 681.767 103.004 681.214 103.004 680.496V674.918H104ZM107.27 679.922V683.484H106.273V674.918H108.623C109.674 674.918 110.449 675.119 110.949 675.521C111.453 675.923 111.705 676.529 111.705 677.338C111.705 678.47 111.131 679.236 109.982 679.634L112.309 683.484H111.131L109.057 679.922H107.27ZM107.27 679.066H108.635C109.338 679.066 109.854 678.927 110.182 678.65C110.51 678.369 110.674 677.949 110.674 677.39C110.674 676.824 110.506 676.416 110.17 676.166C109.838 675.916 109.303 675.791 108.564 675.791H107.27V679.066ZM119.076 683.484L118.01 680.759H114.576L113.521 683.484H112.514L115.9 674.882H116.738L120.107 683.484H119.076ZM117.699 679.863L116.703 677.209C116.574 676.873 116.441 676.461 116.305 675.972C116.219 676.347 116.096 676.759 115.936 677.209L114.928 679.863H117.699ZM121.285 683.484V674.918H122.281V682.582H126.061V683.484H121.285Z" fill="#211915"/>
<path d="M273.773 683.484H268.998V674.918H273.773V675.802H269.994V678.562H273.545V679.441H269.994V682.593H273.773V683.484ZM283.113 679.189C283.113 680.56 282.766 681.638 282.07 682.423C281.379 683.209 280.416 683.601 279.182 683.601C277.92 683.601 276.945 683.216 276.258 682.447C275.574 681.673 275.232 680.584 275.232 679.177C275.232 677.783 275.576 676.703 276.264 675.937C276.951 675.168 277.928 674.783 279.193 674.783C280.424 674.783 281.385 675.173 282.076 675.955C282.768 676.736 283.113 677.814 283.113 679.189ZM276.287 679.189C276.287 680.349 276.533 681.23 277.025 681.832C277.521 682.429 278.24 682.728 279.182 682.728C280.131 682.728 280.848 682.429 281.332 681.832C281.816 681.234 282.059 680.353 282.059 679.189C282.059 678.037 281.816 677.164 281.332 676.57C280.852 675.972 280.139 675.673 279.193 675.673C278.244 675.673 277.521 675.974 277.025 676.576C276.533 677.173 276.287 678.045 276.287 679.189ZM278.361 674.086C278.549 673.843 278.75 673.55 278.965 673.207C279.184 672.863 279.355 672.564 279.48 672.31H280.664V672.433C280.492 672.687 280.236 673 279.896 673.371C279.557 673.742 279.262 674.029 279.012 674.232H278.361V674.086ZM285.029 683.484V674.918H286.025V682.582H289.805V683.484H285.029ZM291.264 683.484V674.918H292.26V683.484H291.264ZM298.283 675.685C297.342 675.685 296.598 676 296.051 676.629C295.508 677.254 295.236 678.111 295.236 679.201C295.236 680.322 295.498 681.189 296.021 681.802C296.549 682.412 297.299 682.716 298.271 682.716C298.869 682.716 299.551 682.609 300.316 682.394V683.267C299.723 683.49 298.99 683.601 298.119 683.601C296.857 683.601 295.883 683.218 295.195 682.453C294.512 681.687 294.17 680.599 294.17 679.189C294.17 678.306 294.334 677.533 294.662 676.869C294.994 676.205 295.471 675.693 296.092 675.334C296.717 674.974 297.451 674.795 298.295 674.795C299.193 674.795 299.979 674.959 300.65 675.287L300.229 676.142C299.58 675.838 298.932 675.685 298.283 675.685ZM307.57 683.484L306.504 680.759H303.07L302.016 683.484H301.008L304.395 674.882H305.232L308.602 683.484H307.57ZM306.193 679.863L305.197 677.209C305.068 676.873 304.936 676.461 304.799 675.972C304.713 676.347 304.59 676.759 304.43 677.209L303.422 679.863H306.193Z" fill="#211915"/>
<path d="M51.875 723.025C50.9336 723.025 50.1895 723.34 49.6426 723.969C49.0996 724.594 48.8281 725.451 48.8281 726.541C48.8281 727.662 49.0898 728.529 49.6133 729.143C50.1406 729.752 50.8906 730.057 51.8633 730.057C52.4609 730.057 53.1426 729.949 53.9082 729.734V730.607C53.3145 730.83 52.582 730.941 51.7109 730.941C50.4492 730.941 49.4746 730.559 48.7871 729.793C48.1035 729.027 47.7617 727.939 47.7617 726.529C47.7617 725.646 47.9258 724.873 48.2539 724.209C48.5859 723.545 49.0625 723.033 49.6836 722.674C50.3086 722.314 51.043 722.135 51.8867 722.135C52.7852 722.135 53.5703 722.299 54.2422 722.627L53.8203 723.482C53.1719 723.178 52.5234 723.025 51.875 723.025ZM61.1621 730.824L60.0957 728.1H56.6621L55.6074 730.824H54.5996L57.9863 722.223H58.8242L62.1934 730.824H61.1621ZM59.7852 727.203L58.7891 724.549C58.6602 724.213 58.5273 723.801 58.3906 723.312C58.3047 723.688 58.1816 724.1 58.0215 724.549L57.0137 727.203H59.7852ZM64.3672 727.262V730.824H63.3711V722.258H65.7207C66.7715 722.258 67.5469 722.459 68.0469 722.861C68.5508 723.264 68.8027 723.869 68.8027 724.678C68.8027 725.811 68.2285 726.576 67.0801 726.975L69.4062 730.824H68.2285L66.1543 727.262H64.3672ZM64.3672 726.406H65.7324C66.4355 726.406 66.9512 726.268 67.2793 725.99C67.6074 725.709 67.7715 725.289 67.7715 724.73C67.7715 724.164 67.6035 723.756 67.2676 723.506C66.9355 723.256 66.4004 723.131 65.6621 723.131H64.3672V726.406ZM70.7891 722.258H73.209C74.3457 722.258 75.168 722.428 75.6758 722.768C76.1836 723.107 76.4375 723.645 76.4375 724.379C76.4375 724.887 76.2949 725.307 76.0098 725.639C75.7285 725.967 75.3164 726.18 74.7734 726.277V726.336C76.0742 726.559 76.7246 727.242 76.7246 728.387C76.7246 729.152 76.4648 729.75 75.9453 730.18C75.4297 730.609 74.707 730.824 73.7773 730.824H70.7891V722.258ZM71.7852 725.926H73.4258C74.1289 725.926 74.6348 725.816 74.9434 725.598C75.252 725.375 75.4062 725.002 75.4062 724.479C75.4062 723.998 75.2344 723.652 74.8906 723.441C74.5469 723.227 74 723.119 73.25 723.119H71.7852V725.926ZM71.7852 726.77V729.975H73.5723C74.2637 729.975 74.7832 729.842 75.1309 729.576C75.4824 729.307 75.6582 728.887 75.6582 728.316C75.6582 727.785 75.4785 727.395 75.1191 727.145C74.7637 726.895 74.2207 726.77 73.4902 726.77H71.7852ZM86.0059 726.529C86.0059 727.9 85.6582 728.979 84.9629 729.764C84.2715 730.549 83.3086 730.941 82.0742 730.941C80.8125 730.941 79.8379 730.557 79.1504 729.787C78.4668 729.014 78.125 727.924 78.125 726.518C78.125 725.123 78.4688 724.043 79.1562 723.277C79.8438 722.508 80.8203 722.123 82.0859 722.123C83.3164 722.123 84.2773 722.514 84.9688 723.295C85.6602 724.076 86.0059 725.154 86.0059 726.529ZM79.1797 726.529C79.1797 727.689 79.4258 728.57 79.918 729.172C80.4141 729.77 81.1328 730.068 82.0742 730.068C83.0234 730.068 83.7402 729.77 84.2246 729.172C84.709 728.574 84.9512 727.693 84.9512 726.529C84.9512 725.377 84.709 724.504 84.2246 723.91C83.7441 723.312 83.0312 723.014 82.0859 723.014C81.1367 723.014 80.4141 723.314 79.918 723.916C79.4258 724.514 79.1797 725.385 79.1797 726.529ZM81.2539 721.426C81.4414 721.184 81.6426 720.891 81.8574 720.547C82.0762 720.203 82.248 719.904 82.373 719.65H83.5566V719.773C83.3848 720.027 83.1289 720.34 82.7891 720.711C82.4492 721.082 82.1543 721.369 81.9043 721.572H81.2539V721.426ZM94.6133 730.824H93.4766L88.7949 723.635H88.748C88.8105 724.479 88.8418 725.252 88.8418 725.955V730.824H87.9219V722.258H89.0469L93.7168 729.418H93.7637C93.7559 729.312 93.7383 728.975 93.7109 728.404C93.6836 727.83 93.6738 727.42 93.6816 727.174V722.258H94.6133V730.824Z" fill="#211915"/>
<path d="M273.832 776.48C273.832 777.234 273.559 777.821 273.012 778.243C272.465 778.665 271.723 778.876 270.785 778.876C269.77 778.876 268.988 778.745 268.441 778.484V777.523C268.793 777.671 269.176 777.788 269.59 777.874C270.004 777.96 270.414 778.003 270.82 778.003C271.484 778.003 271.984 777.878 272.32 777.628C272.656 777.374 272.824 777.023 272.824 776.573C272.824 776.276 272.764 776.034 272.643 775.847C272.525 775.655 272.326 775.48 272.045 775.319C271.768 775.159 271.344 774.978 270.773 774.775C269.977 774.489 269.406 774.151 269.062 773.761C268.723 773.37 268.553 772.86 268.553 772.232C268.553 771.571 268.801 771.046 269.297 770.655C269.793 770.265 270.449 770.069 271.266 770.069C272.117 770.069 272.9 770.226 273.615 770.538L273.305 771.405C272.598 771.109 271.91 770.96 271.242 770.96C270.715 770.96 270.303 771.073 270.006 771.3C269.709 771.526 269.561 771.841 269.561 772.243C269.561 772.54 269.615 772.784 269.725 772.976C269.834 773.163 270.018 773.337 270.275 773.497C270.537 773.653 270.936 773.827 271.471 774.019C272.369 774.339 272.986 774.683 273.322 775.05C273.662 775.417 273.832 775.894 273.832 776.48ZM283.02 774.464C283.02 775.835 282.672 776.913 281.977 777.698C281.285 778.484 280.322 778.876 279.088 778.876C277.826 778.876 276.852 778.491 276.164 777.722C275.48 776.948 275.139 775.859 275.139 774.452C275.139 773.058 275.482 771.978 276.17 771.212C276.857 770.443 277.834 770.058 279.1 770.058C280.33 770.058 281.291 770.448 281.982 771.23C282.674 772.011 283.02 773.089 283.02 774.464ZM276.193 774.464C276.193 775.624 276.439 776.505 276.932 777.107C277.428 777.704 278.146 778.003 279.088 778.003C280.037 778.003 280.754 777.704 281.238 777.107C281.723 776.509 281.965 775.628 281.965 774.464C281.965 773.312 281.723 772.439 281.238 771.845C280.758 771.247 280.045 770.948 279.1 770.948C278.15 770.948 277.428 771.249 276.932 771.851C276.439 772.448 276.193 773.319 276.193 774.464ZM284.936 778.759V770.193H285.932V777.857H289.711V778.759H284.936ZM296.555 778.759L295.488 776.034H292.055L291 778.759H289.992L293.379 770.157H294.217L297.586 778.759H296.555ZM295.178 775.138L294.182 772.484C294.053 772.148 293.92 771.735 293.783 771.247C293.697 771.622 293.574 772.034 293.414 772.484L292.406 775.138H295.178ZM299.76 775.196V778.759H298.764V770.193H301.113C302.164 770.193 302.939 770.394 303.439 770.796C303.943 771.198 304.195 771.804 304.195 772.612C304.195 773.745 303.621 774.511 302.473 774.909L304.799 778.759H303.621L301.547 775.196H299.76ZM299.76 774.341H301.125C301.828 774.341 302.344 774.202 302.672 773.925C303 773.644 303.164 773.224 303.164 772.665C303.164 772.099 302.996 771.691 302.66 771.441C302.328 771.191 301.793 771.066 301.055 771.066H299.76V774.341Z" fill="#211915"/>
<path d="M470.124 674.918H472.544C473.681 674.918 474.503 675.088 475.011 675.428C475.519 675.768 475.772 676.305 475.772 677.039C475.772 677.547 475.63 677.967 475.345 678.299C475.063 678.627 474.651 678.84 474.108 678.938V678.996C475.409 679.219 476.06 679.903 476.06 681.047C476.06 681.813 475.8 682.41 475.28 682.84C474.765 683.27 474.042 683.485 473.112 683.485H470.124V674.918ZM471.12 678.586H472.761C473.464 678.586 473.97 678.477 474.278 678.258C474.587 678.035 474.741 677.662 474.741 677.139C474.741 676.658 474.569 676.313 474.226 676.102C473.882 675.887 473.335 675.78 472.585 675.78H471.12V678.586ZM471.12 679.43V682.635H472.907C473.599 682.635 474.118 682.502 474.466 682.237C474.817 681.967 474.993 681.547 474.993 680.977C474.993 680.446 474.813 680.055 474.454 679.805C474.099 679.555 473.556 679.43 472.825 679.43H471.12ZM477.905 683.485V674.918H478.901V683.485H477.905ZM488.692 679.19C488.692 680.561 488.345 681.639 487.649 682.424C486.958 683.209 485.995 683.602 484.761 683.602C483.499 683.602 482.524 683.217 481.837 682.448C481.153 681.674 480.812 680.584 480.812 679.178C480.812 677.783 481.155 676.703 481.843 675.938C482.53 675.168 483.507 674.783 484.772 674.783C486.003 674.783 486.964 675.174 487.655 675.955C488.347 676.737 488.692 677.815 488.692 679.19ZM481.866 679.19C481.866 680.35 482.112 681.231 482.604 681.832C483.101 682.43 483.819 682.729 484.761 682.729C485.71 682.729 486.427 682.43 486.911 681.832C487.396 681.235 487.638 680.354 487.638 679.19C487.638 678.037 487.396 677.164 486.911 676.571C486.431 675.973 485.718 675.674 484.772 675.674C483.823 675.674 483.101 675.975 482.604 676.576C482.112 677.174 481.866 678.045 481.866 679.19ZM494.399 683.485L491.493 675.891H491.446C491.501 676.492 491.528 677.207 491.528 678.035V683.485H490.608V674.918H492.108L494.821 681.985H494.868L497.604 674.918H499.093V683.485H498.097V677.965C498.097 677.332 498.124 676.645 498.179 675.903H498.132L495.202 683.485H494.399ZM506.833 683.485L505.767 680.76H502.333L501.278 683.485H500.271L503.657 674.883H504.495L507.864 683.485H506.833ZM505.456 679.864L504.46 677.209C504.331 676.873 504.198 676.461 504.062 675.973C503.976 676.348 503.853 676.76 503.692 677.209L502.685 679.864H505.456ZM513.876 681.205C513.876 681.959 513.603 682.547 513.056 682.969C512.509 683.391 511.767 683.602 510.829 683.602C509.813 683.602 509.032 683.471 508.485 683.209V682.248C508.837 682.397 509.22 682.514 509.634 682.6C510.048 682.686 510.458 682.729 510.864 682.729C511.528 682.729 512.028 682.604 512.364 682.354C512.7 682.1 512.868 681.748 512.868 681.299C512.868 681.002 512.808 680.76 512.687 680.573C512.569 680.381 512.37 680.205 512.089 680.045C511.812 679.885 511.388 679.703 510.817 679.5C510.021 679.215 509.45 678.877 509.106 678.487C508.767 678.096 508.597 677.586 508.597 676.957C508.597 676.297 508.845 675.772 509.341 675.381C509.837 674.99 510.493 674.795 511.31 674.795C512.161 674.795 512.944 674.951 513.659 675.264L513.349 676.131C512.642 675.834 511.954 675.686 511.286 675.686C510.759 675.686 510.347 675.799 510.05 676.026C509.753 676.252 509.604 676.567 509.604 676.969C509.604 677.266 509.659 677.51 509.769 677.701C509.878 677.889 510.062 678.063 510.319 678.223C510.581 678.379 510.979 678.553 511.515 678.744C512.413 679.065 513.03 679.408 513.366 679.776C513.706 680.143 513.876 680.619 513.876 681.205ZM521.013 683.485L519.946 680.76H516.513L515.458 683.485H514.45L517.837 674.883H518.675L522.044 683.485H521.013ZM519.636 679.864L518.64 677.209C518.511 676.873 518.378 676.461 518.241 675.973C518.155 676.348 518.032 676.76 517.872 677.209L516.864 679.864H519.636Z" fill="#211915"/>
<path d="M272.766 726.336H275.678V730.502C275.225 730.646 274.764 730.756 274.295 730.83C273.826 730.904 273.283 730.941 272.666 730.941C271.369 730.941 270.359 730.557 269.637 729.787C268.914 729.014 268.553 727.932 268.553 726.541C268.553 725.65 268.73 724.871 269.086 724.203C269.445 723.531 269.961 723.02 270.633 722.668C271.305 722.312 272.092 722.135 272.994 722.135C273.908 722.135 274.76 722.303 275.549 722.639L275.162 723.518C274.389 723.189 273.645 723.025 272.93 723.025C271.887 723.025 271.072 723.336 270.486 723.957C269.9 724.578 269.607 725.439 269.607 726.541C269.607 727.697 269.889 728.574 270.451 729.172C271.018 729.77 271.848 730.068 272.941 730.068C273.535 730.068 274.115 730 274.682 729.863V727.227H272.766V726.336ZM282.516 730.824H277.74V722.258H282.516V723.143H278.736V725.902H282.287V726.781H278.736V729.934H282.516V730.824ZM291.855 726.529C291.855 727.9 291.508 728.979 290.812 729.764C290.121 730.549 289.158 730.941 287.924 730.941C286.662 730.941 285.688 730.557 285 729.787C284.316 729.014 283.975 727.924 283.975 726.518C283.975 725.123 284.318 724.043 285.006 723.277C285.693 722.508 286.67 722.123 287.936 722.123C289.166 722.123 290.127 722.514 290.818 723.295C291.51 724.076 291.855 725.154 291.855 726.529ZM285.029 726.529C285.029 727.689 285.275 728.57 285.768 729.172C286.264 729.77 286.982 730.068 287.924 730.068C288.873 730.068 289.59 729.77 290.074 729.172C290.559 728.574 290.801 727.693 290.801 726.529C290.801 725.377 290.559 724.504 290.074 723.91C289.594 723.312 288.881 723.014 287.936 723.014C286.986 723.014 286.264 723.314 285.768 723.916C285.275 724.514 285.029 725.385 285.029 726.529ZM296.408 730.824H295.412V723.143H292.699V722.258H299.121V723.143H296.408V730.824ZM305.191 730.824H300.416V722.258H305.191V723.143H301.412V725.902H304.963V726.781H301.412V729.934H305.191V730.824ZM308.092 727.262V730.824H307.096V722.258H309.445C310.496 722.258 311.271 722.459 311.771 722.861C312.275 723.264 312.527 723.869 312.527 724.678C312.527 725.811 311.953 726.576 310.805 726.975L313.131 730.824H311.953L309.879 727.262H308.092ZM308.092 726.406H309.457C310.16 726.406 310.676 726.268 311.004 725.99C311.332 725.709 311.496 725.289 311.496 724.73C311.496 724.164 311.328 723.756 310.992 723.506C310.66 723.256 310.125 723.131 309.387 723.131H308.092V726.406ZM318.305 730.824L315.398 723.23H315.352C315.406 723.832 315.434 724.547 315.434 725.375V730.824H314.514V722.258H316.014L318.727 729.324H318.773L321.51 722.258H322.998V730.824H322.002V725.305C322.002 724.672 322.029 723.984 322.084 723.242H322.037L319.107 730.824H318.305ZM325.354 730.824V722.258H326.35V730.824H325.354ZM334.09 730.824L333.023 728.1H329.59L328.535 730.824H327.527L330.914 722.223H331.752L335.121 730.824H334.09ZM332.713 727.203L331.717 724.549C331.588 724.213 331.455 723.801 331.318 723.312C331.232 723.688 331.109 724.1 330.949 724.549L329.941 727.203H332.713Z" fill="#211915"/>
<path d="M53.6387 769.966C53.6387 770.833 53.3418 771.501 52.748 771.969C52.1582 772.434 51.3125 772.667 50.2109 772.667H49.2031V776.036H48.207V767.469H50.4277C52.5684 767.469 53.6387 768.302 53.6387 769.966ZM49.2031 771.811H50.0996C50.9824 771.811 51.6211 771.669 52.0156 771.384C52.4102 771.098 52.6074 770.641 52.6074 770.012C52.6074 769.446 52.4219 769.024 52.0508 768.747C51.6797 768.469 51.1016 768.331 50.3164 768.331H49.2031V771.811ZM60.2129 776.036H55.4375V767.469H60.2129V768.354H56.4336V771.114H59.9844V771.993H56.4336V775.145H60.2129V776.036ZM64.7539 776.036H63.7578V768.354H61.0449V767.469H67.4668V768.354H64.7539V776.036ZM69.7578 772.473V776.036H68.7617V767.469H71.1113C72.1621 767.469 72.9375 767.671 73.4375 768.073C73.9414 768.475 74.1934 769.081 74.1934 769.889C74.1934 771.022 73.6191 771.788 72.4707 772.186L74.7969 776.036H73.6191L71.5449 772.473H69.7578ZM69.7578 771.618H71.123C71.8262 771.618 72.3418 771.479 72.6699 771.202C72.998 770.921 73.1621 770.501 73.1621 769.942C73.1621 769.376 72.9941 768.968 72.6582 768.718C72.3262 768.468 71.791 768.343 71.0527 768.343H69.7578V771.618ZM83.6152 771.741C83.6152 773.112 83.2676 774.19 82.5723 774.975C81.8809 775.76 80.918 776.153 79.6836 776.153C78.4219 776.153 77.4473 775.768 76.7598 774.999C76.0762 774.225 75.7344 773.135 75.7344 771.729C75.7344 770.335 76.0781 769.255 76.7656 768.489C77.4531 767.719 78.4297 767.335 79.6953 767.335C80.9258 767.335 81.8867 767.725 82.5781 768.507C83.2695 769.288 83.6152 770.366 83.6152 771.741ZM76.7891 771.741C76.7891 772.901 77.0352 773.782 77.5273 774.384C78.0234 774.981 78.7422 775.28 79.6836 775.28C80.6328 775.28 81.3496 774.981 81.834 774.384C82.3184 773.786 82.5605 772.905 82.5605 771.741C82.5605 770.589 82.3184 769.716 81.834 769.122C81.3535 768.524 80.6406 768.225 79.6953 768.225C78.7461 768.225 78.0234 768.526 77.5273 769.128C77.0352 769.725 76.7891 770.596 76.7891 771.741ZM78.8633 766.637C79.0508 766.395 79.252 766.102 79.4668 765.759C79.6855 765.415 79.8574 765.116 79.9824 764.862H81.166V764.985C80.9941 765.239 80.7383 765.552 80.3984 765.923C80.0586 766.294 79.7637 766.581 79.5137 766.784H78.8633V766.637ZM85.5312 776.036V767.469H86.5273V775.134H90.3066V776.036H85.5312ZM96.541 776.036H91.7656V767.469H96.541V768.354H92.7617V771.114H96.3125V771.993H92.7617V775.145H96.541V776.036ZM105.881 771.741C105.881 773.112 105.533 774.19 104.838 774.975C104.146 775.76 103.184 776.153 101.949 776.153C100.688 776.153 99.7129 775.768 99.0254 774.999C98.3418 774.225 98 773.135 98 771.729C98 770.335 98.3438 769.255 99.0312 768.489C99.7188 767.719 100.695 767.335 101.961 767.335C103.191 767.335 104.152 767.725 104.844 768.507C105.535 769.288 105.881 770.366 105.881 771.741ZM99.0547 771.741C99.0547 772.901 99.3008 773.782 99.793 774.384C100.289 774.981 101.008 775.28 101.949 775.28C102.898 775.28 103.615 774.981 104.1 774.384C104.584 773.786 104.826 772.905 104.826 771.741C104.826 770.589 104.584 769.716 104.1 769.122C103.619 768.524 102.906 768.225 101.961 768.225C101.012 768.225 100.289 768.526 99.793 769.128C99.3008 769.725 99.0547 770.596 99.0547 771.741ZM114.582 768.237C113.641 768.237 112.896 768.552 112.35 769.18C111.807 769.805 111.535 770.663 111.535 771.753C111.535 772.874 111.797 773.741 112.32 774.354C112.848 774.964 113.598 775.268 114.57 775.268C115.168 775.268 115.85 775.161 116.615 774.946V775.819C116.021 776.042 115.289 776.153 114.418 776.153C113.156 776.153 112.182 775.77 111.494 775.005C110.811 774.239 110.469 773.151 110.469 771.741C110.469 770.858 110.633 770.085 110.961 769.421C111.293 768.757 111.77 768.245 112.391 767.885C113.016 767.526 113.75 767.346 114.594 767.346C115.492 767.346 116.277 767.51 116.949 767.839L116.527 768.694C115.879 768.389 115.23 768.237 114.582 768.237ZM119.48 772.473V776.036H118.484V767.469H120.834C121.885 767.469 122.66 767.671 123.16 768.073C123.664 768.475 123.916 769.081 123.916 769.889C123.916 771.022 123.342 771.788 122.193 772.186L124.52 776.036H123.342L121.268 772.473H119.48ZM119.48 771.618H120.846C121.549 771.618 122.064 771.479 122.393 771.202C122.721 770.921 122.885 770.501 122.885 769.942C122.885 769.376 122.717 768.968 122.381 768.718C122.049 768.468 121.514 768.343 120.775 768.343H119.48V771.618ZM132.371 767.469V773.012C132.371 773.989 132.076 774.757 131.486 775.315C130.896 775.874 130.086 776.153 129.055 776.153C128.023 776.153 127.225 775.872 126.658 775.309C126.096 774.747 125.814 773.973 125.814 772.989V767.469H126.811V773.059C126.811 773.774 127.006 774.323 127.396 774.706C127.787 775.089 128.361 775.28 129.119 775.28C129.842 775.28 130.398 775.089 130.789 774.706C131.18 774.319 131.375 773.766 131.375 773.048V767.469H132.371ZM141.482 771.671C141.482 773.085 141.098 774.167 140.328 774.917C139.562 775.663 138.459 776.036 137.018 776.036H134.645V767.469H137.27C138.602 767.469 139.637 767.839 140.375 768.577C141.113 769.315 141.482 770.346 141.482 771.671ZM140.428 771.706C140.428 770.589 140.146 769.747 139.584 769.18C139.025 768.614 138.193 768.331 137.088 768.331H135.641V775.175H136.854C138.041 775.175 138.934 774.884 139.531 774.302C140.129 773.716 140.428 772.85 140.428 771.706ZM150.834 771.741C150.834 773.112 150.486 774.19 149.791 774.975C149.1 775.76 148.137 776.153 146.902 776.153C145.641 776.153 144.666 775.768 143.979 774.999C143.295 774.225 142.953 773.135 142.953 771.729C142.953 770.335 143.297 769.255 143.984 768.489C144.672 767.719 145.648 767.335 146.914 767.335C148.145 767.335 149.105 767.725 149.797 768.507C150.488 769.288 150.834 770.366 150.834 771.741ZM144.008 771.741C144.008 772.901 144.254 773.782 144.746 774.384C145.242 774.981 145.961 775.28 146.902 775.28C147.852 775.28 148.568 774.981 149.053 774.384C149.537 773.786 149.779 772.905 149.779 771.741C149.779 770.589 149.537 769.716 149.053 769.122C148.572 768.524 147.859 768.225 146.914 768.225C145.965 768.225 145.242 768.526 144.746 769.128C144.254 769.725 144.008 770.596 144.008 771.741Z" fill="#211915"/>
<path d="M17.9327 696.993C27.8366 696.993 35.8654 688.964 35.8654 679.06C35.8654 669.156 27.8366 661.127 17.9327 661.127C8.02874 661.127 0 669.156 0 679.06C0 688.964 8.02874 696.993 17.9327 696.993Z" fill="#B77E4A"/>
<path d="M476.628 731.055H475.632V727.023H471.12V731.055H470.124V722.488H471.12V726.133H475.632V722.488H476.628V731.055ZM478.983 731.055V722.488H479.979V731.055H478.983ZM489.173 726.689C489.173 728.104 488.788 729.186 488.019 729.936C487.253 730.682 486.149 731.055 484.708 731.055H482.335V722.488H484.96C486.292 722.488 487.327 722.857 488.065 723.596C488.804 724.334 489.173 725.365 489.173 726.689ZM488.118 726.725C488.118 725.607 487.837 724.766 487.274 724.199C486.716 723.633 485.884 723.35 484.778 723.35H483.331V730.193H484.544C485.731 730.193 486.624 729.902 487.222 729.32C487.819 728.734 488.118 727.869 488.118 726.725ZM492.085 727.492V731.055H491.089V722.488H493.438C494.489 722.488 495.265 722.689 495.765 723.092C496.269 723.494 496.521 724.1 496.521 724.908C496.521 726.041 495.946 726.807 494.798 727.205L497.124 731.055H495.946L493.872 727.492H492.085ZM492.085 726.637H493.45C494.153 726.637 494.669 726.498 494.997 726.221C495.325 725.939 495.489 725.52 495.489 724.961C495.489 724.395 495.321 723.986 494.985 723.736C494.653 723.486 494.118 723.361 493.38 723.361H492.085V726.637ZM505.942 726.76C505.942 728.131 505.595 729.209 504.899 729.994C504.208 730.779 503.245 731.172 502.011 731.172C500.749 731.172 499.774 730.787 499.087 730.018C498.403 729.244 498.062 728.154 498.062 726.748C498.062 725.354 498.405 724.273 499.093 723.508C499.78 722.738 500.757 722.354 502.022 722.354C503.253 722.354 504.214 722.744 504.905 723.525C505.597 724.307 505.942 725.385 505.942 726.76ZM499.116 726.76C499.116 727.92 499.362 728.801 499.854 729.402C500.351 730 501.069 730.299 502.011 730.299C502.96 730.299 503.677 730 504.161 729.402C504.646 728.805 504.888 727.924 504.888 726.76C504.888 725.607 504.646 724.734 504.161 724.141C503.681 723.543 502.968 723.244 502.022 723.244C501.073 723.244 500.351 723.545 499.854 724.146C499.362 724.744 499.116 725.615 499.116 726.76ZM512.634 731.055H507.858V722.488H512.634V723.373H508.854V726.133H512.405V727.012H508.854V730.164H512.634V731.055ZM514.538 731.055V722.488H515.534V730.152H519.313V731.055H514.538ZM525.548 731.055H520.772V722.488H525.548V723.373H521.769V726.133H525.319V727.012H521.769V730.164H525.548V731.055ZM522.267 721.656C522.454 721.414 522.655 721.121 522.87 720.777C523.089 720.434 523.261 720.135 523.386 719.881H524.569V720.004C524.397 720.258 524.142 720.57 523.802 720.941C523.462 721.312 523.167 721.6 522.917 721.803H522.267V721.656ZM531.12 723.256C530.179 723.256 529.435 723.57 528.888 724.199C528.345 724.824 528.073 725.682 528.073 726.771C528.073 727.893 528.335 728.76 528.858 729.373C529.386 729.982 530.136 730.287 531.108 730.287C531.706 730.287 532.388 730.18 533.153 729.965V730.838C532.56 731.061 531.827 731.172 530.956 731.172C529.694 731.172 528.72 730.789 528.032 730.023C527.349 729.258 527.007 728.17 527.007 726.76C527.007 725.877 527.171 725.104 527.499 724.439C527.831 723.775 528.308 723.264 528.929 722.904C529.554 722.545 530.288 722.365 531.132 722.365C532.03 722.365 532.815 722.529 533.487 722.857L533.065 723.713C532.417 723.408 531.769 723.256 531.12 723.256ZM537.659 731.055H536.663V723.373H533.95V722.488H540.372V723.373H537.659V731.055ZM542.663 727.492V731.055H541.667V722.488H544.017C545.067 722.488 545.843 722.689 546.343 723.092C546.847 723.494 547.099 724.1 547.099 724.908C547.099 726.041 546.524 726.807 545.376 727.205L547.702 731.055H546.524L544.45 727.492H542.663ZM542.663 726.637H544.028C544.731 726.637 545.247 726.498 545.575 726.221C545.903 725.939 546.067 725.52 546.067 724.961C546.067 724.395 545.899 723.986 545.563 723.736C545.231 723.486 544.696 723.361 543.958 723.361H542.663V726.637ZM549.085 731.055V722.488H550.081V731.055H549.085ZM556.104 723.256C555.163 723.256 554.419 723.57 553.872 724.199C553.329 724.824 553.058 725.682 553.058 726.771C553.058 727.893 553.319 728.76 553.843 729.373C554.37 729.982 555.12 730.287 556.093 730.287C556.69 730.287 557.372 730.18 558.138 729.965V730.838C557.544 731.061 556.812 731.172 555.94 731.172C554.679 731.172 553.704 730.789 553.017 730.023C552.333 729.258 551.991 728.17 551.991 726.76C551.991 725.877 552.155 725.104 552.483 724.439C552.815 723.775 553.292 723.264 553.913 722.904C554.538 722.545 555.272 722.365 556.116 722.365C557.015 722.365 557.8 722.529 558.472 722.857L558.05 723.713C557.401 723.408 556.753 723.256 556.104 723.256ZM565.392 731.055L564.325 728.33H560.892L559.837 731.055H558.829L562.216 722.453H563.054L566.423 731.055H565.392ZM564.015 727.434L563.019 724.779C562.89 724.443 562.757 724.031 562.62 723.543C562.534 723.918 562.411 724.33 562.251 724.779L561.243 727.434H564.015Z" fill="#211915"/>
<path d="M439.852 743.996C449.756 743.996 457.785 735.968 457.785 726.064C457.785 716.16 449.756 708.131 439.852 708.131C429.948 708.131 421.919 716.16 421.919 726.064C421.919 735.968 429.948 743.996 439.852 743.996Z" fill="#E4C55A"/>
<path d="M17.9327 791C27.8366 791 35.8654 782.971 35.8654 773.067C35.8654 763.163 27.8366 755.135 17.9327 755.135C8.02874 755.135 0 763.163 0 773.067C0 782.971 8.02874 791 17.9327 791Z" fill="#004756"/>
<path d="M238.805 696.993C248.709 696.993 256.738 688.964 256.738 679.06C256.738 669.156 248.709 661.127 238.805 661.127C228.901 661.127 220.873 669.156 220.873 679.06C220.873 688.964 228.901 696.993 238.805 696.993Z" fill="#00646E"/>
<path d="M17.9327 743.996C27.8366 743.996 35.8654 735.968 35.8654 726.064C35.8654 716.16 27.8366 708.131 17.9327 708.131C8.02874 708.131 0 716.16 0 726.064C0 735.968 8.02874 743.996 17.9327 743.996Z" fill="#474747"/>
<path d="M238.805 791C248.709 791 256.738 782.971 256.738 773.067C256.738 763.163 248.709 755.135 238.805 755.135C228.901 755.135 220.873 763.163 220.873 773.067C220.873 782.971 228.901 791 238.805 791Z" fill="#643623"/>
<path d="M439.852 696.993C449.756 696.993 457.785 688.964 457.785 679.06C457.785 669.156 449.756 661.127 439.852 661.127C429.948 661.127 421.919 669.156 421.919 679.06C421.919 688.964 429.948 696.993 439.852 696.993Z" fill="#73B3C0"/>
<path d="M238.805 743.996C248.709 743.996 256.738 735.968 256.738 726.064C256.738 716.16 248.709 708.131 238.805 708.131C228.901 708.131 220.873 716.16 220.873 726.064C220.873 735.968 228.901 743.996 238.805 743.996Z" fill="#A73839"/>
<path d="M267.084 42H247.623V37.9058L254.611 30.8408C256.681 28.7207 258.033 27.2544 258.667 26.4419C259.302 25.6167 259.759 24.855 260.039 24.1567C260.318 23.4585 260.458 22.7349 260.458 21.9858C260.458 20.8687 260.146 20.0371 259.524 19.4912C258.915 18.9453 258.096 18.6724 257.068 18.6724C255.989 18.6724 254.941 18.9199 253.926 19.415C252.91 19.9102 251.85 20.6147 250.746 21.5288L247.546 17.7393C248.917 16.5713 250.054 15.7461 250.955 15.2637C251.856 14.7813 252.84 14.4131 253.907 14.1592C254.973 13.8926 256.167 13.7593 257.487 13.7593C259.226 13.7593 260.762 14.0767 262.095 14.7114C263.428 15.3462 264.463 16.2349 265.199 17.3774C265.936 18.52 266.304 19.8276 266.304 21.3003C266.304 22.5825 266.075 23.7886 265.618 24.9185C265.174 26.0356 264.476 27.1846 263.523 28.3652C262.584 29.5459 260.921 31.228 258.534 33.4116L254.954 36.7822V37.0488H267.084V42ZM289.212 28.0796C289.212 32.9419 288.413 36.541 286.813 38.877C285.226 41.2129 282.776 42.3809 279.462 42.3809C276.25 42.3809 273.826 41.1748 272.188 38.7627C270.563 36.3506 269.75 32.7896 269.75 28.0796C269.75 23.1665 270.544 19.5483 272.131 17.2251C273.718 14.8892 276.162 13.7212 279.462 13.7212C282.674 13.7212 285.099 14.9399 286.737 17.3774C288.387 19.8149 289.212 23.3823 289.212 28.0796ZM275.597 28.0796C275.597 31.4946 275.889 33.9448 276.473 35.4302C277.069 36.9028 278.066 37.6392 279.462 37.6392C280.833 37.6392 281.824 36.8901 282.433 35.3921C283.042 33.894 283.347 31.4565 283.347 28.0796C283.347 24.6646 283.036 22.2144 282.414 20.729C281.805 19.231 280.821 18.4819 279.462 18.4819C278.079 18.4819 277.088 19.231 276.492 20.729C275.895 22.2144 275.597 24.6646 275.597 28.0796ZM306.732 42H300.848V25.8896L300.905 23.2427L301 20.3481C300.022 21.3257 299.343 21.9668 298.962 22.2715L295.763 24.8423L292.926 21.3003L301.895 14.1592H306.732V42ZM324.061 13.7974C326.727 13.7974 328.873 14.4067 330.498 15.6255C332.135 16.8315 332.954 18.4629 332.954 20.5195C332.954 21.9414 332.561 23.2109 331.773 24.3281C330.986 25.4326 329.717 26.4229 327.965 27.2988C330.047 28.416 331.539 29.584 332.44 30.8027C333.354 32.0088 333.811 33.3354 333.811 34.7827C333.811 37.0679 332.916 38.9087 331.126 40.3052C329.336 41.689 326.981 42.3809 324.061 42.3809C321.014 42.3809 318.621 41.7334 316.882 40.4385C315.143 39.1436 314.273 37.3091 314.273 34.9351C314.273 33.3481 314.692 31.939 315.53 30.7075C316.38 29.4761 317.739 28.3906 319.605 27.4512C318.018 26.4482 316.875 25.3755 316.177 24.2329C315.479 23.0903 315.13 21.8398 315.13 20.4814C315.13 18.4883 315.955 16.876 317.605 15.6445C319.256 14.4131 321.408 13.7974 324.061 13.7974ZM319.719 34.5923C319.719 35.6841 320.1 36.5347 320.862 37.144C321.624 37.7534 322.665 38.0581 323.985 38.0581C325.445 38.0581 326.537 37.7471 327.26 37.125C327.984 36.4902 328.346 35.6587 328.346 34.6304C328.346 33.7798 327.984 32.9863 327.26 32.25C326.549 31.501 325.388 30.7075 323.775 29.8696C321.071 31.1138 319.719 32.688 319.719 34.5923ZM324.023 18.1011C323.02 18.1011 322.208 18.3613 321.585 18.8818C320.976 19.3896 320.671 20.0752 320.671 20.9385C320.671 21.7002 320.913 22.3857 321.395 22.9951C321.89 23.5918 322.779 24.2075 324.061 24.8423C325.305 24.2583 326.175 23.6616 326.67 23.0522C327.165 22.4429 327.413 21.7383 327.413 20.9385C327.413 20.0625 327.095 19.3706 326.46 18.8628C325.826 18.355 325.013 18.1011 324.023 18.1011Z" fill="#211915"/>
</svg>
