<svg width="592" height="772" viewBox="0 0 592 772" fill="none" xmlns="http://www.w3.org/2000/svg">
<g clip-path="url(#clip0)">
<path d="M249.791 29.8833H231.624V27.3506L241.221 16.6865C242.643 15.0742 243.621 13.7666 244.154 12.7636C244.7 11.748 244.973 10.7007 244.973 9.62155C244.973 8.17429 244.535 6.98727 243.659 6.06052C242.783 5.13376 241.615 4.67038 240.155 4.67038C238.403 4.67038 237.038 5.17184 236.061 6.17477C235.096 7.16501 234.613 8.5488 234.613 10.3261H231.09C231.09 7.77438 231.909 5.7114 233.547 4.13718C235.197 2.56296 237.4 1.77585 240.155 1.77585C242.732 1.77585 244.77 2.45505 246.268 3.81345C247.766 5.15915 248.515 6.95554 248.515 9.20261C248.515 11.9321 246.775 15.1821 243.297 18.9526L235.87 27.0078H249.791V29.8833ZM270.909 18.0576C270.909 22.1836 270.205 25.2495 268.795 27.2553C267.386 29.2612 265.184 30.2641 262.188 30.2641C259.229 30.2641 257.04 29.2866 255.618 27.3315C254.196 25.3637 253.459 22.4311 253.409 18.5337V13.83C253.409 9.75485 254.113 6.72702 255.522 4.74655C256.932 2.76608 259.141 1.77585 262.149 1.77585C265.133 1.77585 267.329 2.73434 268.738 4.65134C270.147 6.55563 270.871 9.50095 270.909 13.4873V18.0576ZM267.386 13.2397C267.386 10.2563 266.967 8.08542 266.129 6.72702C265.292 5.35593 263.965 4.67038 262.149 4.67038C260.347 4.67038 259.033 5.34958 258.208 6.70798C257.382 8.06638 256.957 10.1548 256.932 12.9731V18.6098C256.932 21.6059 257.363 23.8213 258.227 25.2558C259.103 26.6777 260.423 27.3886 262.188 27.3886C263.927 27.3886 265.215 26.7158 266.053 25.3701C266.904 24.0244 267.348 21.9043 267.386 19.0097V13.2397ZM287 29.8833H283.458V6.40329L276.355 9.01218V5.81296L286.448 2.02341H287V29.8833ZM310.823 17.6958C310.087 18.5717 309.205 19.2763 308.176 19.8095C307.161 20.3427 306.043 20.6093 304.825 20.6093C303.225 20.6093 301.829 20.2158 300.635 19.4287C299.455 18.6416 298.541 17.5371 297.893 16.1152C297.246 14.6806 296.922 13.1001 296.922 11.3735C296.922 9.51999 297.271 7.85056 297.969 6.3652C298.68 4.87985 299.683 3.74362 300.978 2.95651C302.273 2.1694 303.784 1.77585 305.51 1.77585C308.252 1.77585 310.411 2.80417 311.985 4.86081C313.572 6.90475 314.365 9.69772 314.365 13.2397V14.268C314.365 19.6635 313.299 23.6054 311.166 26.0937C309.033 28.5693 305.815 29.8388 301.511 29.9023H300.826V26.9316H301.568C304.476 26.8808 306.71 26.1255 308.271 24.6655C309.833 23.1928 310.684 20.8696 310.823 17.6958ZM305.396 17.6958C306.577 17.6958 307.662 17.334 308.652 16.6103C309.655 15.8867 310.385 14.9917 310.842 13.9253V12.5161C310.842 10.2055 310.341 8.32663 309.338 6.87936C308.335 5.4321 307.065 4.70847 305.529 4.70847C303.98 4.70847 302.736 5.30515 301.797 6.4985C300.857 7.67917 300.388 9.24069 300.388 11.1831C300.388 13.0747 300.838 14.6362 301.74 15.8676C302.654 17.0864 303.873 17.6958 305.396 17.6958Z" fill="black"/>
<path d="M522.529 60.196C522.529 60.9652 522.305 61.6071 521.857 62.1218C521.409 62.6309 520.778 62.974 519.964 63.1511V63.2175C520.938 63.3392 521.669 63.6436 522.156 64.1306C522.643 64.612 522.886 65.2539 522.886 66.0563C522.886 67.224 522.474 68.126 521.649 68.7624C520.825 69.3932 519.652 69.7087 518.13 69.7087C516.785 69.7087 515.651 69.4901 514.727 69.0529V67.3181C515.241 67.5726 515.786 67.7691 516.362 67.9074C516.937 68.0458 517.491 68.1149 518.022 68.1149C518.963 68.1149 519.666 67.9406 520.13 67.592C520.595 67.2433 520.828 66.7038 520.828 65.9733C520.828 65.3259 520.57 64.85 520.056 64.5456C519.541 64.2412 518.733 64.0891 517.632 64.0891H516.578V62.5036H517.648C519.585 62.5036 520.554 61.834 520.554 60.4948C520.554 59.9746 520.385 59.5734 520.047 59.2912C519.71 59.009 519.212 58.8679 518.553 58.8679C518.094 58.8679 517.651 58.9343 517.225 59.0671C516.799 59.1944 516.295 59.4461 515.714 59.8224L514.76 58.4611C515.872 57.6421 517.164 57.2326 518.636 57.2326C519.859 57.2326 520.814 57.4955 521.5 58.0212C522.186 58.5469 522.529 59.2718 522.529 60.196ZM525.85 69.5427L530.647 59.1418H524.339V57.4235H532.731V58.7849L527.958 69.5427H525.85ZM535.752 61.0427C535.752 61.8672 535.833 62.4815 535.993 62.8854C536.154 63.2894 536.417 63.4914 536.782 63.4914C537.512 63.4914 537.877 62.6752 537.877 61.0427C537.877 59.4102 537.512 58.5939 536.782 58.5939C536.417 58.5939 536.154 58.7959 535.993 59.1999C535.833 59.6039 535.752 60.2181 535.752 61.0427ZM539.488 61.0261C539.488 62.2988 539.258 63.2562 538.799 63.8981C538.345 64.5345 537.673 64.8527 536.782 64.8527C535.941 64.8527 535.288 64.5235 534.823 63.8649C534.363 63.2009 534.134 62.2546 534.134 61.0261C534.134 58.4971 535.016 57.2326 536.782 57.2326C537.651 57.2326 538.317 57.5619 538.782 58.2204C539.253 58.8734 539.488 59.8086 539.488 61.0261ZM543.655 65.8903C543.655 66.7149 543.735 67.3319 543.896 67.7414C544.062 68.1509 544.327 68.3557 544.692 68.3557C545.417 68.3557 545.78 67.5339 545.78 65.8903C545.78 64.2689 545.417 63.4582 544.692 63.4582C544.327 63.4582 544.062 63.6574 543.896 64.0558C543.735 64.4543 543.655 65.0658 543.655 65.8903ZM547.39 65.8903C547.39 67.1631 547.16 68.1177 546.701 68.7541C546.242 69.3905 545.572 69.7087 544.692 69.7087C543.851 69.7087 543.198 69.3822 542.733 68.7292C542.269 68.0707 542.036 67.1244 542.036 65.8903C542.036 63.3613 542.922 62.0969 544.692 62.0969C545.545 62.0969 546.206 62.4234 546.676 63.0764C547.152 63.7293 547.39 64.6673 547.39 65.8903ZM544.925 57.4069L538.193 69.5427H536.583L543.314 57.4069H544.925Z" fill="#211915"/>
<path d="M518.86 94.4319C520.011 94.4319 520.922 94.6975 521.591 95.2287C522.261 95.7544 522.596 96.46 522.596 97.3454C522.596 98.5905 521.849 99.5811 520.354 100.317C521.306 100.793 521.981 101.294 522.38 101.82C522.784 102.345 522.986 102.932 522.986 103.579C522.986 104.581 522.618 105.383 521.882 105.987C521.146 106.59 520.15 106.891 518.894 106.891C517.576 106.891 516.556 106.609 515.831 106.045C515.106 105.48 514.743 104.681 514.743 103.646C514.743 102.971 514.931 102.365 515.308 101.828C515.689 101.286 516.312 100.804 517.175 100.384C516.434 99.9408 515.905 99.4732 515.59 98.9807C515.274 98.4882 515.117 97.9348 515.117 97.3205C515.117 96.4406 515.463 95.7406 516.154 95.2204C516.846 94.6947 517.748 94.4319 518.86 94.4319ZM516.611 103.579C516.611 104.155 516.813 104.603 517.217 104.924C517.621 105.239 518.169 105.397 518.86 105.397C519.574 105.397 520.128 105.234 520.521 104.907C520.919 104.575 521.118 104.127 521.118 103.563C521.118 103.114 520.936 102.705 520.57 102.334C520.205 101.963 519.652 101.62 518.91 101.305L518.669 101.197C517.939 101.518 517.413 101.872 517.092 102.259C516.771 102.641 516.611 103.081 516.611 103.579ZM518.844 95.9343C518.29 95.9343 517.845 96.0726 517.507 96.3493C517.17 96.6205 517.001 96.9913 517.001 97.4616C517.001 97.7494 517.062 98.0067 517.184 98.2336C517.305 98.4605 517.482 98.668 517.715 98.8562C517.947 99.0388 518.34 99.2601 518.894 99.5202C519.558 99.2269 520.025 98.9198 520.296 98.5988C520.573 98.2723 520.711 97.8933 520.711 97.4616C520.711 96.9913 520.54 96.6205 520.197 96.3493C519.859 96.0726 519.408 95.9343 518.844 95.9343ZM527.145 104.941C526.879 105.97 526.392 107.295 525.684 108.917H524.248C524.629 107.423 524.914 106.034 525.103 104.75H527.02L527.145 104.941ZM534.748 106.725H532.797V98.8894C532.797 97.9542 532.819 97.2126 532.864 96.6648C532.736 96.7976 532.579 96.9442 532.391 97.1047C532.208 97.2652 531.588 97.7743 530.531 98.632L529.552 97.3952L533.121 94.5896H534.748V106.725ZM540.301 98.2253C540.301 99.0499 540.382 99.6641 540.542 100.068C540.702 100.472 540.965 100.674 541.331 100.674C542.061 100.674 542.426 99.8578 542.426 98.2253C542.426 96.5928 542.061 95.7766 541.331 95.7766C540.965 95.7766 540.702 95.9786 540.542 96.3825C540.382 96.7865 540.301 97.4008 540.301 98.2253ZM544.037 98.2087C544.037 99.4815 543.807 100.439 543.348 101.081C542.894 101.717 542.222 102.035 541.331 102.035C540.489 102.035 539.836 101.706 539.372 101.048C538.912 100.384 538.683 99.4372 538.683 98.2087C538.683 95.6797 539.565 94.4153 541.331 94.4153C542.199 94.4153 542.866 94.7445 543.331 95.403C543.801 96.056 544.037 96.9913 544.037 98.2087ZM548.204 103.073C548.204 103.898 548.284 104.515 548.444 104.924C548.61 105.334 548.876 105.538 549.241 105.538C549.966 105.538 550.329 104.717 550.329 103.073C550.329 101.452 549.966 100.641 549.241 100.641C548.876 100.641 548.61 100.84 548.444 101.238C548.284 101.637 548.204 102.248 548.204 103.073ZM551.939 103.073C551.939 104.346 551.709 105.3 551.25 105.937C550.791 106.573 550.121 106.891 549.241 106.891C548.4 106.891 547.747 106.565 547.282 105.912C546.817 105.253 546.585 104.307 546.585 103.073C546.585 100.544 547.47 99.2795 549.241 99.2795C550.093 99.2795 550.755 99.606 551.225 100.259C551.701 100.912 551.939 101.85 551.939 103.073ZM549.474 94.5896L542.742 106.725H541.131L547.863 94.5896H549.474Z" fill="#211915"/>
<path d="M522.986 164.955H514.76V163.477L517.889 160.331C518.813 159.385 519.425 158.715 519.724 158.322C520.028 157.924 520.249 157.55 520.388 157.202C520.526 156.853 520.595 156.48 520.595 156.081C520.595 155.533 520.429 155.102 520.097 154.786C519.771 154.471 519.317 154.313 518.736 154.313C518.271 154.313 517.82 154.399 517.383 154.57C516.951 154.742 516.45 155.052 515.88 155.5L514.826 154.213C515.501 153.643 516.157 153.24 516.793 153.002C517.43 152.764 518.108 152.645 518.827 152.645C519.956 152.645 520.861 152.941 521.542 153.533C522.222 154.119 522.562 154.911 522.562 155.907C522.562 156.455 522.463 156.975 522.264 157.467C522.07 157.96 521.768 158.469 521.359 158.995C520.955 159.515 520.28 160.22 519.333 161.111L517.225 163.153V163.236H522.986V164.955ZM527.145 163.17C526.879 164.199 526.392 165.525 525.684 167.146H524.248C524.629 165.652 524.914 164.263 525.103 162.979H527.02L527.145 163.17ZM536.79 155.608C536.79 156.377 536.566 157.019 536.118 157.534C535.669 158.043 535.039 158.386 534.225 158.563V158.63C535.199 158.751 535.93 159.056 536.417 159.543C536.903 160.024 537.147 160.666 537.147 161.468C537.147 162.636 536.735 163.538 535.91 164.174C535.086 164.805 533.912 165.121 532.391 165.121C531.046 165.121 529.911 164.902 528.987 164.465V162.73C529.502 162.985 530.047 163.181 530.623 163.319C531.198 163.458 531.751 163.527 532.283 163.527C533.223 163.527 533.926 163.353 534.391 163.004C534.856 162.655 535.088 162.116 535.088 161.385C535.088 160.738 534.831 160.262 534.316 159.958C533.802 159.653 532.994 159.501 531.893 159.501H530.838V157.916H531.909C533.846 157.916 534.814 157.246 534.814 155.907C534.814 155.387 534.646 154.985 534.308 154.703C533.971 154.421 533.472 154.28 532.814 154.28C532.355 154.28 531.912 154.346 531.486 154.479C531.06 154.606 530.556 154.858 529.975 155.234L529.021 153.873C530.133 153.054 531.425 152.645 532.897 152.645C534.12 152.645 535.075 152.907 535.761 153.433C536.447 153.959 536.79 154.684 536.79 155.608ZM540.301 156.455C540.301 157.279 540.382 157.893 540.542 158.297C540.702 158.701 540.965 158.903 541.331 158.903C542.061 158.903 542.426 158.087 542.426 156.455C542.426 154.822 542.061 154.006 541.331 154.006C540.965 154.006 540.702 154.208 540.542 154.612C540.382 155.016 540.301 155.63 540.301 156.455ZM544.037 156.438C544.037 157.711 543.807 158.668 543.348 159.31C542.894 159.947 542.222 160.265 541.331 160.265C540.489 160.265 539.836 159.935 539.372 159.277C538.912 158.613 538.683 157.667 538.683 156.438C538.683 153.909 539.565 152.645 541.331 152.645C542.199 152.645 542.866 152.974 543.331 153.632C543.801 154.285 544.037 155.221 544.037 156.438ZM548.204 161.302C548.204 162.127 548.284 162.744 548.444 163.153C548.61 163.563 548.876 163.768 549.241 163.768C549.966 163.768 550.329 162.946 550.329 161.302C550.329 159.681 549.966 158.87 549.241 158.87C548.876 158.87 548.61 159.069 548.444 159.468C548.284 159.866 548.204 160.478 548.204 161.302ZM551.939 161.302C551.939 162.575 551.709 163.53 551.25 164.166C550.791 164.803 550.121 165.121 549.241 165.121C548.4 165.121 547.747 164.794 547.282 164.141C546.817 163.483 546.585 162.536 546.585 161.302C546.585 158.773 547.47 157.509 549.241 157.509C550.093 157.509 550.755 157.835 551.225 158.488C551.701 159.141 551.939 160.079 551.939 161.302ZM549.474 152.819L542.742 164.955H541.131L547.863 152.819H549.474Z" fill="#211915"/>
<path d="M522.986 333.877H514.76V332.399L517.889 329.253C518.813 328.307 519.425 327.638 519.724 327.245C520.028 326.846 520.249 326.473 520.388 326.124C520.526 325.775 520.595 325.402 520.595 325.003C520.595 324.456 520.429 324.024 520.097 323.708C519.771 323.393 519.317 323.235 518.736 323.235C518.271 323.235 517.82 323.321 517.383 323.493C516.951 323.664 516.45 323.974 515.88 324.422L514.826 323.136C515.501 322.566 516.157 322.162 516.793 321.924C517.43 321.686 518.108 321.567 518.827 321.567C519.956 321.567 520.861 321.863 521.542 322.455C522.222 323.042 522.562 323.833 522.562 324.829C522.562 325.377 522.463 325.897 522.264 326.39C522.07 326.882 521.768 327.391 521.359 327.917C520.955 328.437 520.28 329.143 519.333 330.034L517.225 332.076V332.159H522.986V333.877ZM525.85 333.877L530.647 323.476H524.339V321.758H532.731V323.119L527.958 333.877H525.85ZM536.856 332.092C536.591 333.122 536.104 334.447 535.396 336.068H533.959C534.341 334.574 534.626 333.185 534.814 331.901H536.732L536.856 332.092ZM547.39 331.229H545.755V333.877H543.854V331.229H538.309V329.727L543.854 321.708H545.755V329.61H547.39V331.229ZM543.854 329.61V326.564C543.854 325.479 543.882 324.591 543.937 323.899H543.871C543.716 324.265 543.472 324.707 543.14 325.228L540.127 329.61H543.854ZM550.013 325.377C550.013 326.201 550.093 326.816 550.254 327.22C550.414 327.624 550.677 327.826 551.042 327.826C551.773 327.826 552.138 327.009 552.138 325.377C552.138 323.744 551.773 322.928 551.042 322.928C550.677 322.928 550.414 323.13 550.254 323.534C550.093 323.938 550.013 324.552 550.013 325.377ZM553.749 325.36C553.749 326.633 553.519 327.59 553.06 328.232C552.606 328.869 551.933 329.187 551.042 329.187C550.201 329.187 549.548 328.858 549.083 328.199C548.624 327.535 548.395 326.589 548.395 325.36C548.395 322.831 549.277 321.567 551.042 321.567C551.911 321.567 552.578 321.896 553.043 322.555C553.513 323.208 553.749 324.143 553.749 325.36ZM557.916 330.225C557.916 331.049 557.996 331.666 558.156 332.076C558.322 332.485 558.588 332.69 558.953 332.69C559.678 332.69 560.041 331.868 560.041 330.225C560.041 328.603 559.678 327.792 558.953 327.792C558.588 327.792 558.322 327.992 558.156 328.39C557.996 328.789 557.916 329.4 557.916 330.225ZM561.651 330.225C561.651 331.497 561.421 332.452 560.962 333.088C560.503 333.725 559.833 334.043 558.953 334.043C558.112 334.043 557.459 333.716 556.994 333.063C556.529 332.405 556.297 331.459 556.297 330.225C556.297 327.696 557.182 326.431 558.953 326.431C559.805 326.431 560.467 326.758 560.937 327.411C561.413 328.064 561.651 329.002 561.651 330.225ZM559.186 321.741L552.454 333.877H550.843L557.575 321.741H559.186Z" fill="#211915"/>
<path d="M514.793 450.843C514.793 446.095 516.727 443.721 520.595 443.721C521.204 443.721 521.719 443.768 522.139 443.862V445.489C521.719 445.367 521.232 445.306 520.678 445.306C519.378 445.306 518.401 445.655 517.748 446.352C517.095 447.049 516.741 448.167 516.686 449.705H516.785C517.045 449.257 517.41 448.911 517.881 448.668C518.351 448.419 518.905 448.294 519.541 448.294C520.642 448.294 521.5 448.632 522.114 449.307C522.729 449.982 523.036 450.898 523.036 452.055C523.036 453.327 522.679 454.334 521.965 455.076C521.257 455.812 520.288 456.18 519.06 456.18C518.191 456.18 517.435 455.973 516.793 455.557C516.152 455.137 515.656 454.528 515.308 453.731C514.965 452.929 514.793 451.966 514.793 450.843ZM519.026 454.57C519.696 454.57 520.211 454.354 520.57 453.922C520.936 453.491 521.118 452.874 521.118 452.071C521.118 451.374 520.947 450.826 520.604 450.428C520.266 450.029 519.757 449.83 519.076 449.83C518.656 449.83 518.268 449.921 517.914 450.104C517.56 450.281 517.28 450.527 517.076 450.843C516.871 451.153 516.769 451.471 516.769 451.797C516.769 452.577 516.979 453.236 517.399 453.773C517.826 454.304 518.368 454.57 519.026 454.57ZM527.145 454.229C526.879 455.259 526.392 456.584 525.684 458.205H524.248C524.629 456.711 524.914 455.322 525.103 454.038H527.02L527.145 454.229ZM537.247 456.014H529.021V454.536L532.15 451.39C533.074 450.444 533.686 449.775 533.984 449.382C534.289 448.983 534.51 448.61 534.648 448.261C534.787 447.912 534.856 447.539 534.856 447.14C534.856 446.593 534.69 446.161 534.358 445.846C534.031 445.53 533.578 445.372 532.997 445.372C532.532 445.372 532.081 445.458 531.644 445.63C531.212 445.801 530.711 446.111 530.141 446.559L529.087 445.273C529.762 444.703 530.418 444.299 531.054 444.061C531.691 443.823 532.368 443.704 533.088 443.704C534.217 443.704 535.122 444 535.802 444.592C536.483 445.179 536.823 445.97 536.823 446.966C536.823 447.514 536.724 448.034 536.524 448.527C536.331 449.019 536.029 449.528 535.62 450.054C535.216 450.574 534.541 451.28 533.594 452.171L531.486 454.213V454.296H537.247V456.014ZM540.301 447.514C540.301 448.339 540.382 448.953 540.542 449.357C540.702 449.761 540.965 449.963 541.331 449.963C542.061 449.963 542.426 449.146 542.426 447.514C542.426 445.882 542.061 445.065 541.331 445.065C540.965 445.065 540.702 445.267 540.542 445.671C540.382 446.075 540.301 446.689 540.301 447.514ZM544.037 447.497C544.037 448.77 543.807 449.728 543.348 450.369C542.894 451.006 542.222 451.324 541.331 451.324C540.489 451.324 539.836 450.995 539.372 450.336C538.912 449.672 538.683 448.726 538.683 447.497C538.683 444.968 539.565 443.704 541.331 443.704C542.199 443.704 542.866 444.033 543.331 444.692C543.801 445.345 544.037 446.28 544.037 447.497ZM548.204 452.362C548.204 453.186 548.284 453.803 548.444 454.213C548.61 454.622 548.876 454.827 549.241 454.827C549.966 454.827 550.329 454.005 550.329 452.362C550.329 450.74 549.966 449.93 549.241 449.93C548.876 449.93 548.61 450.129 548.444 450.527C548.284 450.926 548.204 451.537 548.204 452.362ZM551.939 452.362C551.939 453.634 551.709 454.589 551.25 455.225C550.791 455.862 550.121 456.18 549.241 456.18C548.4 456.18 547.747 455.854 547.282 455.201C546.817 454.542 546.585 453.596 546.585 452.362C546.585 449.833 547.47 448.568 549.241 448.568C550.093 448.568 550.755 448.895 551.225 449.548C551.701 450.201 551.939 451.139 551.939 452.362ZM549.474 443.878L542.742 456.014H541.131L547.863 443.878H549.474Z" fill="#211915"/>
<path d="M522.986 489.266C522.986 491.375 522.646 492.941 521.965 493.965C521.29 494.988 520.255 495.5 518.86 495.5C517.51 495.5 516.486 494.972 515.789 493.915C515.092 492.858 514.743 491.308 514.743 489.266C514.743 487.125 515.081 485.548 515.756 484.535C516.437 483.517 517.471 483.008 518.86 483.008C520.216 483.008 521.243 483.539 521.94 484.601C522.637 485.664 522.986 487.219 522.986 489.266ZM516.719 489.266C516.719 490.921 516.888 492.102 517.225 492.811C517.568 493.519 518.113 493.873 518.86 493.873C519.607 493.873 520.153 493.514 520.496 492.794C520.844 492.075 521.019 490.899 521.019 489.266C521.019 487.639 520.844 486.463 520.496 485.739C520.153 485.008 519.607 484.643 518.86 484.643C518.113 484.643 517.568 485 517.225 485.714C516.888 486.427 516.719 487.612 516.719 489.266ZM527.145 493.55C526.879 494.579 526.392 495.904 525.684 497.526H524.248C524.629 496.031 524.914 494.642 525.103 493.359H527.02L527.145 493.55ZM536.79 485.988C536.79 486.757 536.566 487.399 536.118 487.913C535.669 488.422 535.039 488.766 534.225 488.943V489.009C535.199 489.131 535.93 489.435 536.417 489.922C536.903 490.404 537.147 491.045 537.147 491.848C537.147 493.016 536.735 493.918 535.91 494.554C535.086 495.185 533.912 495.5 532.391 495.5C531.046 495.5 529.911 495.282 528.987 494.844V493.11C529.502 493.364 530.047 493.561 530.623 493.699C531.198 493.837 531.751 493.906 532.283 493.906C533.223 493.906 533.926 493.732 534.391 493.384C534.856 493.035 535.088 492.495 535.088 491.765C535.088 491.117 534.831 490.642 534.316 490.337C533.802 490.033 532.994 489.881 531.893 489.881H530.838V488.295H531.909C533.846 488.295 534.814 487.626 534.814 486.286C534.814 485.766 534.646 485.365 534.308 485.083C533.971 484.801 533.472 484.659 532.814 484.659C532.355 484.659 531.912 484.726 531.486 484.859C531.06 484.986 530.556 485.238 529.975 485.614L529.021 484.253C530.133 483.434 531.425 483.024 532.897 483.024C534.12 483.024 535.075 483.287 535.761 483.813C536.447 484.338 536.79 485.063 536.79 485.988ZM540.301 486.834C540.301 487.659 540.382 488.273 540.542 488.677C540.702 489.081 540.965 489.283 541.331 489.283C542.061 489.283 542.426 488.467 542.426 486.834C542.426 485.202 542.061 484.385 541.331 484.385C540.965 484.385 540.702 484.587 540.542 484.991C540.382 485.395 540.301 486.01 540.301 486.834ZM544.037 486.818C544.037 488.09 543.807 489.048 543.348 489.69C542.894 490.326 542.222 490.644 541.331 490.644C540.489 490.644 539.836 490.315 539.372 489.656C538.912 488.992 538.683 488.046 538.683 486.818C538.683 484.289 539.565 483.024 541.331 483.024C542.199 483.024 542.866 483.353 543.331 484.012C543.801 484.665 544.037 485.6 544.037 486.818ZM548.204 491.682C548.204 492.506 548.284 493.123 548.444 493.533C548.61 493.942 548.876 494.147 549.241 494.147C549.966 494.147 550.329 493.325 550.329 491.682C550.329 490.06 549.966 489.25 549.241 489.25C548.876 489.25 548.61 489.449 548.444 489.847C548.284 490.246 548.204 490.857 548.204 491.682ZM551.939 491.682C551.939 492.955 551.709 493.909 551.25 494.546C550.791 495.182 550.121 495.5 549.241 495.5C548.4 495.5 547.747 495.174 547.282 494.521C546.817 493.862 546.585 492.916 546.585 491.682C546.585 489.153 547.47 487.888 549.241 487.888C550.093 487.888 550.755 488.215 551.225 488.868C551.701 489.521 551.939 490.459 551.939 491.682ZM549.474 483.198L542.742 495.334H541.131L547.863 483.198H549.474Z" fill="#211915"/>
<path d="M520.487 540.497H518.537V532.661C518.537 531.726 518.559 530.984 518.603 530.437C518.476 530.569 518.318 530.716 518.13 530.876C517.947 531.037 517.327 531.546 516.271 532.404L515.291 531.167L518.86 528.361H520.487V540.497ZM532.681 533.541C532.681 535.932 532.2 537.716 531.237 538.895C530.274 540.074 528.824 540.663 526.887 540.663C526.151 540.663 525.623 540.619 525.302 540.53V538.895C525.794 539.033 526.29 539.103 526.788 539.103C528.105 539.103 529.087 538.748 529.734 538.04C530.382 537.332 530.736 536.219 530.797 534.703H530.697C530.371 535.201 529.975 535.561 529.51 535.782C529.051 536.004 528.511 536.114 527.892 536.114C526.818 536.114 525.974 535.779 525.36 535.11C524.746 534.44 524.438 533.522 524.438 532.354C524.438 531.087 524.793 530.08 525.501 529.333C526.215 528.58 527.186 528.204 528.415 528.204C529.278 528.204 530.03 528.414 530.672 528.834C531.314 529.255 531.81 529.867 532.158 530.669C532.507 531.466 532.681 532.423 532.681 533.541ZM528.448 529.822C527.773 529.822 527.255 530.044 526.896 530.486C526.536 530.924 526.356 531.541 526.356 532.337C526.356 533.029 526.522 533.574 526.854 533.973C527.192 534.366 527.701 534.562 528.381 534.562C529.04 534.562 529.593 534.366 530.042 533.973C530.49 533.58 530.714 533.12 530.714 532.595C530.714 532.102 530.617 531.643 530.423 531.217C530.235 530.785 529.97 530.445 529.626 530.196C529.283 529.947 528.89 529.822 528.448 529.822ZM535.752 531.997C535.752 532.822 535.833 533.436 535.993 533.84C536.154 534.244 536.417 534.446 536.782 534.446C537.512 534.446 537.877 533.63 537.877 531.997C537.877 530.365 537.512 529.548 536.782 529.548C536.417 529.548 536.154 529.75 535.993 530.154C535.833 530.558 535.752 531.173 535.752 531.997ZM539.488 531.98C539.488 533.253 539.258 534.211 538.799 534.853C538.345 535.489 537.673 535.807 536.782 535.807C535.941 535.807 535.288 535.478 534.823 534.819C534.363 534.155 534.134 533.209 534.134 531.98C534.134 529.451 535.016 528.187 536.782 528.187C537.651 528.187 538.317 528.516 538.782 529.175C539.253 529.828 539.488 530.763 539.488 531.98ZM543.655 536.845C543.655 537.669 543.735 538.286 543.896 538.696C544.062 539.105 544.327 539.31 544.692 539.31C545.417 539.31 545.78 538.488 545.78 536.845C545.78 535.223 545.417 534.413 544.692 534.413C544.327 534.413 544.062 534.612 543.896 535.01C543.735 535.409 543.655 536.02 543.655 536.845ZM547.39 536.845C547.39 538.118 547.16 539.072 546.701 539.708C546.242 540.345 545.572 540.663 544.692 540.663C543.851 540.663 543.198 540.337 542.733 539.684C542.269 539.025 542.036 538.079 542.036 536.845C542.036 534.316 542.922 533.051 544.692 533.051C545.545 533.051 546.206 533.378 546.676 534.031C547.152 534.684 547.39 535.622 547.39 536.845ZM544.925 528.361L538.193 540.497H536.583L543.314 528.361H544.925Z" fill="#211915"/>
<path d="M522.986 573.168C522.986 575.277 522.646 576.843 521.965 577.867C521.29 578.89 520.255 579.402 518.86 579.402C517.51 579.402 516.486 578.874 515.789 577.817C515.092 576.76 514.743 575.21 514.743 573.168C514.743 571.027 515.081 569.45 515.756 568.437C516.437 567.419 517.471 566.91 518.86 566.91C520.216 566.91 521.243 567.441 521.94 568.503C522.637 569.566 522.986 571.121 522.986 573.168ZM516.719 573.168C516.719 574.823 516.888 576.005 517.225 576.713C517.568 577.421 518.113 577.775 518.86 577.775C519.607 577.775 520.153 577.416 520.496 576.696C520.844 575.977 521.019 574.801 521.019 573.168C521.019 571.542 520.844 570.366 520.496 569.641C520.153 568.91 519.607 568.545 518.86 568.545C518.113 568.545 517.568 568.902 517.225 569.616C516.888 570.33 516.719 571.514 516.719 573.168ZM527.145 577.452C526.879 578.481 526.392 579.806 525.684 581.428H524.248C524.629 579.934 524.914 578.545 525.103 577.261H527.02L527.145 577.452ZM537.247 579.236H529.021V577.759L532.15 574.613C533.074 573.667 533.686 572.997 533.984 572.604C534.289 572.206 534.51 571.832 534.648 571.483C534.787 571.135 534.856 570.761 534.856 570.363C534.856 569.815 534.69 569.383 534.358 569.068C534.031 568.752 533.578 568.595 532.997 568.595C532.532 568.595 532.081 568.681 531.644 568.852C531.212 569.024 530.711 569.333 530.141 569.782L529.087 568.495C529.762 567.925 530.418 567.521 531.054 567.283C531.691 567.045 532.368 566.926 533.088 566.926C534.217 566.926 535.122 567.222 535.802 567.814C536.483 568.401 536.823 569.192 536.823 570.188C536.823 570.736 536.724 571.257 536.524 571.749C536.331 572.242 536.029 572.751 535.62 573.276C535.216 573.797 534.541 574.502 533.594 575.393L531.486 577.435V577.518H537.247V579.236ZM540.301 570.736C540.301 571.561 540.382 572.175 540.542 572.579C540.702 572.983 540.965 573.185 541.331 573.185C542.061 573.185 542.426 572.369 542.426 570.736C542.426 569.104 542.061 568.288 541.331 568.288C540.965 568.288 540.702 568.49 540.542 568.894C540.382 569.298 540.301 569.912 540.301 570.736ZM544.037 570.72C544.037 571.993 543.807 572.95 543.348 573.592C542.894 574.228 542.222 574.546 541.331 574.546C540.489 574.546 539.836 574.217 539.372 573.559C538.912 572.895 538.683 571.948 538.683 570.72C538.683 568.191 539.565 566.926 541.331 566.926C542.199 566.926 542.866 567.256 543.331 567.914C543.801 568.567 544.037 569.502 544.037 570.72ZM548.204 575.584C548.204 576.409 548.284 577.026 548.444 577.435C548.61 577.845 548.876 578.049 549.241 578.049C549.966 578.049 550.329 577.228 550.329 575.584C550.329 573.963 549.966 573.152 549.241 573.152C548.876 573.152 548.61 573.351 548.444 573.75C548.284 574.148 548.204 574.759 548.204 575.584ZM551.939 575.584C551.939 576.857 551.709 577.811 551.25 578.448C550.791 579.084 550.121 579.402 549.241 579.402C548.4 579.402 547.747 579.076 547.282 578.423C546.817 577.764 546.585 576.818 546.585 575.584C546.585 573.055 547.47 571.791 549.241 571.791C550.093 571.791 550.755 572.117 551.225 572.77C551.701 573.423 551.939 574.361 551.939 575.584ZM549.474 567.101L542.742 579.236H541.131L547.863 567.101H549.474Z" fill="#211915"/>
<path d="M522.986 606.427C522.986 608.535 522.646 610.101 521.965 611.125C521.29 612.149 520.255 612.661 518.86 612.661C517.51 612.661 516.486 612.132 515.789 611.075C515.092 610.018 514.743 608.469 514.743 606.427C514.743 604.285 515.081 602.708 515.756 601.695C516.437 600.677 517.471 600.168 518.86 600.168C520.216 600.168 521.243 600.699 521.94 601.762C522.637 602.824 522.986 604.379 522.986 606.427ZM516.719 606.427C516.719 608.081 516.888 609.263 517.225 609.971C517.568 610.68 518.113 611.034 518.86 611.034C519.607 611.034 520.153 610.674 520.496 609.955C520.844 609.235 521.019 608.059 521.019 606.427C521.019 604.8 520.844 603.624 520.496 602.899C520.153 602.168 519.607 601.803 518.86 601.803C518.113 601.803 517.568 602.16 517.225 602.874C516.888 603.588 516.719 604.772 516.719 606.427ZM527.145 610.71C526.879 611.739 526.392 613.065 525.684 614.686H524.248C524.629 613.192 524.914 611.803 525.103 610.519H527.02L527.145 610.71ZM533.121 600.201C534.272 600.201 535.182 600.467 535.852 600.998C536.522 601.524 536.856 602.229 536.856 603.115C536.856 604.36 536.109 605.35 534.615 606.086C535.567 606.562 536.242 607.063 536.641 607.589C537.045 608.115 537.247 608.701 537.247 609.349C537.247 610.35 536.879 611.153 536.143 611.756C535.407 612.359 534.41 612.661 533.154 612.661C531.837 612.661 530.816 612.378 530.091 611.814C529.366 611.25 529.004 610.45 529.004 609.415C529.004 608.74 529.192 608.134 529.568 607.597C529.95 607.055 530.573 606.573 531.436 606.153C530.694 605.71 530.166 605.243 529.851 604.75C529.535 604.257 529.377 603.704 529.377 603.09C529.377 602.21 529.723 601.51 530.415 600.99C531.107 600.464 532.009 600.201 533.121 600.201ZM530.872 609.349C530.872 609.924 531.074 610.372 531.478 610.693C531.882 611.009 532.429 611.167 533.121 611.167C533.835 611.167 534.388 611.003 534.781 610.677C535.18 610.345 535.379 609.896 535.379 609.332C535.379 608.884 535.196 608.474 534.831 608.104C534.466 607.733 533.912 607.39 533.171 607.074L532.93 606.966C532.2 607.287 531.674 607.641 531.353 608.029C531.032 608.411 530.872 608.851 530.872 609.349ZM533.104 601.704C532.551 601.704 532.106 601.842 531.768 602.119C531.431 602.39 531.262 602.761 531.262 603.231C531.262 603.519 531.323 603.776 531.444 604.003C531.566 604.23 531.743 604.437 531.976 604.625C532.208 604.808 532.601 605.029 533.154 605.29C533.818 604.996 534.286 604.689 534.557 604.368C534.834 604.042 534.972 603.663 534.972 603.231C534.972 602.761 534.801 602.39 534.458 602.119C534.12 601.842 533.669 601.704 533.104 601.704ZM540.301 603.995C540.301 604.819 540.382 605.433 540.542 605.837C540.702 606.241 540.965 606.443 541.331 606.443C542.061 606.443 542.426 605.627 542.426 603.995C542.426 602.362 542.061 601.546 541.331 601.546C540.965 601.546 540.702 601.748 540.542 602.152C540.382 602.556 540.301 603.17 540.301 603.995ZM544.037 603.978C544.037 605.251 543.807 606.208 543.348 606.85C542.894 607.486 542.222 607.805 541.331 607.805C540.489 607.805 539.836 607.475 539.372 606.817C538.912 606.153 538.683 605.207 538.683 603.978C538.683 601.449 539.565 600.185 541.331 600.185C542.199 600.185 542.866 600.514 543.331 601.172C543.801 601.825 544.037 602.761 544.037 603.978ZM548.204 608.842C548.204 609.667 548.284 610.284 548.444 610.693C548.61 611.103 548.876 611.308 549.241 611.308C549.966 611.308 550.329 610.486 550.329 608.842C550.329 607.221 549.966 606.41 549.241 606.41C548.876 606.41 548.61 606.609 548.444 607.008C548.284 607.406 548.204 608.018 548.204 608.842ZM551.939 608.842C551.939 610.115 551.709 611.07 551.25 611.706C550.791 612.342 550.121 612.661 549.241 612.661C548.4 612.661 547.747 612.334 547.282 611.681C546.817 611.023 546.585 610.076 546.585 608.842C546.585 606.313 547.47 605.049 549.241 605.049C550.093 605.049 550.755 605.375 551.225 606.028C551.701 606.681 551.939 607.619 551.939 608.842ZM549.474 600.359L542.742 612.495H541.131L547.863 600.359H549.474Z" fill="#211915"/>
<path d="M208.213 138.503V74.3543H505.61" stroke="#020202" stroke-width="0.5" stroke-miterlimit="10"/>
<path d="M505.511 76.4151C506.648 76.4151 507.57 75.4925 507.57 74.3543C507.57 73.2161 506.648 72.2935 505.511 72.2935C504.373 72.2935 503.451 73.2161 503.451 74.3543C503.451 75.4925 504.373 76.4151 505.511 76.4151Z" fill="#020202"/>
<path d="M304.639 130.654V106.231H505.609" stroke="#020202" stroke-width="0.5" stroke-miterlimit="10"/>
<path d="M505.511 108.292C506.648 108.292 507.57 107.37 507.57 106.231C507.57 105.093 506.648 104.171 505.511 104.171C504.373 104.171 503.451 105.093 503.451 106.231C503.451 107.37 504.373 108.292 505.511 108.292Z" fill="#020202"/>
<path d="M142.734 410.061V611.661H506.333" stroke="#020202" stroke-width="0.5" stroke-miterlimit="10"/>
<path d="M506.223 613.722C507.36 613.722 508.282 612.799 508.282 611.661C508.282 610.523 507.36 609.6 506.223 609.6C505.085 609.6 504.163 610.523 504.163 611.661C504.163 612.799 505.085 613.722 506.223 613.722Z" fill="#020202"/>
<path d="M224.054 460.924V540.025H504.886" stroke="#020202" stroke-width="0.5" stroke-miterlimit="10"/>
<path d="M504.788 542.086C505.926 542.086 506.848 541.163 506.848 540.025C506.848 538.887 505.926 537.964 504.788 537.964C503.651 537.964 502.729 538.887 502.729 540.025C502.729 541.163 503.651 542.086 504.788 542.086Z" fill="#020202"/>
<path d="M350.694 446.038V455.761H506.333" stroke="#020202" stroke-width="0.5" stroke-miterlimit="10"/>
<path d="M506.223 457.822C507.36 457.822 508.282 456.899 508.282 455.761C508.282 454.623 507.36 453.7 506.223 453.7C505.085 453.7 504.163 454.623 504.163 455.761C504.163 456.899 505.085 457.822 506.223 457.822Z" fill="#020202"/>
<path d="M314.038 460.475V494.851H506.332" stroke="#020202" stroke-width="0.5" stroke-miterlimit="10"/>
<path d="M506.223 496.912C507.36 496.912 508.282 495.989 508.282 494.851C508.282 493.713 507.36 492.79 506.223 492.79C505.085 492.79 504.163 493.713 504.163 494.851C504.163 495.989 505.085 496.912 506.223 496.912Z" fill="#020202"/>
<path d="M375.146 164.143H506.332" stroke="#020202" stroke-width="0.5" stroke-miterlimit="10"/>
<path d="M506.223 166.204C507.36 166.204 508.282 165.281 508.282 164.143C508.282 163.005 507.36 162.082 506.223 162.082C505.085 162.082 504.163 163.005 504.163 164.143C504.163 165.281 505.085 166.204 506.223 166.204Z" fill="#020202"/>
<path d="M434.522 333.35H506.333" stroke="#020202" stroke-width="0.5" stroke-miterlimit="10"/>
<path d="M506.223 335.411C507.36 335.411 508.282 334.488 508.282 333.35C508.282 332.212 507.36 331.289 506.223 331.289C505.085 331.289 504.163 332.212 504.163 333.35C504.163 334.488 505.085 335.411 506.223 335.411Z" fill="#020202"/>
<path d="M146.262 412.725V578.633H506.332" stroke="#020202" stroke-width="0.5" stroke-miterlimit="10"/>
<path d="M506.223 580.694C507.36 580.694 508.282 579.771 508.282 578.633C508.282 577.495 507.36 576.572 506.223 576.572C505.085 576.572 504.163 577.495 504.163 578.633C504.163 579.771 505.085 580.694 506.223 580.694Z" fill="#020202"/>
<path d="M181.461 315.714L193.962 287.5H178.199V279.357H204.471V285.159L191.646 315.714H181.461ZM211.344 315.714L223.845 287.5H208.082V279.357H234.354V285.159L221.529 315.714H211.344ZM238.164 311.581C238.164 310.053 238.612 308.875 239.509 308.044C240.422 307.214 241.742 306.799 243.468 306.799C245.112 306.799 246.374 307.214 247.253 308.044C248.133 308.875 248.573 310.053 248.573 311.581C248.573 313.075 248.117 314.245 247.204 315.092C246.307 315.922 245.062 316.337 243.468 316.337C241.825 316.337 240.53 315.922 239.583 315.092C238.637 314.262 238.164 313.091 238.164 311.581ZM278.854 297.561C278.854 304.002 277.775 308.725 275.617 311.73C273.459 314.718 270.155 316.212 265.706 316.212C261.356 316.212 258.078 314.652 255.87 311.531C253.662 308.393 252.558 303.736 252.558 297.561C252.558 291.086 253.637 286.338 255.795 283.316C257.953 280.295 261.257 278.784 265.706 278.784C270.039 278.784 273.31 280.361 275.518 283.516C277.742 286.653 278.854 291.335 278.854 297.561ZM262.344 297.561C262.344 301.678 262.602 304.508 263.116 306.052C263.631 307.596 264.494 308.368 265.706 308.368C266.935 308.368 267.798 307.571 268.296 305.978C268.811 304.384 269.068 301.578 269.068 297.561C269.068 293.526 268.811 290.704 268.296 289.094C267.781 287.467 266.918 286.653 265.706 286.653C264.494 286.653 263.631 287.434 263.116 288.994C262.602 290.555 262.344 293.41 262.344 297.561ZM308.862 295.967C308.862 303.089 307.326 308.244 304.255 311.431C301.184 314.619 296.27 316.212 289.513 316.212C287.288 316.212 285.595 316.129 284.433 315.963V308.169C285.86 308.435 287.288 308.567 288.716 308.567C292.235 308.567 294.95 307.845 296.859 306.401C298.768 304.94 299.806 302.641 299.972 299.503H299.673C299.025 300.698 298.386 301.562 297.755 302.093C297.125 302.624 296.353 303.031 295.439 303.313C294.526 303.595 293.389 303.736 292.028 303.736C288.874 303.736 286.408 302.682 284.632 300.574C282.855 298.465 281.967 295.56 281.967 291.858C281.967 287.824 283.113 284.661 285.404 282.37C287.711 280.079 290.866 278.934 294.867 278.934C299.316 278.934 302.761 280.411 305.201 283.366C307.642 286.321 308.862 290.522 308.862 295.967ZM295.141 286.803C294.062 286.803 293.182 287.193 292.501 287.973C291.837 288.753 291.505 290.007 291.505 291.733C291.505 293.095 291.795 294.182 292.376 294.996C292.958 295.793 293.846 296.191 295.041 296.191C296.12 296.191 297.058 295.801 297.855 295.021C298.652 294.24 299.05 293.302 299.05 292.207C299.05 290.729 298.677 289.459 297.93 288.397C297.199 287.334 296.27 286.803 295.141 286.803ZM338.62 297.561C338.62 304.002 337.541 308.725 335.383 311.73C333.225 314.718 329.921 316.212 325.472 316.212C321.122 316.212 317.843 314.652 315.635 311.531C313.427 308.393 312.323 303.736 312.323 297.561C312.323 291.086 313.402 286.338 315.561 283.316C317.719 280.295 321.022 278.784 325.472 278.784C329.805 278.784 333.075 280.361 335.283 283.516C337.508 286.653 338.62 291.335 338.62 297.561ZM322.11 297.561C322.11 301.678 322.367 304.508 322.882 306.052C323.396 307.596 324.26 308.368 325.472 308.368C326.7 308.368 327.563 307.571 328.062 305.978C328.576 304.384 328.833 301.578 328.833 297.561C328.833 293.526 328.576 290.704 328.062 289.094C327.547 287.467 326.684 286.653 325.472 286.653C324.26 286.653 323.396 287.434 322.882 288.994C322.367 290.555 322.11 293.41 322.11 297.561Z" fill="#211915"/>
<path d="M173.474 380.157L139.514 406.707C141.924 409.557 144.443 412.308 147.029 414.994L178.229 385.309C177.309 384.367 176.41 383.402 175.512 382.426C174.822 381.681 174.143 380.925 173.474 380.157Z" fill="#AE5A40"/>
<path d="M270.733 170.15V127.059H270.108V170.161L270.733 170.15Z" fill="#004756"/>
<path d="M142.373 296.935C142.373 263.304 155.724 231.05 179.491 207.269C203.257 183.488 235.49 170.128 269.101 170.128H270.109V127.037H269.101C236.719 127.041 205.013 136.309 177.722 153.75C150.431 171.19 128.693 196.076 115.071 225.471C101.449 254.867 96.5118 287.547 100.84 319.659C105.169 351.77 118.584 381.973 139.503 406.707L173.463 380.157C153.373 357.097 142.326 327.527 142.373 296.935V296.935Z" fill="#004756"/>
<path d="M336.694 189.662L362.843 155.264C335.525 137.119 303.521 127.319 270.733 127.059V170.15C294.102 170.415 316.937 177.17 336.694 189.662V189.662Z" fill="#73B3C0"/>
<path d="M269.101 423.753C252.142 423.779 235.351 420.389 219.73 413.784C204.108 407.179 189.975 397.495 178.174 385.309L146.974 414.994C168.775 437.551 196.387 453.634 226.755 461.463C257.124 469.293 289.065 468.564 319.045 459.357L302.733 419.225C291.776 422.238 280.463 423.76 269.101 423.753V423.753Z" fill="#00646E"/>
<path d="M302.732 419.225L319.088 459.357C342.706 452.086 364.451 439.74 382.803 423.183L356.686 388.598C341.522 403.132 322.98 413.658 302.732 419.225V419.225Z" fill="#B77E4A"/>
<path d="M352.688 201.665L382.584 170.577C376.395 164.986 369.805 159.856 362.865 155.231L336.693 189.662C340.451 192.041 352.688 201.665 352.688 201.665Z" fill="#474747"/>
<path d="M393.966 272.293L436.789 270.1L393.955 272.238L393.966 272.293Z" fill="#5992B8"/>
<path d="M436.79 270.078C430.656 231.674 411.519 196.545 382.584 170.578L352.71 201.654L353.061 201.95C375.321 221.682 389.815 241.336 393.934 272.293V272.216L436.79 270.078Z" fill="#E4C55A"/>
<path d="M434.534 266.373L393.452 268.566C394.044 272.95 395.566 286.006 395.763 292.495L395.84 296.88C395.894 325.477 386.237 353.245 368.452 375.63C364.845 380.181 360.932 384.481 356.741 388.499L382.847 423.084C390.098 416.523 396.779 409.357 402.818 401.665C417.224 383.239 427.679 362.039 433.532 339.39C439.384 316.74 440.508 293.127 436.834 270.024L434.534 266.373Z" fill="#E4C55A"/>
<path d="M178.228 385.309L147.028 414.994L143.917 411.629L175.829 382.755L178.228 385.309Z" fill="#643623"/>
<path d="M302.743 419.225L299.512 420.069L312.209 461.319L315.627 460.387C316.492 460.146 319.088 459.357 319.088 459.357L302.743 419.225Z" fill="#A73839"/>
<path d="M47.0845 659.688C45.9077 659.688 44.9775 660.081 44.2939 660.867C43.6152 661.648 43.2759 662.72 43.2759 664.082C43.2759 665.484 43.603 666.568 44.2573 667.334C44.9165 668.096 45.854 668.477 47.0698 668.477C47.8169 668.477 48.6689 668.343 49.626 668.074V669.165C48.8838 669.444 47.9683 669.583 46.8794 669.583C45.3022 669.583 44.084 669.104 43.2246 668.147C42.3701 667.19 41.9429 665.831 41.9429 664.068C41.9429 662.964 42.1479 661.997 42.5581 661.167C42.9731 660.337 43.5688 659.698 44.3452 659.248C45.1265 658.799 46.0444 658.575 47.0991 658.575C48.2222 658.575 49.2036 658.78 50.0435 659.19L49.5161 660.259C48.7056 659.878 47.895 659.688 47.0845 659.688ZM58.6934 669.436L57.3604 666.031H53.0684L51.75 669.436H50.4902L54.7236 658.685H55.771L59.9824 669.436H58.6934ZM56.9722 664.91L55.7271 661.592C55.5659 661.172 55.3999 660.657 55.229 660.047C55.1216 660.516 54.9678 661.031 54.7676 661.592L53.5078 664.91H56.9722ZM62.6997 664.983V669.436H61.4546V658.728H64.3916C65.7051 658.728 66.6743 658.98 67.2993 659.483C67.9292 659.986 68.2441 660.743 68.2441 661.753C68.2441 663.169 67.5264 664.126 66.0908 664.624L68.9985 669.436H67.5264L64.9336 664.983H62.6997ZM62.6997 663.914H64.4062C65.2852 663.914 65.9297 663.741 66.3398 663.394C66.75 663.042 66.9551 662.518 66.9551 661.819C66.9551 661.111 66.7451 660.601 66.3252 660.289C65.9102 659.976 65.2412 659.82 64.3184 659.82H62.6997V663.914ZM70.7271 658.728H73.752C75.1729 658.728 76.2007 658.941 76.8354 659.366C77.4702 659.79 77.7876 660.462 77.7876 661.38C77.7876 662.015 77.6094 662.539 77.2529 662.955C76.9014 663.365 76.3862 663.631 75.7075 663.753V663.826C77.3335 664.104 78.1465 664.959 78.1465 666.39C78.1465 667.347 77.8218 668.094 77.1724 668.631C76.5278 669.168 75.6245 669.436 74.4624 669.436H70.7271V658.728ZM71.9722 663.313H74.0229C74.9019 663.313 75.5342 663.177 75.9199 662.903C76.3057 662.625 76.4985 662.159 76.4985 661.504C76.4985 660.904 76.2837 660.472 75.854 660.208C75.4243 659.939 74.7407 659.805 73.8032 659.805H71.9722V663.313ZM71.9722 664.368V668.374H74.2061C75.0703 668.374 75.7197 668.208 76.1543 667.876C76.5938 667.539 76.8135 667.015 76.8135 666.302C76.8135 665.638 76.5889 665.149 76.1396 664.837C75.6953 664.524 75.0166 664.368 74.1035 664.368H71.9722ZM89.748 664.068C89.748 665.782 89.3135 667.129 88.4443 668.111C87.5801 669.092 86.3765 669.583 84.8335 669.583C83.2563 669.583 82.0381 669.102 81.1787 668.14C80.3242 667.173 79.897 665.811 79.897 664.053C79.897 662.31 80.3267 660.96 81.186 660.003C82.0454 659.041 83.2661 658.56 84.8481 658.56C86.3862 658.56 87.5874 659.048 88.4517 660.025C89.3159 661.001 89.748 662.349 89.748 664.068ZM81.2153 664.068C81.2153 665.518 81.5229 666.619 82.1382 667.371C82.7583 668.118 83.6567 668.492 84.8335 668.492C86.02 668.492 86.916 668.118 87.5215 667.371C88.127 666.624 88.4297 665.523 88.4297 664.068C88.4297 662.627 88.127 661.536 87.5215 660.794C86.9209 660.047 86.0298 659.673 84.8481 659.673C83.6616 659.673 82.7583 660.049 82.1382 660.801C81.5229 661.548 81.2153 662.637 81.2153 664.068ZM83.8081 657.688C84.0425 657.386 84.2939 657.019 84.5625 656.59C84.8359 656.16 85.0508 655.787 85.207 655.469H86.6865V655.623C86.4717 655.94 86.1519 656.331 85.7271 656.795C85.3022 657.259 84.9336 657.618 84.6211 657.872H83.8081V657.688ZM100.507 669.436H99.0864L93.2344 660.45H93.1758C93.2539 661.504 93.293 662.471 93.293 663.35V669.436H92.1431V658.728H93.5493L99.3867 667.679H99.4453C99.4355 667.547 99.4136 667.124 99.3794 666.412C99.3452 665.694 99.333 665.181 99.3428 664.873V658.728H100.507V669.436Z" fill="#211915"/>
<path d="M254.5 669.436H248.531V658.728H254.5V659.834H249.776V663.284H254.214V664.383H249.776V668.323H254.5V669.436ZM266.175 664.068C266.175 665.782 265.74 667.129 264.871 668.111C264.007 669.092 262.803 669.583 261.26 669.583C259.683 669.583 258.465 669.102 257.605 668.14C256.751 667.173 256.324 665.811 256.324 664.053C256.324 662.31 256.753 660.96 257.613 660.003C258.472 659.041 259.693 658.56 261.275 658.56C262.813 658.56 264.014 659.048 264.878 660.025C265.743 661.001 266.175 662.349 266.175 664.068ZM257.642 664.068C257.642 665.518 257.95 666.619 258.565 667.371C259.185 668.118 260.083 668.492 261.26 668.492C262.447 668.492 263.343 668.118 263.948 667.371C264.554 666.624 264.856 665.523 264.856 664.068C264.856 662.627 264.554 661.536 263.948 660.794C263.348 660.047 262.457 659.673 261.275 659.673C260.088 659.673 259.185 660.049 258.565 660.801C257.95 661.548 257.642 662.637 257.642 664.068ZM260.235 657.688C260.469 657.386 260.721 657.019 260.989 656.59C261.263 656.16 261.478 655.787 261.634 655.469H263.113V655.623C262.898 655.94 262.579 656.331 262.154 656.795C261.729 657.259 261.36 657.618 261.048 657.872H260.235V657.688ZM268.57 669.436V658.728H269.815V668.309H274.539V669.436H268.57ZM276.363 669.436V658.728H277.608V669.436H276.363ZM285.137 659.688C283.96 659.688 283.03 660.081 282.347 660.867C281.668 661.648 281.329 662.72 281.329 664.082C281.329 665.484 281.656 666.568 282.31 667.334C282.969 668.096 283.907 668.477 285.123 668.477C285.87 668.477 286.722 668.343 287.679 668.074V669.165C286.937 669.444 286.021 669.583 284.932 669.583C283.355 669.583 282.137 669.104 281.277 668.147C280.423 667.19 279.996 665.831 279.996 664.068C279.996 662.964 280.201 661.997 280.611 661.167C281.026 660.337 281.622 659.698 282.398 659.248C283.179 658.799 284.097 658.575 285.152 658.575C286.275 658.575 287.256 658.78 288.096 659.19L287.569 660.259C286.758 659.878 285.948 659.688 285.137 659.688ZM296.746 669.436L295.413 666.031H291.121L289.803 669.436H288.543L292.776 658.685H293.824L298.035 669.436H296.746ZM295.025 664.91L293.78 661.592C293.619 661.172 293.453 660.657 293.282 660.047C293.174 660.516 293.021 661.031 292.82 661.592L291.561 664.91H295.025Z" fill="#211915"/>
<path d="M252.055 710.414H255.695V715.622C255.128 715.802 254.552 715.939 253.966 716.032C253.38 716.125 252.702 716.171 251.93 716.171C250.309 716.171 249.047 715.69 248.144 714.728C247.24 713.761 246.789 712.409 246.789 710.67C246.789 709.557 247.011 708.583 247.455 707.748C247.904 706.908 248.549 706.269 249.389 705.829C250.229 705.385 251.212 705.163 252.34 705.163C253.483 705.163 254.547 705.373 255.534 705.792L255.05 706.891C254.083 706.481 253.153 706.276 252.26 706.276C250.956 706.276 249.938 706.664 249.206 707.44C248.473 708.217 248.107 709.293 248.107 710.67C248.107 712.116 248.458 713.212 249.162 713.959C249.87 714.706 250.907 715.08 252.274 715.08C253.017 715.08 253.742 714.994 254.45 714.823V711.527H252.055V710.414ZM264.242 716.024H258.273V705.316H264.242V706.422H259.518V709.872H263.957V710.971H259.518V714.911H264.242V716.024ZM275.917 710.656C275.917 712.37 275.482 713.717 274.613 714.699C273.749 715.68 272.545 716.171 271.002 716.171C269.425 716.171 268.207 715.69 267.348 714.728C266.493 713.761 266.066 712.399 266.066 710.641C266.066 708.898 266.496 707.548 267.355 706.591C268.214 705.629 269.435 705.148 271.017 705.148C272.555 705.148 273.756 705.636 274.621 706.613C275.485 707.589 275.917 708.937 275.917 710.656ZM267.384 710.656C267.384 712.106 267.692 713.207 268.307 713.959C268.927 714.706 269.826 715.08 271.002 715.08C272.189 715.08 273.085 714.706 273.69 713.959C274.296 713.212 274.599 712.111 274.599 710.656C274.599 709.215 274.296 708.124 273.69 707.382C273.09 706.635 272.199 706.261 271.017 706.261C269.831 706.261 268.927 706.637 268.307 707.389C267.692 708.136 267.384 709.225 267.384 710.656ZM281.608 716.024H280.363V706.422H276.972V705.316H284.999V706.422H281.608V716.024ZM292.587 716.024H286.618V705.316H292.587V706.422H287.863V709.872H292.301V710.971H287.863V714.911H292.587V716.024ZM288.485 704.276C288.72 703.974 288.971 703.607 289.24 703.178C289.513 702.748 289.728 702.375 289.884 702.057H291.364V702.211C291.149 702.528 290.829 702.919 290.404 703.383C289.979 703.847 289.611 704.206 289.298 704.459H288.485V704.276ZM296.212 711.571V716.024H294.967V705.316H297.904C299.218 705.316 300.187 705.568 300.812 706.071C301.442 706.574 301.757 707.331 301.757 708.341C301.757 709.757 301.039 710.714 299.604 711.212L302.511 716.024H301.039L298.446 711.571H296.212ZM296.212 710.502H297.919C298.798 710.502 299.442 710.329 299.853 709.982C300.263 709.63 300.468 709.105 300.468 708.407C300.468 707.699 300.258 707.189 299.838 706.876C299.423 706.564 298.754 706.408 297.831 706.408H296.212V710.502ZM308.979 716.024L305.346 706.532H305.287C305.355 707.284 305.39 708.178 305.39 709.213V716.024H304.24V705.316H306.115L309.506 714.149H309.564L312.985 705.316H314.845V716.024H313.6V709.125C313.6 708.334 313.634 707.475 313.703 706.547H313.644L309.982 716.024H308.979ZM317.79 716.024V705.316H319.035V716.024H317.79ZM326.564 706.276C325.387 706.276 324.457 706.669 323.773 707.455C323.095 708.236 322.755 709.308 322.755 710.67C322.755 712.072 323.083 713.156 323.737 713.922C324.396 714.684 325.333 715.065 326.549 715.065C327.296 715.065 328.148 714.931 329.105 714.662V715.753C328.363 716.032 327.448 716.171 326.359 716.171C324.782 716.171 323.563 715.692 322.704 714.735C321.85 713.778 321.422 712.418 321.422 710.656C321.422 709.552 321.627 708.585 322.038 707.755C322.453 706.925 323.048 706.286 323.825 705.836C324.606 705.387 325.524 705.163 326.579 705.163C327.702 705.163 328.683 705.368 329.523 705.778L328.996 706.847C328.185 706.466 327.375 706.276 326.564 706.276ZM338.173 716.024L336.84 712.619H332.548L331.229 716.024H329.97L334.203 705.272H335.25L339.462 716.024H338.173ZM336.452 711.498L335.207 708.18C335.045 707.76 334.879 707.245 334.708 706.635C334.601 707.104 334.447 707.619 334.247 708.18L332.987 711.498H336.452Z" fill="#211915"/>
<path d="M252.055 756.574H255.695V761.782C255.128 761.963 254.552 762.099 253.966 762.192C253.38 762.285 252.702 762.331 251.93 762.331C250.309 762.331 249.047 761.85 248.144 760.888C247.24 759.922 246.789 758.569 246.789 756.831C246.789 755.718 247.011 754.743 247.455 753.908C247.904 753.069 248.549 752.429 249.389 751.99C250.229 751.545 251.212 751.323 252.34 751.323C253.483 751.323 254.547 751.533 255.534 751.953L255.05 753.052C254.083 752.641 253.153 752.436 252.26 752.436C250.956 752.436 249.938 752.824 249.206 753.601C248.473 754.377 248.107 755.454 248.107 756.831C248.107 758.276 248.458 759.372 249.162 760.119C249.87 760.866 250.907 761.24 252.274 761.24C253.017 761.24 253.742 761.155 254.45 760.984V757.688H252.055V756.574ZM265.004 762.185L263.671 758.779H259.379L258.061 762.185H256.801L261.034 751.433H262.082L266.293 762.185H265.004ZM263.283 757.658L262.038 754.341C261.876 753.921 261.71 753.406 261.54 752.795C261.432 753.264 261.278 753.779 261.078 754.341L259.818 757.658H263.283ZM273.808 759.336C273.808 760.278 273.466 761.013 272.782 761.54C272.099 762.068 271.171 762.331 269.999 762.331C268.729 762.331 267.753 762.168 267.069 761.841V760.639C267.509 760.825 267.987 760.971 268.505 761.079C269.022 761.186 269.535 761.24 270.043 761.24C270.873 761.24 271.498 761.084 271.918 760.771C272.338 760.454 272.548 760.014 272.548 759.453C272.548 759.082 272.472 758.779 272.321 758.545C272.174 758.305 271.925 758.086 271.574 757.885C271.227 757.685 270.697 757.458 269.984 757.204C268.988 756.848 268.275 756.426 267.846 755.937C267.421 755.449 267.208 754.812 267.208 754.026C267.208 753.2 267.519 752.544 268.139 752.055C268.759 751.567 269.579 751.323 270.6 751.323C271.664 751.323 272.643 751.518 273.537 751.909L273.148 752.993C272.265 752.622 271.405 752.436 270.57 752.436C269.911 752.436 269.396 752.578 269.025 752.861C268.654 753.144 268.468 753.537 268.468 754.04C268.468 754.411 268.537 754.717 268.673 754.956C268.81 755.19 269.04 755.407 269.362 755.608C269.689 755.803 270.187 756.02 270.856 756.26C271.979 756.66 272.75 757.09 273.17 757.549C273.595 758.008 273.808 758.603 273.808 759.336ZM288.258 762.185H286.837L280.985 753.198H280.927C281.005 754.253 281.044 755.219 281.044 756.098V762.185H279.894V751.477H281.3L287.138 760.427H287.196C287.187 760.295 287.165 759.873 287.13 759.16C287.096 758.442 287.084 757.929 287.094 757.622V751.477H288.258V762.185ZM297.934 762.185L296.601 758.779H292.309L290.99 762.185H289.73L293.964 751.433H295.011L299.223 762.185H297.934ZM296.212 757.658L294.967 754.341C294.806 753.921 294.64 753.406 294.469 752.795C294.362 753.264 294.208 753.779 294.008 754.341L292.748 757.658H296.212ZM303.991 762.185H302.746V752.583H299.354V751.477H307.382V752.583H303.991V762.185ZM317.086 751.477V758.406C317.086 759.626 316.718 760.586 315.98 761.284C315.243 761.982 314.23 762.331 312.941 762.331C311.652 762.331 310.653 761.98 309.945 761.277C309.242 760.573 308.891 759.607 308.891 758.376V751.477H310.136V758.464C310.136 759.358 310.38 760.044 310.868 760.522C311.356 761.001 312.074 761.24 313.021 761.24C313.925 761.24 314.621 761.001 315.109 760.522C315.597 760.039 315.841 759.348 315.841 758.449V751.477H317.086ZM321.173 757.732V762.185H319.928V751.477H322.865C324.179 751.477 325.148 751.728 325.773 752.231C326.403 752.734 326.718 753.491 326.718 754.502C326.718 755.918 326 756.875 324.564 757.373L327.472 762.185H326L323.407 757.732H321.173ZM321.173 756.662H322.88C323.759 756.662 324.403 756.489 324.813 756.142C325.224 755.791 325.429 755.266 325.429 754.568C325.429 753.86 325.219 753.349 324.799 753.037C324.384 752.724 323.715 752.568 322.792 752.568H321.173V756.662ZM335.932 762.185L334.599 758.779H330.307L328.988 762.185H327.729L331.962 751.433H333.009L337.221 762.185H335.932ZM334.21 757.658L332.965 754.341C332.804 753.921 332.638 753.406 332.467 752.795C332.36 753.264 332.206 753.779 332.006 754.341L330.746 757.658H334.21ZM338.693 762.185V751.477H339.938V761.057H344.662V762.185H338.693Z" fill="#211915"/>
<path d="M440.811 659.688C439.634 659.688 438.704 660.081 438.021 660.867C437.342 661.648 437.002 662.72 437.002 664.082C437.002 665.484 437.33 666.568 437.984 667.334C438.643 668.096 439.581 668.477 440.796 668.477C441.543 668.477 442.396 668.343 443.353 668.074V669.165C442.61 669.444 441.695 669.583 440.606 669.583C439.029 669.583 437.811 669.104 436.951 668.147C436.097 667.19 435.669 665.831 435.669 664.068C435.669 662.964 435.875 661.997 436.285 661.167C436.7 660.337 437.295 659.698 438.072 659.248C438.853 658.799 439.771 658.575 440.826 658.575C441.949 658.575 442.93 658.78 443.77 659.19L443.243 660.259C442.432 659.878 441.622 659.688 440.811 659.688ZM454.983 664.068C454.983 665.782 454.549 667.129 453.68 668.111C452.815 669.092 451.612 669.583 450.069 669.583C448.492 669.583 447.273 669.102 446.414 668.14C445.56 667.173 445.132 665.811 445.132 664.053C445.132 662.31 445.562 660.96 446.421 660.003C447.281 659.041 448.501 658.56 450.083 658.56C451.622 658.56 452.823 659.048 453.687 660.025C454.551 661.001 454.983 662.349 454.983 664.068ZM446.451 664.068C446.451 665.518 446.758 666.619 447.374 667.371C447.994 668.118 448.892 668.492 450.069 668.492C451.255 668.492 452.151 668.118 452.757 667.371C453.362 666.624 453.665 665.523 453.665 664.068C453.665 662.627 453.362 661.536 452.757 660.794C452.156 660.047 451.265 659.673 450.083 659.673C448.897 659.673 447.994 660.049 447.374 660.801C446.758 661.548 446.451 662.637 446.451 664.068ZM462.088 663.826H465.728V669.034C465.162 669.214 464.585 669.351 464 669.444C463.414 669.537 462.735 669.583 461.963 669.583C460.342 669.583 459.08 669.102 458.177 668.14C457.273 667.173 456.822 665.821 456.822 664.082C456.822 662.969 457.044 661.995 457.488 661.16C457.938 660.32 458.582 659.681 459.422 659.241C460.262 658.797 461.246 658.575 462.374 658.575C463.516 658.575 464.581 658.785 465.567 659.205L465.083 660.303C464.117 659.893 463.187 659.688 462.293 659.688C460.989 659.688 459.971 660.076 459.239 660.852C458.506 661.629 458.14 662.706 458.14 664.082C458.14 665.528 458.492 666.624 459.195 667.371C459.903 668.118 460.94 668.492 462.308 668.492C463.05 668.492 463.775 668.406 464.483 668.235V664.939H462.088V663.826ZM474.275 669.436H468.306V658.728H474.275V659.834H469.551V663.284H473.99V664.383H469.551V668.323H474.275V669.436ZM485.02 669.436H483.599L477.747 660.45H477.688C477.767 661.504 477.806 662.471 477.806 663.35V669.436H476.656V658.728H478.062L483.899 667.679H483.958C483.948 667.547 483.926 667.124 483.892 666.412C483.858 665.694 483.846 665.181 483.855 664.873V658.728H485.02V669.436ZM493.934 669.436H487.964V658.728H493.934V659.834H489.209V663.284H493.648V664.383H489.209V668.323H493.934V669.436ZM497.559 664.983V669.436H496.314V658.728H499.251C500.564 658.728 501.534 658.98 502.159 659.483C502.789 659.986 503.104 660.743 503.104 661.753C503.104 663.169 502.386 664.126 500.95 664.624L503.858 669.436H502.386L499.793 664.983H497.559ZM497.559 663.914H499.266C500.145 663.914 500.789 663.741 501.199 663.394C501.609 663.042 501.814 662.518 501.814 661.819C501.814 661.111 501.604 660.601 501.185 660.289C500.77 659.976 500.101 659.82 499.178 659.82H497.559V663.914ZM512.317 669.436L510.984 666.031H506.692L505.374 669.436H504.114L508.348 658.685H509.395L513.606 669.436H512.317ZM510.596 664.91L509.351 661.592C509.19 661.172 509.024 660.657 508.853 660.047C508.746 660.516 508.592 661.031 508.392 661.592L507.132 664.91H510.596ZM519.664 659.688C518.487 659.688 517.557 660.081 516.873 660.867C516.194 661.648 515.855 662.72 515.855 664.082C515.855 665.484 516.182 666.568 516.836 667.334C517.496 668.096 518.433 668.477 519.649 668.477C520.396 668.477 521.248 668.343 522.205 668.074V669.165C521.463 669.444 520.547 669.583 519.458 669.583C517.881 669.583 516.663 669.104 515.804 668.147C514.949 667.19 514.522 665.831 514.522 664.068C514.522 662.964 514.727 661.997 515.137 661.167C515.552 660.337 516.148 659.698 516.924 659.248C517.706 658.799 518.624 658.575 519.678 658.575C520.801 658.575 521.783 658.78 522.623 659.19L522.095 660.259C521.285 659.878 520.474 659.688 519.664 659.688ZM524.542 669.436V658.728H525.787V669.436H524.542ZM538.025 664.068C538.025 665.782 537.591 667.129 536.722 668.111C535.857 669.092 534.654 669.583 533.111 669.583C531.534 669.583 530.315 669.102 529.456 668.14C528.602 667.173 528.174 665.811 528.174 664.053C528.174 662.31 528.604 660.96 529.463 660.003C530.323 659.041 531.543 658.56 533.125 658.56C534.664 658.56 535.865 659.048 536.729 660.025C537.593 661.001 538.025 662.349 538.025 664.068ZM529.493 664.068C529.493 665.518 529.8 666.619 530.416 667.371C531.036 668.118 531.934 668.492 533.111 668.492C534.297 668.492 535.193 668.118 535.799 667.371C536.404 666.624 536.707 665.523 536.707 664.068C536.707 662.627 536.404 661.536 535.799 660.794C535.198 660.047 534.307 659.673 533.125 659.673C531.939 659.673 531.036 660.049 530.416 660.801C529.8 661.548 529.493 662.637 529.493 664.068ZM532.085 657.688C532.32 657.386 532.571 657.019 532.84 656.59C533.113 656.16 533.328 655.787 533.484 655.469H534.964V655.623C534.749 655.94 534.429 656.331 534.004 656.795C533.58 657.259 533.211 657.618 532.898 657.872H532.085V657.688ZM548.785 669.436H547.364L541.512 660.45H541.453C541.531 661.504 541.57 662.471 541.57 663.35V669.436H540.42V658.728H541.827L547.664 667.679H547.723C547.713 667.547 547.691 667.124 547.657 666.412C547.623 665.694 547.61 665.181 547.62 664.873V658.728H548.785V669.436Z" fill="#211915"/>
<path d="M443.016 708.437C443.016 709.521 442.645 710.355 441.902 710.941C441.165 711.522 440.108 711.813 438.731 711.813H437.471V716.024H436.226V705.316H439.002C441.678 705.316 443.016 706.356 443.016 708.437ZM437.471 710.744H438.592C439.695 710.744 440.494 710.565 440.987 710.209C441.48 709.853 441.727 709.281 441.727 708.495C441.727 707.787 441.495 707.26 441.031 706.913C440.567 706.566 439.844 706.393 438.863 706.393H437.471V710.744ZM451.233 716.024H445.264V705.316H451.233V706.422H446.509V709.872H450.948V710.971H446.509V714.911H451.233V716.024ZM456.91 716.024H455.665V706.422H452.273V705.316H460.301V706.422H456.91V716.024ZM463.165 711.571V716.024H461.919V705.316H464.856C466.17 705.316 467.139 705.568 467.764 706.071C468.394 706.574 468.709 707.331 468.709 708.341C468.709 709.757 467.991 710.714 466.556 711.212L469.463 716.024H467.991L465.398 711.571H463.165ZM463.165 710.502H464.871C465.75 710.502 466.395 710.329 466.805 709.982C467.215 709.63 467.42 709.105 467.42 708.407C467.42 707.699 467.21 707.189 466.79 706.876C466.375 706.564 465.706 706.408 464.783 706.408H463.165V710.502ZM480.486 710.656C480.486 712.37 480.052 713.717 479.183 714.699C478.318 715.68 477.115 716.171 475.572 716.171C473.995 716.171 472.776 715.69 471.917 714.728C471.062 713.761 470.635 712.399 470.635 710.641C470.635 708.898 471.065 707.548 471.924 706.591C472.784 705.629 474.004 705.148 475.586 705.148C477.125 705.148 478.326 705.636 479.19 706.613C480.054 707.589 480.486 708.937 480.486 710.656ZM471.954 710.656C471.954 712.106 472.261 713.207 472.876 713.959C473.497 714.706 474.395 715.08 475.572 715.08C476.758 715.08 477.654 714.706 478.26 713.959C478.865 713.212 479.168 712.111 479.168 710.656C479.168 709.215 478.865 708.124 478.26 707.382C477.659 706.635 476.768 706.261 475.586 706.261C474.4 706.261 473.497 706.637 472.876 707.389C472.261 708.136 471.954 709.225 471.954 710.656ZM474.546 704.276C474.781 703.974 475.032 703.607 475.301 703.178C475.574 702.748 475.789 702.375 475.945 702.057H477.425V702.211C477.21 702.528 476.89 702.919 476.465 703.383C476.041 703.847 475.672 704.206 475.359 704.459H474.546V704.276ZM482.881 716.024V705.316H484.126V714.896H488.851V716.024H482.881ZM496.644 716.024H490.674V705.316H496.644V706.422H491.919V709.872H496.358V710.971H491.919V714.911H496.644V716.024ZM508.318 710.656C508.318 712.37 507.884 713.717 507.015 714.699C506.15 715.68 504.947 716.171 503.404 716.171C501.827 716.171 500.608 715.69 499.749 714.728C498.895 713.761 498.467 712.399 498.467 710.641C498.467 708.898 498.897 707.548 499.756 706.591C500.616 705.629 501.836 705.148 503.418 705.148C504.957 705.148 506.158 705.636 507.022 706.613C507.886 707.589 508.318 708.937 508.318 710.656ZM499.786 710.656C499.786 712.106 500.093 713.207 500.708 713.959C501.329 714.706 502.227 715.08 503.404 715.08C504.59 715.08 505.486 714.706 506.092 713.959C506.697 713.212 507 712.111 507 710.656C507 709.215 506.697 708.124 506.092 707.382C505.491 706.635 504.6 706.261 503.418 706.261C502.232 706.261 501.329 706.637 500.708 707.389C500.093 708.136 499.786 709.225 499.786 710.656ZM523.157 710.568C523.157 712.335 522.676 713.688 521.714 714.625C520.757 715.558 519.378 716.024 517.576 716.024H514.61V705.316H517.891C519.556 705.316 520.85 705.778 521.773 706.701C522.696 707.624 523.157 708.913 523.157 710.568ZM521.839 710.612C521.839 709.215 521.487 708.163 520.784 707.455C520.086 706.747 519.046 706.393 517.664 706.393H515.855V714.948H517.371C518.855 714.948 519.971 714.584 520.718 713.856C521.465 713.124 521.839 712.042 521.839 710.612ZM525.552 716.024V705.316H526.797V716.024H525.552ZM535.711 716.024H529.742V705.316H535.711V706.422H530.987V709.872H535.425V710.971H530.987V714.911H535.711V716.024ZM544.134 713.175C544.134 714.118 543.792 714.853 543.108 715.38C542.425 715.907 541.497 716.171 540.325 716.171C539.056 716.171 538.079 716.007 537.396 715.68V714.479C537.835 714.665 538.313 714.811 538.831 714.918C539.349 715.026 539.861 715.08 540.369 715.08C541.199 715.08 541.824 714.923 542.244 714.611C542.664 714.293 542.874 713.854 542.874 713.292C542.874 712.921 542.798 712.619 542.647 712.384C542.5 712.145 542.251 711.925 541.9 711.725C541.553 711.525 541.023 711.298 540.311 711.044C539.314 710.688 538.602 710.265 538.172 709.777C537.747 709.289 537.535 708.651 537.535 707.865C537.535 707.04 537.845 706.383 538.465 705.895C539.085 705.407 539.905 705.163 540.926 705.163C541.99 705.163 542.969 705.358 543.863 705.749L543.475 706.833C542.591 706.461 541.731 706.276 540.896 706.276C540.237 706.276 539.722 706.417 539.351 706.701C538.98 706.984 538.794 707.377 538.794 707.88C538.794 708.251 538.863 708.556 539 708.795C539.136 709.03 539.366 709.247 539.688 709.447C540.015 709.643 540.513 709.86 541.182 710.099C542.305 710.5 543.077 710.929 543.497 711.388C543.921 711.847 544.134 712.443 544.134 713.175ZM552.293 716.024H546.324V705.316H552.293V706.422H547.569V709.872H552.007V710.971H547.569V714.911H552.293V716.024ZM554.673 716.024V705.316H555.918V714.896H560.643V716.024H554.673Z" fill="#211915"/>
<path d="M444.356 763.16H443.111V758.121H437.471V763.16H436.226V752.452H437.471V757.008H443.111V752.452H444.356V763.16ZM447.3 763.16V752.452H448.545V763.16H447.3ZM460.037 757.704C460.037 759.471 459.556 760.824 458.594 761.761C457.637 762.694 456.258 763.16 454.456 763.16H451.49V752.452H454.771C456.436 752.452 457.73 752.914 458.653 753.837C459.576 754.76 460.037 756.049 460.037 757.704ZM458.719 757.748C458.719 756.351 458.367 755.299 457.664 754.591C456.966 753.883 455.926 753.529 454.544 753.529H452.735V762.084H454.251C455.735 762.084 456.851 761.72 457.598 760.992C458.345 760.26 458.719 759.178 458.719 757.748ZM463.677 758.707V763.16H462.432V752.452H465.369C466.683 752.452 467.652 752.704 468.277 753.207C468.907 753.71 469.222 754.467 469.222 755.477C469.222 756.893 468.504 757.85 467.068 758.348L469.976 763.16H468.504L465.911 758.707H463.677ZM463.677 757.638H465.384C466.263 757.638 466.907 757.465 467.317 757.118C467.728 756.766 467.933 756.241 467.933 755.543C467.933 754.835 467.723 754.325 467.303 754.012C466.888 753.7 466.219 753.544 465.296 753.544H463.677V757.638ZM478.436 763.16L477.103 759.755H472.811L471.492 763.16H470.232L474.466 752.408H475.513L479.725 763.16H478.436ZM476.714 758.634L475.469 755.316C475.308 754.896 475.142 754.381 474.971 753.771C474.864 754.24 474.71 754.755 474.51 755.316L473.25 758.634H476.714ZM474.085 751.412C474.319 751.11 474.571 750.743 474.839 750.314C475.113 749.884 475.328 749.51 475.484 749.193H476.963V749.347C476.749 749.664 476.429 750.055 476.004 750.519C475.579 750.983 475.21 751.342 474.898 751.595H474.085V751.412ZM489.283 752.452V759.381C489.283 760.602 488.914 761.561 488.177 762.26C487.439 762.958 486.426 763.307 485.137 763.307C483.848 763.307 482.85 762.955 482.142 762.252C481.438 761.549 481.087 760.582 481.087 759.352V752.452H482.332V759.44C482.332 760.333 482.576 761.019 483.064 761.498C483.553 761.976 484.271 762.216 485.218 762.216C486.121 762.216 486.817 761.976 487.305 761.498C487.793 761.014 488.038 760.323 488.038 759.425V752.452H489.283ZM492.125 763.16V752.452H493.37V762.032H498.094V763.16H492.125ZM499.917 763.16V752.452H501.163V763.16H499.917ZM508.692 753.412C507.515 753.412 506.585 753.805 505.901 754.591C505.223 755.372 504.883 756.444 504.883 757.806C504.883 759.208 505.21 760.292 505.865 761.058C506.524 761.82 507.461 762.201 508.677 762.201C509.424 762.201 510.276 762.067 511.233 761.798V762.889C510.491 763.168 509.576 763.307 508.487 763.307C506.91 763.307 505.691 762.828 504.832 761.871C503.978 760.914 503.55 759.554 503.55 757.792C503.55 756.688 503.755 755.721 504.166 754.891C504.581 754.061 505.176 753.422 505.953 752.972C506.734 752.523 507.652 752.299 508.707 752.299C509.83 752.299 510.811 752.504 511.651 752.914L511.124 753.983C510.313 753.602 509.502 753.412 508.692 753.412ZM520.301 763.16L518.968 759.755H514.676L513.357 763.16H512.098L516.331 752.408H517.378L521.59 763.16H520.301ZM518.58 758.634L517.334 755.316C517.173 754.896 517.007 754.381 516.836 753.771C516.729 754.24 516.575 754.755 516.375 755.316L515.115 758.634H518.58Z" fill="#211915"/>
<path d="M47.3564 712.2C47.3564 713.142 47.0146 713.877 46.3311 714.404C45.6475 714.932 44.7197 715.195 43.5479 715.195C42.2783 715.195 41.3018 715.032 40.6182 714.705V713.503C41.0576 713.689 41.5361 713.835 42.0537 713.943C42.5713 714.05 43.084 714.104 43.5918 714.104C44.4219 714.104 45.0469 713.948 45.4668 713.635C45.8867 713.318 46.0967 712.878 46.0967 712.317C46.0967 711.946 46.021 711.643 45.8696 711.409C45.7231 711.169 45.4741 710.95 45.1226 710.75C44.7759 710.549 44.2461 710.322 43.5332 710.068C42.5371 709.712 41.8242 709.29 41.3945 708.801C40.9697 708.313 40.7573 707.676 40.7573 706.89C40.7573 706.064 41.0674 705.408 41.6875 704.919C42.3076 704.431 43.1279 704.187 44.1484 704.187C45.2129 704.187 46.1919 704.382 47.0854 704.773L46.6973 705.857C45.8135 705.486 44.9541 705.3 44.1191 705.3C43.46 705.3 42.9448 705.442 42.5737 705.725C42.2026 706.008 42.0171 706.401 42.0171 706.904C42.0171 707.275 42.0854 707.581 42.2222 707.82C42.3589 708.054 42.5884 708.271 42.9106 708.472C43.2378 708.667 43.7358 708.884 44.4048 709.124C45.5278 709.524 46.2993 709.954 46.7192 710.413C47.144 710.872 47.3564 711.467 47.3564 712.2ZM58.8408 709.68C58.8408 711.394 58.4062 712.742 57.5371 713.723C56.6729 714.705 55.4692 715.195 53.9263 715.195C52.3491 715.195 51.1309 714.714 50.2715 713.752C49.417 712.786 48.9897 711.423 48.9897 709.666C48.9897 707.922 49.4194 706.572 50.2788 705.615C51.1382 704.653 52.3589 704.172 53.9409 704.172C55.479 704.172 56.6802 704.661 57.5444 705.637C58.4087 706.614 58.8408 707.961 58.8408 709.68ZM50.3081 709.68C50.3081 711.13 50.6157 712.231 51.231 712.983C51.8511 713.73 52.7495 714.104 53.9263 714.104C55.1128 714.104 56.0088 713.73 56.6143 712.983C57.2197 712.236 57.5225 711.135 57.5225 709.68C57.5225 708.24 57.2197 707.148 56.6143 706.406C56.0137 705.659 55.1226 705.286 53.9409 705.286C52.7544 705.286 51.8511 705.662 51.231 706.414C50.6157 707.161 50.3081 708.25 50.3081 709.68ZM61.2358 715.049V704.341H62.481V713.921H67.2051V715.049H61.2358ZM75.7598 715.049L74.4268 711.643H70.1348L68.8164 715.049H67.5566L71.79 704.297H72.8374L77.0488 715.049H75.7598ZM74.0386 710.522L72.7935 707.205C72.6323 706.785 72.4663 706.27 72.2954 705.659C72.188 706.128 72.0342 706.643 71.834 707.205L70.5742 710.522H74.0386ZM79.7661 710.596V715.049H78.521V704.341H81.458C82.7715 704.341 83.7407 704.592 84.3657 705.095C84.9956 705.598 85.3105 706.355 85.3105 707.366C85.3105 708.782 84.5928 709.739 83.1572 710.237L86.0649 715.049H84.5928L82 710.596H79.7661ZM79.7661 709.526H81.4727C82.3516 709.526 82.9961 709.353 83.4062 709.006C83.8164 708.655 84.0215 708.13 84.0215 707.432C84.0215 706.724 83.8115 706.213 83.3916 705.901C82.9766 705.588 82.3076 705.432 81.3848 705.432H79.7661V709.526ZM92.9351 715.049H91.6899V704.341H97.6592V705.447H92.9351V709.365H97.3735V710.471H92.9351V715.049ZM108.733 709.68C108.733 711.394 108.299 712.742 107.43 713.723C106.565 714.705 105.362 715.195 103.819 715.195C102.242 715.195 101.023 714.714 100.164 713.752C99.3096 712.786 98.8823 711.423 98.8823 709.666C98.8823 707.922 99.312 706.572 100.171 705.615C101.031 704.653 102.251 704.172 103.833 704.172C105.372 704.172 106.573 704.661 107.437 705.637C108.301 706.614 108.733 707.961 108.733 709.68ZM100.201 709.68C100.201 711.13 100.508 712.231 101.124 712.983C101.744 713.73 102.642 714.104 103.819 714.104C105.005 714.104 105.901 713.73 106.507 712.983C107.112 712.236 107.415 711.135 107.415 709.68C107.415 708.24 107.112 707.148 106.507 706.406C105.906 705.659 105.015 705.286 103.833 705.286C102.647 705.286 101.744 705.662 101.124 706.414C100.508 707.161 100.201 708.25 100.201 709.68ZM114.424 715.049H113.179V705.447H109.788V704.341H117.815V705.447H114.424V715.049ZM128.729 709.68C128.729 711.394 128.294 712.742 127.425 713.723C126.561 714.705 125.357 715.195 123.814 715.195C122.237 715.195 121.019 714.714 120.159 713.752C119.305 712.786 118.877 711.423 118.877 709.666C118.877 707.922 119.307 706.572 120.167 705.615C121.026 704.653 122.247 704.172 123.829 704.172C125.367 704.172 126.568 704.661 127.432 705.637C128.296 706.614 128.729 707.961 128.729 709.68ZM120.196 709.68C120.196 711.13 120.503 712.231 121.119 712.983C121.739 713.73 122.637 714.104 123.814 714.104C125 714.104 125.896 713.73 126.502 712.983C127.107 712.236 127.41 711.135 127.41 709.68C127.41 708.24 127.107 707.148 126.502 706.406C125.901 705.659 125.01 705.286 123.829 705.286C122.642 705.286 121.739 705.662 121.119 706.414C120.503 707.161 120.196 708.25 120.196 709.68ZM137.239 704.341H138.58L134.72 715.049H133.489L129.651 704.341H130.97L133.431 711.27C133.714 712.065 133.938 712.839 134.104 713.591C134.28 712.8 134.51 712.012 134.793 711.226L137.239 704.341ZM149.354 709.68C149.354 711.394 148.919 712.742 148.05 713.723C147.186 714.705 145.982 715.195 144.439 715.195C142.862 715.195 141.644 714.714 140.784 713.752C139.93 712.786 139.502 711.423 139.502 709.666C139.502 707.922 139.932 706.572 140.792 705.615C141.651 704.653 142.872 704.172 144.454 704.172C145.992 704.172 147.193 704.661 148.057 705.637C148.921 706.614 149.354 707.961 149.354 709.68ZM140.821 709.68C140.821 711.13 141.128 712.231 141.744 712.983C142.364 713.73 143.262 714.104 144.439 714.104C145.625 714.104 146.521 713.73 147.127 712.983C147.732 712.236 148.035 711.135 148.035 709.68C148.035 708.24 147.732 707.148 147.127 706.406C146.526 705.659 145.635 705.286 144.454 705.286C143.267 705.286 142.364 705.662 141.744 706.414C141.128 707.161 140.821 708.25 140.821 709.68ZM151.749 715.049V704.341H152.994V713.921H157.718V715.049H151.749ZM162.837 715.049H161.592V705.447H158.201V704.341H166.229V705.447H162.837V715.049ZM174.578 715.049L173.245 711.643H168.953L167.635 715.049H166.375L170.608 704.297H171.656L175.867 715.049H174.578ZM172.857 710.522L171.612 707.205C171.451 706.785 171.285 706.27 171.114 705.659C171.006 706.128 170.853 706.643 170.652 707.205L169.393 710.522H172.857ZM177.339 715.049V704.341H178.584V715.049H177.339ZM186.114 705.3C184.937 705.3 184.007 705.693 183.323 706.479C182.645 707.261 182.305 708.333 182.305 709.695C182.305 711.096 182.632 712.18 183.287 712.947C183.946 713.708 184.883 714.089 186.099 714.089C186.846 714.089 187.698 713.955 188.655 713.687V714.778C187.913 715.056 186.998 715.195 185.909 715.195C184.332 715.195 183.113 714.717 182.254 713.76C181.399 712.803 180.972 711.443 180.972 709.68C180.972 708.577 181.177 707.61 181.587 706.78C182.002 705.95 182.598 705.31 183.375 704.861C184.156 704.412 185.074 704.187 186.128 704.187C187.251 704.187 188.233 704.392 189.073 704.802L188.545 705.872C187.735 705.491 186.924 705.3 186.114 705.3ZM197.723 715.049L196.39 711.643H192.098L190.779 715.049H189.52L193.753 704.297H194.8L199.012 715.049H197.723ZM196.001 710.522L194.756 707.205C194.595 706.785 194.429 706.27 194.258 705.659C194.151 706.128 193.997 706.643 193.797 707.205L192.537 710.522H196.001Z" fill="#211915"/>
<path d="M41.314 751.477H44.3389C45.7598 751.477 46.7876 751.689 47.4224 752.114C48.0571 752.539 48.3745 753.21 48.3745 754.128C48.3745 754.763 48.1963 755.288 47.8398 755.703C47.4883 756.113 46.9731 756.379 46.2944 756.501V756.574C47.9204 756.853 48.7334 757.707 48.7334 759.138C48.7334 760.095 48.4087 760.842 47.7593 761.379C47.1147 761.916 46.2114 762.185 45.0493 762.185H41.314V751.477ZM42.5591 756.062H44.6099C45.4888 756.062 46.1211 755.925 46.5068 755.652C46.8926 755.373 47.0854 754.907 47.0854 754.253C47.0854 753.652 46.8706 753.22 46.4409 752.956C46.0112 752.688 45.3276 752.553 44.3901 752.553H42.5591V756.062ZM42.5591 757.116V761.123H44.793C45.6572 761.123 46.3066 760.957 46.7412 760.625C47.1807 760.288 47.4004 759.763 47.4004 759.05C47.4004 758.386 47.1758 757.898 46.7266 757.585C46.2822 757.273 45.6035 757.116 44.6904 757.116H42.5591ZM51.0405 762.185V751.477H52.2856V762.185H51.0405ZM64.5244 756.816C64.5244 758.53 64.0898 759.878 63.2207 760.859C62.3564 761.841 61.1528 762.331 59.6099 762.331C58.0327 762.331 56.8145 761.85 55.9551 760.888C55.1006 759.922 54.6733 758.559 54.6733 756.802C54.6733 755.058 55.103 753.708 55.9624 752.751C56.8218 751.789 58.0425 751.308 59.6245 751.308C61.1626 751.308 62.3638 751.797 63.228 752.773C64.0923 753.75 64.5244 755.097 64.5244 756.816ZM55.9917 756.816C55.9917 758.266 56.2993 759.367 56.9146 760.119C57.5347 760.866 58.4331 761.24 59.6099 761.24C60.7964 761.24 61.6924 760.866 62.2979 760.119C62.9033 759.372 63.2061 758.271 63.2061 756.816C63.2061 755.376 62.9033 754.284 62.2979 753.542C61.6973 752.795 60.8062 752.422 59.6245 752.422C58.438 752.422 57.5347 752.798 56.9146 753.55C56.2993 754.297 55.9917 755.385 55.9917 756.816ZM71.6582 762.185L68.0254 752.693H67.9668C68.0352 753.445 68.0693 754.338 68.0693 755.373V762.185H66.9194V751.477H68.7944L72.1855 760.31H72.2441L75.6646 751.477H77.5249V762.185H76.2798V755.285C76.2798 754.494 76.314 753.635 76.3823 752.707H76.3237L72.6616 762.185H71.6582ZM87.2002 762.185L85.8672 758.779H81.5752L80.2568 762.185H78.9971L83.2305 751.433H84.2778L88.4893 762.185H87.2002ZM85.479 757.658L84.2339 754.341C84.0728 753.921 83.9067 753.406 83.7358 752.795C83.6284 753.264 83.4746 753.779 83.2744 754.341L82.0146 757.658H85.479ZM96.0039 759.336C96.0039 760.278 95.6621 761.013 94.9785 761.54C94.2949 762.068 93.3672 762.331 92.1953 762.331C90.9258 762.331 89.9492 762.168 89.2656 761.841V760.639C89.7051 760.825 90.1836 760.971 90.7012 761.079C91.2188 761.186 91.7314 761.24 92.2393 761.24C93.0693 761.24 93.6943 761.084 94.1143 760.771C94.5342 760.454 94.7441 760.014 94.7441 759.453C94.7441 759.082 94.6685 758.779 94.5171 758.545C94.3706 758.305 94.1216 758.086 93.77 757.885C93.4233 757.685 92.8936 757.458 92.1807 757.204C91.1846 756.848 90.4717 756.426 90.042 755.937C89.6172 755.449 89.4048 754.812 89.4048 754.026C89.4048 753.2 89.7148 752.544 90.335 752.055C90.9551 751.567 91.7754 751.323 92.7959 751.323C93.8604 751.323 94.8394 751.518 95.7329 751.909L95.3447 752.993C94.4609 752.622 93.6016 752.436 92.7666 752.436C92.1074 752.436 91.5923 752.578 91.2212 752.861C90.8501 753.144 90.6646 753.537 90.6646 754.04C90.6646 754.411 90.7329 754.717 90.8696 754.956C91.0063 755.19 91.2358 755.407 91.5581 755.608C91.8853 755.803 92.3833 756.02 93.0522 756.26C94.1753 756.66 94.9468 757.09 95.3667 757.549C95.7915 758.008 96.0039 758.603 96.0039 759.336ZM104.925 762.185L103.592 758.779H99.2998L97.9814 762.185H96.7217L100.955 751.433H102.002L106.214 762.185H104.925ZM103.204 757.658L101.958 754.341C101.797 753.921 101.631 753.406 101.46 752.795C101.353 753.264 101.199 753.779 100.999 754.341L99.7393 757.658H103.204Z" fill="#211915"/>
<path d="M17.9086 679.526C27.145 679.526 34.6326 671.629 34.6326 661.888C34.6326 652.147 27.145 644.25 17.9086 644.25C8.67217 644.25 1.18457 652.147 1.18457 661.888C1.18457 671.629 8.67217 679.526 17.9086 679.526Z" fill="#004756"/>
<path d="M16.724 725.763C25.9605 725.763 33.4481 717.866 33.4481 708.125C33.4481 698.384 25.9605 690.488 16.724 690.488C7.4876 690.488 0 698.384 0 708.125C0 717.866 7.4876 725.763 16.724 725.763Z" fill="#73B3C0"/>
<path d="M16.724 772C25.9605 772 33.4481 764.103 33.4481 754.362C33.4481 744.621 25.9605 736.725 16.724 736.725C7.4876 736.725 0 744.621 0 754.362C0 764.103 7.4876 772 16.724 772Z" fill="#474747"/>
<path d="M223.94 679.526C233.176 679.526 240.664 671.629 240.664 661.888C240.664 652.147 233.176 644.25 223.94 644.25C214.703 644.25 207.216 652.147 207.216 661.888C207.216 671.629 214.703 679.526 223.94 679.526Z" fill="#B77E4A"/>
<path d="M222.766 725.763C232.002 725.763 239.49 717.866 239.49 708.125C239.49 698.384 232.002 690.488 222.766 690.488C213.53 690.488 206.042 698.384 206.042 708.125C206.042 717.866 213.53 725.763 222.766 725.763Z" fill="#A73839"/>
<path d="M222.766 772C232.002 772 239.49 764.103 239.49 754.362C239.49 744.621 232.002 736.725 222.766 736.725C213.53 736.725 206.042 744.621 206.042 754.362C206.042 764.103 213.53 772 222.766 772Z" fill="#00646E"/>
<path d="M411.636 772C420.873 772 428.36 764.103 428.36 754.362C428.36 744.621 420.873 736.725 411.636 736.725C402.4 736.725 394.912 744.621 394.912 754.362C394.912 764.103 402.4 772 411.636 772Z" fill="#E4C55A"/>
<path d="M411.636 679.526C420.873 679.526 428.36 671.629 428.36 661.888C428.36 652.147 420.873 644.25 411.636 644.25C402.4 644.25 394.912 652.147 394.912 661.888C394.912 671.629 402.4 679.526 411.636 679.526Z" fill="#643623"/>
<path d="M411.636 725.763C420.873 725.763 428.36 717.866 428.36 708.125C428.36 698.384 420.873 690.488 411.636 690.488C402.4 690.488 394.912 698.384 394.912 708.125C394.912 717.866 402.4 725.763 411.636 725.763Z" fill="#AE5A40"/>
</g>
<defs>
<clipPath id="clip0">
<rect width="592" height="772" fill="white"/>
</clipPath>
</defs>
</svg>
