<svg width="592" height="772" viewBox="0 0 592 772" fill="none" xmlns="http://www.w3.org/2000/svg">
<g clip-path="url(#clip0)">
<path d="M232.791 29.8833H214.624V27.3506L224.221 16.6865C225.643 15.0742 226.621 13.7666 227.154 12.7636C227.7 11.748 227.973 10.7007 227.973 9.62155C227.973 8.17429 227.535 6.98727 226.659 6.06052C225.783 5.13376 224.615 4.67038 223.155 4.67038C221.403 4.67038 220.038 5.17184 219.061 6.17477C218.096 7.16501 217.613 8.5488 217.613 10.3261H214.09C214.09 7.77438 214.909 5.7114 216.547 4.13718C218.197 2.56296 220.4 1.77585 223.155 1.77585C225.732 1.77585 227.77 2.45505 229.268 3.81345C230.766 5.15915 231.515 6.95554 231.515 9.20261C231.515 11.9321 229.775 15.1821 226.297 18.9526L218.87 27.0078H232.791V29.8833ZM253.909 18.0576C253.909 22.1836 253.205 25.2495 251.795 27.2553C250.386 29.2612 248.184 30.2641 245.188 30.2641C242.229 30.2641 240.04 29.2866 238.618 27.3315C237.196 25.3637 236.459 22.4311 236.409 18.5337V13.83C236.409 9.75485 237.113 6.72702 238.522 4.74655C239.932 2.76608 242.141 1.77585 245.149 1.77585C248.133 1.77585 250.329 2.73434 251.738 4.65134C253.147 6.55563 253.871 9.50095 253.909 13.4873V18.0576ZM250.386 13.2397C250.386 10.2563 249.967 8.08542 249.129 6.72702C248.292 5.35593 246.965 4.67038 245.149 4.67038C243.347 4.67038 242.033 5.34958 241.208 6.70798C240.382 8.06638 239.957 10.1548 239.932 12.9731V18.6098C239.932 21.6059 240.363 23.8213 241.227 25.2558C242.103 26.6777 243.423 27.3886 245.188 27.3886C246.927 27.3886 248.215 26.7158 249.053 25.3701C249.904 24.0244 250.348 21.9043 250.386 19.0097V13.2397ZM270 29.8833H266.458V6.40329L259.355 9.01218V5.81296L269.448 2.02341H270V29.8833ZM293.823 17.6958C293.087 18.5717 292.205 19.2763 291.176 19.8095C290.161 20.3427 289.043 20.6093 287.825 20.6093C286.225 20.6093 284.829 20.2158 283.635 19.4287C282.455 18.6416 281.541 17.5371 280.893 16.1152C280.246 14.6806 279.922 13.1001 279.922 11.3735C279.922 9.51999 280.271 7.85056 280.969 6.3652C281.68 4.87985 282.683 3.74362 283.978 2.95651C285.273 2.1694 286.784 1.77585 288.51 1.77585C291.252 1.77585 293.411 2.80417 294.985 4.86081C296.572 6.90475 297.365 9.69772 297.365 13.2397V14.268C297.365 19.6635 296.299 23.6054 294.166 26.0937C292.033 28.5693 288.815 29.8388 284.511 29.9023H283.826V26.9316H284.568C287.476 26.8808 289.71 26.1255 291.271 24.6655C292.833 23.1928 293.684 20.8696 293.823 17.6958ZM288.396 17.6958C289.577 17.6958 290.662 17.334 291.652 16.6103C292.655 15.8867 293.385 14.9917 293.842 13.9253V12.5161C293.842 10.2055 293.341 8.32663 292.338 6.87936C291.335 5.4321 290.065 4.70847 288.529 4.70847C286.98 4.70847 285.736 5.30515 284.797 6.4985C283.857 7.67917 283.388 9.24069 283.388 11.1831C283.388 13.0747 283.838 14.6362 284.74 15.8676C285.654 17.0864 286.873 17.6958 288.396 17.6958Z" fill="black"/>
<path d="M518.529 60.196C518.529 60.9652 518.305 61.6071 517.857 62.1218C517.409 62.6309 516.778 62.974 515.964 63.1511V63.2175C516.938 63.3392 517.669 63.6436 518.156 64.1306C518.643 64.612 518.886 65.2539 518.886 66.0563C518.886 67.224 518.474 68.126 517.649 68.7624C516.825 69.3932 515.652 69.7087 514.13 69.7087C512.785 69.7087 511.651 69.4901 510.727 69.0529V67.3181C511.241 67.5726 511.786 67.7691 512.362 67.9074C512.937 68.0458 513.491 68.1149 514.022 68.1149C514.963 68.1149 515.666 67.9406 516.13 67.592C516.595 67.2433 516.828 66.7038 516.828 65.9733C516.828 65.3259 516.57 64.85 516.056 64.5456C515.541 64.2412 514.733 64.0891 513.632 64.0891H512.578V62.5036H513.648C515.585 62.5036 516.554 61.834 516.554 60.4948C516.554 59.9746 516.385 59.5734 516.047 59.2912C515.71 59.009 515.212 58.8679 514.553 58.8679C514.094 58.8679 513.651 58.9343 513.225 59.0671C512.799 59.1944 512.295 59.4461 511.714 59.8224L510.76 58.4611C511.872 57.6421 513.164 57.2326 514.636 57.2326C515.859 57.2326 516.814 57.4955 517.5 58.0212C518.186 58.5469 518.529 59.2718 518.529 60.196ZM521.85 69.5427L526.647 59.1418H520.339V57.4235H528.731V58.7849L523.958 69.5427H521.85ZM531.752 61.0427C531.752 61.8672 531.833 62.4815 531.993 62.8854C532.154 63.2894 532.417 63.4914 532.782 63.4914C533.512 63.4914 533.877 62.6752 533.877 61.0427C533.877 59.4102 533.512 58.5939 532.782 58.5939C532.417 58.5939 532.154 58.7959 531.993 59.1999C531.833 59.6039 531.752 60.2181 531.752 61.0427ZM535.488 61.0261C535.488 62.2988 535.258 63.2562 534.799 63.8981C534.345 64.5345 533.673 64.8527 532.782 64.8527C531.941 64.8527 531.288 64.5235 530.823 63.8649C530.363 63.2009 530.134 62.2546 530.134 61.0261C530.134 58.4971 531.016 57.2326 532.782 57.2326C533.651 57.2326 534.317 57.5619 534.782 58.2204C535.253 58.8734 535.488 59.8086 535.488 61.0261ZM539.655 65.8903C539.655 66.7149 539.735 67.3319 539.896 67.7414C540.062 68.1509 540.327 68.3557 540.692 68.3557C541.417 68.3557 541.78 67.5339 541.78 65.8903C541.78 64.2689 541.417 63.4582 540.692 63.4582C540.327 63.4582 540.062 63.6574 539.896 64.0558C539.735 64.4543 539.655 65.0658 539.655 65.8903ZM543.39 65.8903C543.39 67.1631 543.16 68.1177 542.701 68.7541C542.242 69.3905 541.572 69.7087 540.692 69.7087C539.851 69.7087 539.198 69.3822 538.733 68.7292C538.269 68.0707 538.036 67.1244 538.036 65.8903C538.036 63.3613 538.922 62.0969 540.692 62.0969C541.545 62.0969 542.206 62.4234 542.676 63.0764C543.152 63.7293 543.39 64.6673 543.39 65.8903ZM540.925 57.4069L534.193 69.5427H532.583L539.314 57.4069H540.925Z" fill="#211915"/>
<path d="M514.86 94.4319C516.011 94.4319 516.922 94.6975 517.591 95.2287C518.261 95.7544 518.596 96.46 518.596 97.3454C518.596 98.5905 517.849 99.5811 516.354 100.317C517.306 100.793 517.981 101.294 518.38 101.82C518.784 102.345 518.986 102.932 518.986 103.579C518.986 104.581 518.618 105.383 517.882 105.987C517.146 106.59 516.15 106.891 514.894 106.891C513.576 106.891 512.556 106.609 511.831 106.045C511.106 105.48 510.743 104.681 510.743 103.646C510.743 102.971 510.931 102.365 511.308 101.828C511.689 101.286 512.312 100.804 513.175 100.384C512.434 99.9408 511.905 99.4732 511.59 98.9807C511.274 98.4882 511.117 97.9348 511.117 97.3205C511.117 96.4406 511.463 95.7406 512.154 95.2204C512.846 94.6947 513.748 94.4319 514.86 94.4319ZM512.611 103.579C512.611 104.155 512.813 104.603 513.217 104.924C513.621 105.239 514.169 105.397 514.86 105.397C515.574 105.397 516.128 105.234 516.521 104.907C516.919 104.575 517.118 104.127 517.118 103.563C517.118 103.114 516.936 102.705 516.57 102.334C516.205 101.963 515.652 101.62 514.91 101.305L514.669 101.197C513.939 101.518 513.413 101.872 513.092 102.259C512.771 102.641 512.611 103.081 512.611 103.579ZM514.844 95.9343C514.29 95.9343 513.845 96.0726 513.507 96.3493C513.17 96.6205 513.001 96.9913 513.001 97.4616C513.001 97.7494 513.062 98.0067 513.184 98.2336C513.305 98.4605 513.482 98.668 513.715 98.8562C513.947 99.0388 514.34 99.2601 514.894 99.5202C515.558 99.2269 516.025 98.9198 516.296 98.5988C516.573 98.2723 516.711 97.8933 516.711 97.4616C516.711 96.9913 516.54 96.6205 516.197 96.3493C515.859 96.0726 515.408 95.9343 514.844 95.9343ZM523.145 104.941C522.879 105.97 522.392 107.295 521.684 108.917H520.248C520.629 107.423 520.914 106.034 521.103 104.75H523.02L523.145 104.941ZM530.748 106.725H528.797V98.8894C528.797 97.9542 528.819 97.2126 528.864 96.6648C528.736 96.7976 528.579 96.9442 528.391 97.1047C528.208 97.2652 527.588 97.7743 526.531 98.632L525.552 97.3952L529.121 94.5896H530.748V106.725ZM536.301 98.2253C536.301 99.0499 536.382 99.6641 536.542 100.068C536.702 100.472 536.965 100.674 537.331 100.674C538.061 100.674 538.426 99.8578 538.426 98.2253C538.426 96.5928 538.061 95.7766 537.331 95.7766C536.965 95.7766 536.702 95.9786 536.542 96.3825C536.382 96.7865 536.301 97.4008 536.301 98.2253ZM540.037 98.2087C540.037 99.4815 539.807 100.439 539.348 101.081C538.894 101.717 538.222 102.035 537.331 102.035C536.489 102.035 535.836 101.706 535.372 101.048C534.912 100.384 534.683 99.4372 534.683 98.2087C534.683 95.6797 535.565 94.4153 537.331 94.4153C538.199 94.4153 538.866 94.7445 539.331 95.403C539.801 96.056 540.037 96.9913 540.037 98.2087ZM544.204 103.073C544.204 103.898 544.284 104.515 544.444 104.924C544.61 105.334 544.876 105.538 545.241 105.538C545.966 105.538 546.329 104.717 546.329 103.073C546.329 101.452 545.966 100.641 545.241 100.641C544.876 100.641 544.61 100.84 544.444 101.238C544.284 101.637 544.204 102.248 544.204 103.073ZM547.939 103.073C547.939 104.346 547.709 105.3 547.25 105.937C546.791 106.573 546.121 106.891 545.241 106.891C544.4 106.891 543.747 106.565 543.282 105.912C542.817 105.253 542.585 104.307 542.585 103.073C542.585 100.544 543.47 99.2795 545.241 99.2795C546.093 99.2795 546.755 99.606 547.225 100.259C547.701 100.912 547.939 101.85 547.939 103.073ZM545.474 94.5896L538.742 106.725H537.131L543.863 94.5896H545.474Z" fill="#211915"/>
<path d="M518.986 164.955H510.76V163.477L513.889 160.331C514.813 159.385 515.425 158.715 515.724 158.322C516.028 157.924 516.249 157.55 516.388 157.202C516.526 156.853 516.595 156.48 516.595 156.081C516.595 155.533 516.429 155.102 516.097 154.786C515.771 154.471 515.317 154.313 514.736 154.313C514.271 154.313 513.82 154.399 513.383 154.57C512.951 154.742 512.45 155.052 511.88 155.5L510.826 154.213C511.501 153.643 512.157 153.24 512.793 153.002C513.43 152.764 514.108 152.645 514.827 152.645C515.956 152.645 516.861 152.941 517.542 153.533C518.222 154.119 518.562 154.911 518.562 155.907C518.562 156.455 518.463 156.975 518.264 157.467C518.07 157.96 517.768 158.469 517.359 158.995C516.955 159.515 516.28 160.22 515.333 161.111L513.225 163.153V163.236H518.986V164.955ZM523.145 163.17C522.879 164.199 522.392 165.525 521.684 167.146H520.248C520.629 165.652 520.914 164.263 521.103 162.979H523.02L523.145 163.17ZM532.79 155.608C532.79 156.377 532.566 157.019 532.118 157.534C531.669 158.043 531.039 158.386 530.225 158.563V158.63C531.199 158.751 531.93 159.056 532.417 159.543C532.903 160.024 533.147 160.666 533.147 161.468C533.147 162.636 532.735 163.538 531.91 164.174C531.086 164.805 529.912 165.121 528.391 165.121C527.046 165.121 525.911 164.902 524.987 164.465V162.73C525.502 162.985 526.047 163.181 526.623 163.319C527.198 163.458 527.751 163.527 528.283 163.527C529.223 163.527 529.926 163.353 530.391 163.004C530.856 162.655 531.088 162.116 531.088 161.385C531.088 160.738 530.831 160.262 530.316 159.958C529.802 159.653 528.994 159.501 527.893 159.501H526.838V157.916H527.909C529.846 157.916 530.814 157.246 530.814 155.907C530.814 155.387 530.646 154.985 530.308 154.703C529.971 154.421 529.472 154.28 528.814 154.28C528.355 154.28 527.912 154.346 527.486 154.479C527.06 154.606 526.556 154.858 525.975 155.234L525.021 153.873C526.133 153.054 527.425 152.645 528.897 152.645C530.12 152.645 531.075 152.907 531.761 153.433C532.447 153.959 532.79 154.684 532.79 155.608ZM536.301 156.455C536.301 157.279 536.382 157.893 536.542 158.297C536.702 158.701 536.965 158.903 537.331 158.903C538.061 158.903 538.426 158.087 538.426 156.455C538.426 154.822 538.061 154.006 537.331 154.006C536.965 154.006 536.702 154.208 536.542 154.612C536.382 155.016 536.301 155.63 536.301 156.455ZM540.037 156.438C540.037 157.711 539.807 158.668 539.348 159.31C538.894 159.947 538.222 160.265 537.331 160.265C536.489 160.265 535.836 159.935 535.372 159.277C534.912 158.613 534.683 157.667 534.683 156.438C534.683 153.909 535.565 152.645 537.331 152.645C538.199 152.645 538.866 152.974 539.331 153.632C539.801 154.285 540.037 155.221 540.037 156.438ZM544.204 161.302C544.204 162.127 544.284 162.744 544.444 163.153C544.61 163.563 544.876 163.768 545.241 163.768C545.966 163.768 546.329 162.946 546.329 161.302C546.329 159.681 545.966 158.87 545.241 158.87C544.876 158.87 544.61 159.069 544.444 159.468C544.284 159.866 544.204 160.478 544.204 161.302ZM547.939 161.302C547.939 162.575 547.709 163.53 547.25 164.166C546.791 164.803 546.121 165.121 545.241 165.121C544.4 165.121 543.747 164.794 543.282 164.141C542.817 163.483 542.585 162.536 542.585 161.302C542.585 158.773 543.47 157.509 545.241 157.509C546.093 157.509 546.755 157.835 547.225 158.488C547.701 159.141 547.939 160.079 547.939 161.302ZM545.474 152.819L538.742 164.955H537.131L543.863 152.819H545.474Z" fill="#211915"/>
<path d="M518.986 333.877H510.76V332.399L513.889 329.253C514.813 328.307 515.425 327.638 515.724 327.245C516.028 326.846 516.249 326.473 516.388 326.124C516.526 325.775 516.595 325.402 516.595 325.003C516.595 324.456 516.429 324.024 516.097 323.708C515.771 323.393 515.317 323.235 514.736 323.235C514.271 323.235 513.82 323.321 513.383 323.493C512.951 323.664 512.45 323.974 511.88 324.422L510.826 323.136C511.501 322.566 512.157 322.162 512.793 321.924C513.43 321.686 514.108 321.567 514.827 321.567C515.956 321.567 516.861 321.863 517.542 322.455C518.222 323.042 518.562 323.833 518.562 324.829C518.562 325.377 518.463 325.897 518.264 326.39C518.07 326.882 517.768 327.391 517.359 327.917C516.955 328.437 516.28 329.143 515.333 330.034L513.225 332.076V332.159H518.986V333.877ZM521.85 333.877L526.647 323.476H520.339V321.758H528.731V323.119L523.958 333.877H521.85ZM532.856 332.092C532.591 333.122 532.104 334.447 531.396 336.068H529.959C530.341 334.574 530.626 333.185 530.814 331.901H532.732L532.856 332.092ZM543.39 331.229H541.755V333.877H539.854V331.229H534.309V329.727L539.854 321.708H541.755V329.61H543.39V331.229ZM539.854 329.61V326.564C539.854 325.479 539.882 324.591 539.937 323.899H539.871C539.716 324.265 539.472 324.707 539.14 325.228L536.127 329.61H539.854ZM546.013 325.377C546.013 326.201 546.093 326.816 546.254 327.22C546.414 327.624 546.677 327.826 547.042 327.826C547.773 327.826 548.138 327.009 548.138 325.377C548.138 323.744 547.773 322.928 547.042 322.928C546.677 322.928 546.414 323.13 546.254 323.534C546.093 323.938 546.013 324.552 546.013 325.377ZM549.749 325.36C549.749 326.633 549.519 327.59 549.06 328.232C548.606 328.869 547.933 329.187 547.042 329.187C546.201 329.187 545.548 328.858 545.083 328.199C544.624 327.535 544.395 326.589 544.395 325.36C544.395 322.831 545.277 321.567 547.042 321.567C547.911 321.567 548.578 321.896 549.043 322.555C549.513 323.208 549.749 324.143 549.749 325.36ZM553.916 330.225C553.916 331.049 553.996 331.666 554.156 332.076C554.322 332.485 554.588 332.69 554.953 332.69C555.678 332.69 556.041 331.868 556.041 330.225C556.041 328.603 555.678 327.792 554.953 327.792C554.588 327.792 554.322 327.992 554.156 328.39C553.996 328.789 553.916 329.4 553.916 330.225ZM557.651 330.225C557.651 331.497 557.421 332.452 556.962 333.088C556.503 333.725 555.833 334.043 554.953 334.043C554.112 334.043 553.459 333.716 552.994 333.063C552.529 332.405 552.297 331.459 552.297 330.225C552.297 327.696 553.182 326.431 554.953 326.431C555.805 326.431 556.467 326.758 556.937 327.411C557.413 328.064 557.651 329.002 557.651 330.225ZM555.186 321.741L548.454 333.877H546.843L553.575 321.741H555.186Z" fill="#211915"/>
<path d="M510.793 450.843C510.793 446.095 512.727 443.721 516.595 443.721C517.204 443.721 517.719 443.768 518.139 443.862V445.489C517.719 445.367 517.232 445.306 516.678 445.306C515.378 445.306 514.401 445.655 513.748 446.352C513.095 447.049 512.741 448.167 512.686 449.705H512.785C513.045 449.257 513.41 448.911 513.881 448.668C514.351 448.419 514.905 448.294 515.541 448.294C516.642 448.294 517.5 448.632 518.114 449.307C518.729 449.982 519.036 450.898 519.036 452.055C519.036 453.327 518.679 454.334 517.965 455.076C517.257 455.812 516.288 456.18 515.06 456.18C514.191 456.18 513.435 455.973 512.793 455.557C512.152 455.137 511.656 454.528 511.308 453.731C510.965 452.929 510.793 451.966 510.793 450.843ZM515.026 454.57C515.696 454.57 516.211 454.354 516.57 453.922C516.936 453.491 517.118 452.874 517.118 452.071C517.118 451.374 516.947 450.826 516.604 450.428C516.266 450.029 515.757 449.83 515.076 449.83C514.656 449.83 514.268 449.921 513.914 450.104C513.56 450.281 513.28 450.527 513.076 450.843C512.871 451.153 512.769 451.471 512.769 451.797C512.769 452.577 512.979 453.236 513.399 453.773C513.826 454.304 514.368 454.57 515.026 454.57ZM523.145 454.229C522.879 455.259 522.392 456.584 521.684 458.205H520.248C520.629 456.711 520.914 455.322 521.103 454.038H523.02L523.145 454.229ZM533.247 456.014H525.021V454.536L528.15 451.39C529.074 450.444 529.686 449.775 529.984 449.382C530.289 448.983 530.51 448.61 530.648 448.261C530.787 447.912 530.856 447.539 530.856 447.14C530.856 446.593 530.69 446.161 530.358 445.846C530.031 445.53 529.578 445.372 528.997 445.372C528.532 445.372 528.081 445.458 527.644 445.63C527.212 445.801 526.711 446.111 526.141 446.559L525.087 445.273C525.762 444.703 526.418 444.299 527.054 444.061C527.691 443.823 528.368 443.704 529.088 443.704C530.217 443.704 531.122 444 531.802 444.592C532.483 445.179 532.823 445.97 532.823 446.966C532.823 447.514 532.724 448.034 532.524 448.527C532.331 449.019 532.029 449.528 531.62 450.054C531.216 450.574 530.541 451.28 529.594 452.171L527.486 454.213V454.296H533.247V456.014ZM536.301 447.514C536.301 448.339 536.382 448.953 536.542 449.357C536.702 449.761 536.965 449.963 537.331 449.963C538.061 449.963 538.426 449.146 538.426 447.514C538.426 445.882 538.061 445.065 537.331 445.065C536.965 445.065 536.702 445.267 536.542 445.671C536.382 446.075 536.301 446.689 536.301 447.514ZM540.037 447.497C540.037 448.77 539.807 449.728 539.348 450.369C538.894 451.006 538.222 451.324 537.331 451.324C536.489 451.324 535.836 450.995 535.372 450.336C534.912 449.672 534.683 448.726 534.683 447.497C534.683 444.968 535.565 443.704 537.331 443.704C538.199 443.704 538.866 444.033 539.331 444.692C539.801 445.345 540.037 446.28 540.037 447.497ZM544.204 452.362C544.204 453.186 544.284 453.803 544.444 454.213C544.61 454.622 544.876 454.827 545.241 454.827C545.966 454.827 546.329 454.005 546.329 452.362C546.329 450.74 545.966 449.93 545.241 449.93C544.876 449.93 544.61 450.129 544.444 450.527C544.284 450.926 544.204 451.537 544.204 452.362ZM547.939 452.362C547.939 453.634 547.709 454.589 547.25 455.225C546.791 455.862 546.121 456.18 545.241 456.18C544.4 456.18 543.747 455.854 543.282 455.201C542.817 454.542 542.585 453.596 542.585 452.362C542.585 449.833 543.47 448.568 545.241 448.568C546.093 448.568 546.755 448.895 547.225 449.548C547.701 450.201 547.939 451.139 547.939 452.362ZM545.474 443.878L538.742 456.014H537.131L543.863 443.878H545.474Z" fill="#211915"/>
<path d="M518.986 489.266C518.986 491.375 518.646 492.941 517.965 493.965C517.29 494.988 516.255 495.5 514.86 495.5C513.51 495.5 512.486 494.972 511.789 493.915C511.092 492.858 510.743 491.308 510.743 489.266C510.743 487.125 511.081 485.548 511.756 484.535C512.437 483.517 513.471 483.008 514.86 483.008C516.216 483.008 517.243 483.539 517.94 484.601C518.637 485.664 518.986 487.219 518.986 489.266ZM512.719 489.266C512.719 490.921 512.888 492.102 513.225 492.811C513.568 493.519 514.113 493.873 514.86 493.873C515.607 493.873 516.153 493.514 516.496 492.794C516.844 492.075 517.019 490.899 517.019 489.266C517.019 487.639 516.844 486.463 516.496 485.739C516.153 485.008 515.607 484.643 514.86 484.643C514.113 484.643 513.568 485 513.225 485.714C512.888 486.427 512.719 487.612 512.719 489.266ZM523.145 493.55C522.879 494.579 522.392 495.904 521.684 497.526H520.248C520.629 496.031 520.914 494.642 521.103 493.359H523.02L523.145 493.55ZM532.79 485.988C532.79 486.757 532.566 487.399 532.118 487.913C531.669 488.422 531.039 488.766 530.225 488.943V489.009C531.199 489.131 531.93 489.435 532.417 489.922C532.903 490.404 533.147 491.045 533.147 491.848C533.147 493.016 532.735 493.918 531.91 494.554C531.086 495.185 529.912 495.5 528.391 495.5C527.046 495.5 525.911 495.282 524.987 494.844V493.11C525.502 493.364 526.047 493.561 526.623 493.699C527.198 493.837 527.751 493.906 528.283 493.906C529.223 493.906 529.926 493.732 530.391 493.384C530.856 493.035 531.088 492.495 531.088 491.765C531.088 491.117 530.831 490.642 530.316 490.337C529.802 490.033 528.994 489.881 527.893 489.881H526.838V488.295H527.909C529.846 488.295 530.814 487.626 530.814 486.286C530.814 485.766 530.646 485.365 530.308 485.083C529.971 484.801 529.472 484.659 528.814 484.659C528.355 484.659 527.912 484.726 527.486 484.859C527.06 484.986 526.556 485.238 525.975 485.614L525.021 484.253C526.133 483.434 527.425 483.024 528.897 483.024C530.12 483.024 531.075 483.287 531.761 483.813C532.447 484.338 532.79 485.063 532.79 485.988ZM536.301 486.834C536.301 487.659 536.382 488.273 536.542 488.677C536.702 489.081 536.965 489.283 537.331 489.283C538.061 489.283 538.426 488.467 538.426 486.834C538.426 485.202 538.061 484.385 537.331 484.385C536.965 484.385 536.702 484.587 536.542 484.991C536.382 485.395 536.301 486.01 536.301 486.834ZM540.037 486.818C540.037 488.09 539.807 489.048 539.348 489.69C538.894 490.326 538.222 490.644 537.331 490.644C536.489 490.644 535.836 490.315 535.372 489.656C534.912 488.992 534.683 488.046 534.683 486.818C534.683 484.289 535.565 483.024 537.331 483.024C538.199 483.024 538.866 483.353 539.331 484.012C539.801 484.665 540.037 485.6 540.037 486.818ZM544.204 491.682C544.204 492.506 544.284 493.123 544.444 493.533C544.61 493.942 544.876 494.147 545.241 494.147C545.966 494.147 546.329 493.325 546.329 491.682C546.329 490.06 545.966 489.25 545.241 489.25C544.876 489.25 544.61 489.449 544.444 489.847C544.284 490.246 544.204 490.857 544.204 491.682ZM547.939 491.682C547.939 492.955 547.709 493.909 547.25 494.546C546.791 495.182 546.121 495.5 545.241 495.5C544.4 495.5 543.747 495.174 543.282 494.521C542.817 493.862 542.585 492.916 542.585 491.682C542.585 489.153 543.47 487.888 545.241 487.888C546.093 487.888 546.755 488.215 547.225 488.868C547.701 489.521 547.939 490.459 547.939 491.682ZM545.474 483.198L538.742 495.334H537.131L543.863 483.198H545.474Z" fill="#211915"/>
<path d="M516.487 540.497H514.537V532.661C514.537 531.726 514.559 530.984 514.603 530.437C514.476 530.569 514.318 530.716 514.13 530.876C513.947 531.037 513.327 531.546 512.271 532.404L511.291 531.167L514.86 528.361H516.487V540.497ZM528.681 533.541C528.681 535.932 528.2 537.716 527.237 538.895C526.274 540.074 524.824 540.663 522.887 540.663C522.151 540.663 521.623 540.619 521.302 540.53V538.895C521.794 539.033 522.29 539.103 522.788 539.103C524.105 539.103 525.087 538.748 525.734 538.04C526.382 537.332 526.736 536.219 526.797 534.703H526.697C526.371 535.201 525.975 535.561 525.51 535.782C525.051 536.004 524.511 536.114 523.892 536.114C522.818 536.114 521.974 535.779 521.36 535.11C520.746 534.44 520.438 533.522 520.438 532.354C520.438 531.087 520.793 530.08 521.501 529.333C522.215 528.58 523.186 528.204 524.415 528.204C525.278 528.204 526.03 528.414 526.672 528.834C527.314 529.255 527.81 529.867 528.158 530.669C528.507 531.466 528.681 532.423 528.681 533.541ZM524.448 529.822C523.773 529.822 523.255 530.044 522.896 530.486C522.536 530.924 522.356 531.541 522.356 532.337C522.356 533.029 522.522 533.574 522.854 533.973C523.192 534.366 523.701 534.562 524.381 534.562C525.04 534.562 525.593 534.366 526.042 533.973C526.49 533.58 526.714 533.12 526.714 532.595C526.714 532.102 526.617 531.643 526.423 531.217C526.235 530.785 525.97 530.445 525.626 530.196C525.283 529.947 524.89 529.822 524.448 529.822ZM531.752 531.997C531.752 532.822 531.833 533.436 531.993 533.84C532.154 534.244 532.417 534.446 532.782 534.446C533.512 534.446 533.877 533.63 533.877 531.997C533.877 530.365 533.512 529.548 532.782 529.548C532.417 529.548 532.154 529.75 531.993 530.154C531.833 530.558 531.752 531.173 531.752 531.997ZM535.488 531.98C535.488 533.253 535.258 534.211 534.799 534.853C534.345 535.489 533.673 535.807 532.782 535.807C531.941 535.807 531.288 535.478 530.823 534.819C530.363 534.155 530.134 533.209 530.134 531.98C530.134 529.451 531.016 528.187 532.782 528.187C533.651 528.187 534.317 528.516 534.782 529.175C535.253 529.828 535.488 530.763 535.488 531.98ZM539.655 536.845C539.655 537.669 539.735 538.286 539.896 538.696C540.062 539.105 540.327 539.31 540.692 539.31C541.417 539.31 541.78 538.488 541.78 536.845C541.78 535.223 541.417 534.413 540.692 534.413C540.327 534.413 540.062 534.612 539.896 535.01C539.735 535.409 539.655 536.02 539.655 536.845ZM543.39 536.845C543.39 538.118 543.16 539.072 542.701 539.708C542.242 540.345 541.572 540.663 540.692 540.663C539.851 540.663 539.198 540.337 538.733 539.684C538.269 539.025 538.036 538.079 538.036 536.845C538.036 534.316 538.922 533.051 540.692 533.051C541.545 533.051 542.206 533.378 542.676 534.031C543.152 534.684 543.39 535.622 543.39 536.845ZM540.925 528.361L534.193 540.497H532.583L539.314 528.361H540.925Z" fill="#211915"/>
<path d="M518.986 573.168C518.986 575.277 518.646 576.843 517.965 577.867C517.29 578.89 516.255 579.402 514.86 579.402C513.51 579.402 512.486 578.874 511.789 577.817C511.092 576.76 510.743 575.21 510.743 573.168C510.743 571.027 511.081 569.45 511.756 568.437C512.437 567.419 513.471 566.91 514.86 566.91C516.216 566.91 517.243 567.441 517.94 568.503C518.637 569.566 518.986 571.121 518.986 573.168ZM512.719 573.168C512.719 574.823 512.888 576.005 513.225 576.713C513.568 577.421 514.113 577.775 514.86 577.775C515.607 577.775 516.153 577.416 516.496 576.696C516.844 575.977 517.019 574.801 517.019 573.168C517.019 571.542 516.844 570.366 516.496 569.641C516.153 568.91 515.607 568.545 514.86 568.545C514.113 568.545 513.568 568.902 513.225 569.616C512.888 570.33 512.719 571.514 512.719 573.168ZM523.145 577.452C522.879 578.481 522.392 579.806 521.684 581.428H520.248C520.629 579.934 520.914 578.545 521.103 577.261H523.02L523.145 577.452ZM533.247 579.236H525.021V577.759L528.15 574.613C529.074 573.667 529.686 572.997 529.984 572.604C530.289 572.206 530.51 571.832 530.648 571.483C530.787 571.135 530.856 570.761 530.856 570.363C530.856 569.815 530.69 569.383 530.358 569.068C530.031 568.752 529.578 568.595 528.997 568.595C528.532 568.595 528.081 568.681 527.644 568.852C527.212 569.024 526.711 569.333 526.141 569.782L525.087 568.495C525.762 567.925 526.418 567.521 527.054 567.283C527.691 567.045 528.368 566.926 529.088 566.926C530.217 566.926 531.122 567.222 531.802 567.814C532.483 568.401 532.823 569.192 532.823 570.188C532.823 570.736 532.724 571.257 532.524 571.749C532.331 572.242 532.029 572.751 531.62 573.276C531.216 573.797 530.541 574.502 529.594 575.393L527.486 577.435V577.518H533.247V579.236ZM536.301 570.736C536.301 571.561 536.382 572.175 536.542 572.579C536.702 572.983 536.965 573.185 537.331 573.185C538.061 573.185 538.426 572.369 538.426 570.736C538.426 569.104 538.061 568.288 537.331 568.288C536.965 568.288 536.702 568.49 536.542 568.894C536.382 569.298 536.301 569.912 536.301 570.736ZM540.037 570.72C540.037 571.993 539.807 572.95 539.348 573.592C538.894 574.228 538.222 574.546 537.331 574.546C536.489 574.546 535.836 574.217 535.372 573.559C534.912 572.895 534.683 571.948 534.683 570.72C534.683 568.191 535.565 566.926 537.331 566.926C538.199 566.926 538.866 567.256 539.331 567.914C539.801 568.567 540.037 569.502 540.037 570.72ZM544.204 575.584C544.204 576.409 544.284 577.026 544.444 577.435C544.61 577.845 544.876 578.049 545.241 578.049C545.966 578.049 546.329 577.228 546.329 575.584C546.329 573.963 545.966 573.152 545.241 573.152C544.876 573.152 544.61 573.351 544.444 573.75C544.284 574.148 544.204 574.759 544.204 575.584ZM547.939 575.584C547.939 576.857 547.709 577.811 547.25 578.448C546.791 579.084 546.121 579.402 545.241 579.402C544.4 579.402 543.747 579.076 543.282 578.423C542.817 577.764 542.585 576.818 542.585 575.584C542.585 573.055 543.47 571.791 545.241 571.791C546.093 571.791 546.755 572.117 547.225 572.77C547.701 573.423 547.939 574.361 547.939 575.584ZM545.474 567.101L538.742 579.236H537.131L543.863 567.101H545.474Z" fill="#211915"/>
<path d="M518.986 606.427C518.986 608.535 518.646 610.101 517.965 611.125C517.29 612.149 516.255 612.661 514.86 612.661C513.51 612.661 512.486 612.132 511.789 611.075C511.092 610.018 510.743 608.469 510.743 606.427C510.743 604.285 511.081 602.708 511.756 601.695C512.437 600.677 513.471 600.168 514.86 600.168C516.216 600.168 517.243 600.699 517.94 601.762C518.637 602.824 518.986 604.379 518.986 606.427ZM512.719 606.427C512.719 608.081 512.888 609.263 513.225 609.971C513.568 610.68 514.113 611.034 514.86 611.034C515.607 611.034 516.153 610.674 516.496 609.955C516.844 609.235 517.019 608.059 517.019 606.427C517.019 604.8 516.844 603.624 516.496 602.899C516.153 602.168 515.607 601.803 514.86 601.803C514.113 601.803 513.568 602.16 513.225 602.874C512.888 603.588 512.719 604.772 512.719 606.427ZM523.145 610.71C522.879 611.739 522.392 613.065 521.684 614.686H520.248C520.629 613.192 520.914 611.803 521.103 610.519H523.02L523.145 610.71ZM529.121 600.201C530.272 600.201 531.182 600.467 531.852 600.998C532.522 601.524 532.856 602.229 532.856 603.115C532.856 604.36 532.109 605.35 530.615 606.086C531.567 606.562 532.242 607.063 532.641 607.589C533.045 608.115 533.247 608.701 533.247 609.349C533.247 610.35 532.879 611.153 532.143 611.756C531.407 612.359 530.41 612.661 529.154 612.661C527.837 612.661 526.816 612.378 526.091 611.814C525.366 611.25 525.004 610.45 525.004 609.415C525.004 608.74 525.192 608.134 525.568 607.597C525.95 607.055 526.573 606.573 527.436 606.153C526.694 605.71 526.166 605.243 525.851 604.75C525.535 604.257 525.377 603.704 525.377 603.09C525.377 602.21 525.723 601.51 526.415 600.99C527.107 600.464 528.009 600.201 529.121 600.201ZM526.872 609.349C526.872 609.924 527.074 610.372 527.478 610.693C527.882 611.009 528.429 611.167 529.121 611.167C529.835 611.167 530.388 611.003 530.781 610.677C531.18 610.345 531.379 609.896 531.379 609.332C531.379 608.884 531.196 608.474 530.831 608.104C530.466 607.733 529.912 607.39 529.171 607.074L528.93 606.966C528.2 607.287 527.674 607.641 527.353 608.029C527.032 608.411 526.872 608.851 526.872 609.349ZM529.104 601.704C528.551 601.704 528.106 601.842 527.768 602.119C527.431 602.39 527.262 602.761 527.262 603.231C527.262 603.519 527.323 603.776 527.444 604.003C527.566 604.23 527.743 604.437 527.976 604.625C528.208 604.808 528.601 605.029 529.154 605.29C529.818 604.996 530.286 604.689 530.557 604.368C530.834 604.042 530.972 603.663 530.972 603.231C530.972 602.761 530.801 602.39 530.458 602.119C530.12 601.842 529.669 601.704 529.104 601.704ZM536.301 603.995C536.301 604.819 536.382 605.433 536.542 605.837C536.702 606.241 536.965 606.443 537.331 606.443C538.061 606.443 538.426 605.627 538.426 603.995C538.426 602.362 538.061 601.546 537.331 601.546C536.965 601.546 536.702 601.748 536.542 602.152C536.382 602.556 536.301 603.17 536.301 603.995ZM540.037 603.978C540.037 605.251 539.807 606.208 539.348 606.85C538.894 607.486 538.222 607.805 537.331 607.805C536.489 607.805 535.836 607.475 535.372 606.817C534.912 606.153 534.683 605.207 534.683 603.978C534.683 601.449 535.565 600.185 537.331 600.185C538.199 600.185 538.866 600.514 539.331 601.172C539.801 601.825 540.037 602.761 540.037 603.978ZM544.204 608.842C544.204 609.667 544.284 610.284 544.444 610.693C544.61 611.103 544.876 611.308 545.241 611.308C545.966 611.308 546.329 610.486 546.329 608.842C546.329 607.221 545.966 606.41 545.241 606.41C544.876 606.41 544.61 606.609 544.444 607.008C544.284 607.406 544.204 608.018 544.204 608.842ZM547.939 608.842C547.939 610.115 547.709 611.07 547.25 611.706C546.791 612.342 546.121 612.661 545.241 612.661C544.4 612.661 543.747 612.334 543.282 611.681C542.817 611.023 542.585 610.076 542.585 608.842C542.585 606.313 543.47 605.049 545.241 605.049C546.093 605.049 546.755 605.375 547.225 606.028C547.701 606.681 547.939 607.619 547.939 608.842ZM545.474 600.359L538.742 612.495H537.131L543.863 600.359H545.474Z" fill="#211915"/>
<path d="M204.213 138.503V74.3543H501.61" stroke="#020202" stroke-width="0.5" stroke-miterlimit="10"/>
<path d="M501.511 76.4151C502.648 76.4151 503.57 75.4925 503.57 74.3543C503.57 73.2161 502.648 72.2935 501.511 72.2935C500.373 72.2935 499.451 73.2161 499.451 74.3543C499.451 75.4925 500.373 76.4151 501.511 76.4151Z" fill="#020202"/>
<path d="M300.639 130.654V106.231H501.609" stroke="#020202" stroke-width="0.5" stroke-miterlimit="10"/>
<path d="M501.511 108.292C502.648 108.292 503.57 107.37 503.57 106.231C503.57 105.093 502.648 104.171 501.511 104.171C500.373 104.171 499.451 105.093 499.451 106.231C499.451 107.37 500.373 108.292 501.511 108.292Z" fill="#020202"/>
<path d="M138.734 410.061V611.661H502.333" stroke="#020202" stroke-width="0.5" stroke-miterlimit="10"/>
<path d="M502.223 613.722C503.36 613.722 504.282 612.799 504.282 611.661C504.282 610.523 503.36 609.6 502.223 609.6C501.085 609.6 500.163 610.523 500.163 611.661C500.163 612.799 501.085 613.722 502.223 613.722Z" fill="#020202"/>
<path d="M220.054 460.924V540.025H500.886" stroke="#020202" stroke-width="0.5" stroke-miterlimit="10"/>
<path d="M500.788 542.086C501.926 542.086 502.848 541.163 502.848 540.025C502.848 538.887 501.926 537.964 500.788 537.964C499.651 537.964 498.729 538.887 498.729 540.025C498.729 541.163 499.651 542.086 500.788 542.086Z" fill="#020202"/>
<path d="M346.694 446.038V455.761H502.333" stroke="#020202" stroke-width="0.5" stroke-miterlimit="10"/>
<path d="M502.223 457.822C503.36 457.822 504.282 456.899 504.282 455.761C504.282 454.623 503.36 453.7 502.223 453.7C501.085 453.7 500.163 454.623 500.163 455.761C500.163 456.899 501.085 457.822 502.223 457.822Z" fill="#020202"/>
<path d="M310.038 460.475V494.851H502.332" stroke="#020202" stroke-width="0.5" stroke-miterlimit="10"/>
<path d="M502.223 496.912C503.36 496.912 504.282 495.989 504.282 494.851C504.282 493.713 503.36 492.79 502.223 492.79C501.085 492.79 500.163 493.713 500.163 494.851C500.163 495.989 501.085 496.912 502.223 496.912Z" fill="#020202"/>
<path d="M371.146 164.143H502.332" stroke="#020202" stroke-width="0.5" stroke-miterlimit="10"/>
<path d="M502.223 166.204C503.36 166.204 504.282 165.281 504.282 164.143C504.282 163.005 503.36 162.082 502.223 162.082C501.085 162.082 500.163 163.005 500.163 164.143C500.163 165.281 501.085 166.204 502.223 166.204Z" fill="#020202"/>
<path d="M430.522 333.35H502.333" stroke="#020202" stroke-width="0.5" stroke-miterlimit="10"/>
<path d="M502.223 335.411C503.36 335.411 504.282 334.488 504.282 333.35C504.282 332.212 503.36 331.289 502.223 331.289C501.085 331.289 500.163 332.212 500.163 333.35C500.163 334.488 501.085 335.411 502.223 335.411Z" fill="#020202"/>
<path d="M142.262 412.725V578.633H502.332" stroke="#020202" stroke-width="0.5" stroke-miterlimit="10"/>
<path d="M502.223 580.694C503.36 580.694 504.282 579.771 504.282 578.633C504.282 577.495 503.36 576.572 502.223 576.572C501.085 576.572 500.163 577.495 500.163 578.633C500.163 579.771 501.085 580.694 502.223 580.694Z" fill="#020202"/>
<path d="M177.461 315.714L189.962 287.5H174.199V279.357H200.471V285.159L187.646 315.714H177.461ZM207.344 315.714L219.845 287.5H204.082V279.357H230.354V285.159L217.529 315.714H207.344ZM234.164 311.581C234.164 310.053 234.612 308.875 235.509 308.044C236.422 307.214 237.742 306.799 239.468 306.799C241.112 306.799 242.374 307.214 243.253 308.044C244.133 308.875 244.573 310.053 244.573 311.581C244.573 313.075 244.117 314.245 243.204 315.092C242.307 315.922 241.062 316.337 239.468 316.337C237.825 316.337 236.53 315.922 235.583 315.092C234.637 314.262 234.164 313.091 234.164 311.581ZM274.854 297.561C274.854 304.002 273.775 308.725 271.617 311.73C269.459 314.718 266.155 316.212 261.706 316.212C257.356 316.212 254.078 314.652 251.87 311.531C249.662 308.393 248.558 303.736 248.558 297.561C248.558 291.086 249.637 286.338 251.795 283.316C253.953 280.295 257.257 278.784 261.706 278.784C266.039 278.784 269.31 280.361 271.518 283.516C273.742 286.653 274.854 291.335 274.854 297.561ZM258.344 297.561C258.344 301.678 258.602 304.508 259.116 306.052C259.631 307.596 260.494 308.368 261.706 308.368C262.935 308.368 263.798 307.571 264.296 305.978C264.811 304.384 265.068 301.578 265.068 297.561C265.068 293.526 264.811 290.704 264.296 289.094C263.781 287.467 262.918 286.653 261.706 286.653C260.494 286.653 259.631 287.434 259.116 288.994C258.602 290.555 258.344 293.41 258.344 297.561ZM304.862 295.967C304.862 303.089 303.326 308.244 300.255 311.431C297.184 314.619 292.27 316.212 285.513 316.212C283.288 316.212 281.595 316.129 280.433 315.963V308.169C281.86 308.435 283.288 308.567 284.716 308.567C288.235 308.567 290.95 307.845 292.859 306.401C294.768 304.94 295.806 302.641 295.972 299.503H295.673C295.025 300.698 294.386 301.562 293.755 302.093C293.125 302.624 292.353 303.031 291.439 303.313C290.526 303.595 289.389 303.736 288.028 303.736C284.874 303.736 282.408 302.682 280.632 300.574C278.855 298.465 277.967 295.56 277.967 291.858C277.967 287.824 279.113 284.661 281.404 282.37C283.711 280.079 286.866 278.934 290.867 278.934C295.316 278.934 298.761 280.411 301.201 283.366C303.642 286.321 304.862 290.522 304.862 295.967ZM291.141 286.803C290.062 286.803 289.182 287.193 288.501 287.973C287.837 288.753 287.505 290.007 287.505 291.733C287.505 293.095 287.795 294.182 288.376 294.996C288.958 295.793 289.846 296.191 291.041 296.191C292.12 296.191 293.058 295.801 293.855 295.021C294.652 294.24 295.05 293.302 295.05 292.207C295.05 290.729 294.677 289.459 293.93 288.397C293.199 287.334 292.27 286.803 291.141 286.803ZM334.62 297.561C334.62 304.002 333.541 308.725 331.383 311.73C329.225 314.718 325.921 316.212 321.472 316.212C317.122 316.212 313.843 314.652 311.635 311.531C309.427 308.393 308.323 303.736 308.323 297.561C308.323 291.086 309.402 286.338 311.561 283.316C313.719 280.295 317.022 278.784 321.472 278.784C325.805 278.784 329.075 280.361 331.283 283.516C333.508 286.653 334.62 291.335 334.62 297.561ZM318.11 297.561C318.11 301.678 318.367 304.508 318.882 306.052C319.396 307.596 320.26 308.368 321.472 308.368C322.7 308.368 323.563 307.571 324.062 305.978C324.576 304.384 324.833 301.578 324.833 297.561C324.833 293.526 324.576 290.704 324.062 289.094C323.547 287.467 322.684 286.653 321.472 286.653C320.26 286.653 319.396 287.434 318.882 288.994C318.367 290.555 318.11 293.41 318.11 297.561Z" fill="#211915"/>
<path d="M169.474 380.157L135.514 406.707C137.924 409.557 140.443 412.308 143.029 414.994L174.229 385.309C173.309 384.367 172.41 383.402 171.512 382.426C170.822 381.681 170.143 380.925 169.474 380.157Z" fill="#AE5A40"/>
<path d="M266.733 170.15V127.059H266.108V170.161L266.733 170.15Z" fill="#004756"/>
<path d="M138.373 296.935C138.373 263.304 151.724 231.05 175.491 207.269C199.257 183.488 231.49 170.128 265.101 170.128H266.109V127.037H265.101C232.719 127.041 201.013 136.309 173.722 153.75C146.431 171.19 124.693 196.076 111.071 225.471C97.4495 254.867 92.5118 287.547 96.8405 319.659C101.169 351.77 114.584 381.973 135.503 406.707L169.463 380.157C149.373 357.097 138.326 327.527 138.373 296.935V296.935Z" fill="#004756"/>
<path d="M332.694 189.662L358.843 155.264C331.525 137.119 299.521 127.319 266.733 127.059V170.15C290.102 170.415 312.937 177.17 332.694 189.662V189.662Z" fill="#73B3C0"/>
<path d="M265.101 423.753C248.142 423.779 231.351 420.389 215.73 413.784C200.108 407.179 185.975 397.495 174.174 385.309L142.974 414.994C164.775 437.551 192.387 453.634 222.755 461.463C253.124 469.293 285.065 468.564 315.045 459.357L298.733 419.225C287.776 422.238 276.463 423.76 265.101 423.753V423.753Z" fill="#00646E"/>
<path d="M298.732 419.225L315.088 459.357C338.706 452.086 360.451 439.74 378.803 423.183L352.686 388.598C337.522 403.132 318.98 413.658 298.732 419.225V419.225Z" fill="#B77E4A"/>
<path d="M348.688 201.665L378.584 170.577C372.395 164.986 365.805 159.856 358.865 155.231L332.693 189.662C336.451 192.041 348.688 201.665 348.688 201.665Z" fill="#474747"/>
<path d="M389.966 272.293L432.789 270.1L389.955 272.238L389.966 272.293Z" fill="#5992B8"/>
<path d="M432.79 270.078C426.656 231.674 407.519 196.545 378.584 170.578L348.71 201.654L349.061 201.95C371.321 221.682 385.815 241.336 389.934 272.293V272.216L432.79 270.078Z" fill="#E4C55A"/>
<path d="M430.534 266.373L389.452 268.566C390.044 272.95 391.566 286.006 391.763 292.495L391.84 296.88C391.894 325.477 382.237 353.245 364.452 375.63C360.845 380.181 356.932 384.481 352.741 388.499L378.847 423.084C386.098 416.523 392.779 409.357 398.818 401.665C413.224 383.239 423.679 362.039 429.532 339.39C435.384 316.74 436.508 293.127 432.834 270.024L430.534 266.373Z" fill="#E4C55A"/>
<path d="M174.228 385.309L143.028 414.994L139.917 411.629L171.829 382.755L174.228 385.309Z" fill="#643623"/>
<path d="M298.743 419.225L295.512 420.069L308.209 461.319L311.627 460.387C312.492 460.146 315.088 459.357 315.088 459.357L298.743 419.225Z" fill="#A73839"/>
<path d="M47.0845 659.688C45.9077 659.688 44.9775 660.081 44.2939 660.867C43.6152 661.648 43.2759 662.72 43.2759 664.082C43.2759 665.484 43.603 666.568 44.2573 667.334C44.9165 668.096 45.854 668.477 47.0698 668.477C47.8169 668.477 48.6689 668.343 49.626 668.074V669.165C48.8838 669.444 47.9683 669.583 46.8794 669.583C45.3022 669.583 44.084 669.104 43.2246 668.147C42.3701 667.19 41.9429 665.831 41.9429 664.068C41.9429 662.964 42.1479 661.997 42.5581 661.167C42.9731 660.337 43.5688 659.698 44.3452 659.248C45.1265 658.799 46.0444 658.575 47.0991 658.575C48.2222 658.575 49.2036 658.78 50.0435 659.19L49.5161 660.259C48.7056 659.878 47.895 659.688 47.0845 659.688ZM58.6934 669.436L57.3604 666.031H53.0684L51.75 669.436H50.4902L54.7236 658.685H55.771L59.9824 669.436H58.6934ZM56.9722 664.91L55.7271 661.592C55.5659 661.172 55.3999 660.657 55.229 660.047C55.1216 660.516 54.9678 661.031 54.7676 661.592L53.5078 664.91H56.9722ZM62.6997 664.983V669.436H61.4546V658.728H64.3916C65.7051 658.728 66.6743 658.98 67.2993 659.483C67.9292 659.986 68.2441 660.743 68.2441 661.753C68.2441 663.169 67.5264 664.126 66.0908 664.624L68.9985 669.436H67.5264L64.9336 664.983H62.6997ZM62.6997 663.914H64.4062C65.2852 663.914 65.9297 663.741 66.3398 663.394C66.75 663.042 66.9551 662.518 66.9551 661.819C66.9551 661.111 66.7451 660.601 66.3252 660.289C65.9102 659.976 65.2412 659.82 64.3184 659.82H62.6997V663.914ZM70.7271 658.728H73.752C75.1729 658.728 76.2007 658.941 76.8354 659.366C77.4702 659.79 77.7876 660.462 77.7876 661.38C77.7876 662.015 77.6094 662.539 77.2529 662.955C76.9014 663.365 76.3862 663.631 75.7075 663.753V663.826C77.3335 664.104 78.1465 664.959 78.1465 666.39C78.1465 667.347 77.8218 668.094 77.1724 668.631C76.5278 669.168 75.6245 669.436 74.4624 669.436H70.7271V658.728ZM71.9722 663.313H74.0229C74.9019 663.313 75.5342 663.177 75.9199 662.903C76.3057 662.625 76.4985 662.159 76.4985 661.504C76.4985 660.904 76.2837 660.472 75.854 660.208C75.4243 659.939 74.7407 659.805 73.8032 659.805H71.9722V663.313ZM71.9722 664.368V668.374H74.2061C75.0703 668.374 75.7197 668.208 76.1543 667.876C76.5938 667.539 76.8135 667.015 76.8135 666.302C76.8135 665.638 76.5889 665.149 76.1396 664.837C75.6953 664.524 75.0166 664.368 74.1035 664.368H71.9722ZM89.748 664.068C89.748 665.782 89.3135 667.129 88.4443 668.111C87.5801 669.092 86.3765 669.583 84.8335 669.583C83.2563 669.583 82.0381 669.102 81.1787 668.14C80.3242 667.173 79.897 665.811 79.897 664.053C79.897 662.31 80.3267 660.96 81.186 660.003C82.0454 659.041 83.2661 658.56 84.8481 658.56C86.3862 658.56 87.5874 659.048 88.4517 660.025C89.3159 661.001 89.748 662.349 89.748 664.068ZM81.2153 664.068C81.2153 665.518 81.5229 666.619 82.1382 667.371C82.7583 668.118 83.6567 668.492 84.8335 668.492C86.02 668.492 86.916 668.118 87.5215 667.371C88.127 666.624 88.4297 665.523 88.4297 664.068C88.4297 662.627 88.127 661.536 87.5215 660.794C86.9209 660.047 86.0298 659.673 84.8481 659.673C83.6616 659.673 82.7583 660.049 82.1382 660.801C81.5229 661.548 81.2153 662.637 81.2153 664.068ZM83.8081 657.688C84.0425 657.386 84.2939 657.019 84.5625 656.59C84.8359 656.16 85.0508 655.787 85.207 655.469H86.6865V655.623C86.4717 655.94 86.1519 656.331 85.7271 656.795C85.3022 657.259 84.9336 657.618 84.6211 657.872H83.8081V657.688ZM100.507 669.436H99.0864L93.2344 660.45H93.1758C93.2539 661.504 93.293 662.471 93.293 663.35V669.436H92.1431V658.728H93.5493L99.3867 667.679H99.4453C99.4355 667.547 99.4136 667.124 99.3794 666.412C99.3452 665.694 99.333 665.181 99.3428 664.873V658.728H100.507V669.436Z" fill="#211915"/>
<path d="M254.5 669.436H248.531V658.728H254.5V659.834H249.776V663.284H254.214V664.383H249.776V668.323H254.5V669.436ZM266.175 664.068C266.175 665.782 265.74 667.129 264.871 668.111C264.007 669.092 262.803 669.583 261.26 669.583C259.683 669.583 258.465 669.102 257.605 668.14C256.751 667.173 256.324 665.811 256.324 664.053C256.324 662.31 256.753 660.96 257.613 660.003C258.472 659.041 259.693 658.56 261.275 658.56C262.813 658.56 264.014 659.048 264.878 660.025C265.743 661.001 266.175 662.349 266.175 664.068ZM257.642 664.068C257.642 665.518 257.95 666.619 258.565 667.371C259.185 668.118 260.083 668.492 261.26 668.492C262.447 668.492 263.343 668.118 263.948 667.371C264.554 666.624 264.856 665.523 264.856 664.068C264.856 662.627 264.554 661.536 263.948 660.794C263.348 660.047 262.457 659.673 261.275 659.673C260.088 659.673 259.185 660.049 258.565 660.801C257.95 661.548 257.642 662.637 257.642 664.068ZM260.235 657.688C260.469 657.386 260.721 657.019 260.989 656.59C261.263 656.16 261.478 655.787 261.634 655.469H263.113V655.623C262.898 655.94 262.579 656.331 262.154 656.795C261.729 657.259 261.36 657.618 261.048 657.872H260.235V657.688ZM268.57 669.436V658.728H269.815V668.309H274.539V669.436H268.57ZM276.363 669.436V658.728H277.608V669.436H276.363ZM285.137 659.688C283.96 659.688 283.03 660.081 282.347 660.867C281.668 661.648 281.329 662.72 281.329 664.082C281.329 665.484 281.656 666.568 282.31 667.334C282.969 668.096 283.907 668.477 285.123 668.477C285.87 668.477 286.722 668.343 287.679 668.074V669.165C286.937 669.444 286.021 669.583 284.932 669.583C283.355 669.583 282.137 669.104 281.277 668.147C280.423 667.19 279.996 665.831 279.996 664.068C279.996 662.964 280.201 661.997 280.611 661.167C281.026 660.337 281.622 659.698 282.398 659.248C283.179 658.799 284.097 658.575 285.152 658.575C286.275 658.575 287.256 658.78 288.096 659.19L287.569 660.259C286.758 659.878 285.948 659.688 285.137 659.688ZM296.746 669.436L295.413 666.031H291.121L289.803 669.436H288.543L292.776 658.685H293.824L298.035 669.436H296.746ZM295.025 664.91L293.78 661.592C293.619 661.172 293.453 660.657 293.282 660.047C293.174 660.516 293.021 661.031 292.82 661.592L291.561 664.91H295.025Z" fill="#211915"/>
<path d="M252.055 710.414H255.695V715.622C255.128 715.802 254.552 715.939 253.966 716.032C253.38 716.125 252.702 716.171 251.93 716.171C250.309 716.171 249.047 715.69 248.144 714.728C247.24 713.761 246.789 712.409 246.789 710.67C246.789 709.557 247.011 708.583 247.455 707.748C247.904 706.908 248.549 706.269 249.389 705.829C250.229 705.385 251.212 705.163 252.34 705.163C253.483 705.163 254.547 705.373 255.534 705.792L255.05 706.891C254.083 706.481 253.153 706.276 252.26 706.276C250.956 706.276 249.938 706.664 249.206 707.44C248.473 708.217 248.107 709.293 248.107 710.67C248.107 712.116 248.458 713.212 249.162 713.959C249.87 714.706 250.907 715.08 252.274 715.08C253.017 715.08 253.742 714.994 254.45 714.823V711.527H252.055V710.414ZM264.242 716.024H258.273V705.316H264.242V706.422H259.518V709.872H263.957V710.971H259.518V714.911H264.242V716.024ZM275.917 710.656C275.917 712.37 275.482 713.717 274.613 714.699C273.749 715.68 272.545 716.171 271.002 716.171C269.425 716.171 268.207 715.69 267.348 714.728C266.493 713.761 266.066 712.399 266.066 710.641C266.066 708.898 266.496 707.548 267.355 706.591C268.214 705.629 269.435 705.148 271.017 705.148C272.555 705.148 273.756 705.636 274.621 706.613C275.485 707.589 275.917 708.937 275.917 710.656ZM267.384 710.656C267.384 712.106 267.692 713.207 268.307 713.959C268.927 714.706 269.826 715.08 271.002 715.08C272.189 715.08 273.085 714.706 273.69 713.959C274.296 713.212 274.599 712.111 274.599 710.656C274.599 709.215 274.296 708.124 273.69 707.382C273.09 706.635 272.199 706.261 271.017 706.261C269.831 706.261 268.927 706.637 268.307 707.389C267.692 708.136 267.384 709.225 267.384 710.656ZM281.608 716.024H280.363V706.422H276.972V705.316H284.999V706.422H281.608V716.024ZM292.587 716.024H286.618V705.316H292.587V706.422H287.863V709.872H292.301V710.971H287.863V714.911H292.587V716.024ZM288.485 704.276C288.72 703.974 288.971 703.607 289.24 703.178C289.513 702.748 289.728 702.375 289.884 702.057H291.364V702.211C291.149 702.528 290.829 702.919 290.404 703.383C289.979 703.847 289.611 704.206 289.298 704.459H288.485V704.276ZM296.212 711.571V716.024H294.967V705.316H297.904C299.218 705.316 300.187 705.568 300.812 706.071C301.442 706.574 301.757 707.331 301.757 708.341C301.757 709.757 301.039 710.714 299.604 711.212L302.511 716.024H301.039L298.446 711.571H296.212ZM296.212 710.502H297.919C298.798 710.502 299.442 710.329 299.853 709.982C300.263 709.63 300.468 709.105 300.468 708.407C300.468 707.699 300.258 707.189 299.838 706.876C299.423 706.564 298.754 706.408 297.831 706.408H296.212V710.502ZM308.979 716.024L305.346 706.532H305.287C305.355 707.284 305.39 708.178 305.39 709.213V716.024H304.24V705.316H306.115L309.506 714.149H309.564L312.985 705.316H314.845V716.024H313.6V709.125C313.6 708.334 313.634 707.475 313.703 706.547H313.644L309.982 716.024H308.979ZM317.79 716.024V705.316H319.035V716.024H317.79ZM326.564 706.276C325.387 706.276 324.457 706.669 323.773 707.455C323.095 708.236 322.755 709.308 322.755 710.67C322.755 712.072 323.083 713.156 323.737 713.922C324.396 714.684 325.333 715.065 326.549 715.065C327.296 715.065 328.148 714.931 329.105 714.662V715.753C328.363 716.032 327.448 716.171 326.359 716.171C324.782 716.171 323.563 715.692 322.704 714.735C321.85 713.778 321.422 712.418 321.422 710.656C321.422 709.552 321.627 708.585 322.038 707.755C322.453 706.925 323.048 706.286 323.825 705.836C324.606 705.387 325.524 705.163 326.579 705.163C327.702 705.163 328.683 705.368 329.523 705.778L328.996 706.847C328.185 706.466 327.375 706.276 326.564 706.276ZM338.173 716.024L336.84 712.619H332.548L331.229 716.024H329.97L334.203 705.272H335.25L339.462 716.024H338.173ZM336.452 711.498L335.207 708.18C335.045 707.76 334.879 707.245 334.708 706.635C334.601 707.104 334.447 707.619 334.247 708.18L332.987 711.498H336.452Z" fill="#211915"/>
<path d="M252.055 756.574H255.695V761.782C255.128 761.963 254.552 762.099 253.966 762.192C253.38 762.285 252.702 762.331 251.93 762.331C250.309 762.331 249.047 761.85 248.144 760.888C247.24 759.922 246.789 758.569 246.789 756.831C246.789 755.718 247.011 754.743 247.455 753.908C247.904 753.069 248.549 752.429 249.389 751.99C250.229 751.545 251.212 751.323 252.34 751.323C253.483 751.323 254.547 751.533 255.534 751.953L255.05 753.052C254.083 752.641 253.153 752.436 252.26 752.436C250.956 752.436 249.938 752.824 249.206 753.601C248.473 754.377 248.107 755.454 248.107 756.831C248.107 758.276 248.458 759.372 249.162 760.119C249.87 760.866 250.907 761.24 252.274 761.24C253.017 761.24 253.742 761.155 254.45 760.984V757.688H252.055V756.574ZM265.004 762.185L263.671 758.779H259.379L258.061 762.185H256.801L261.034 751.433H262.082L266.293 762.185H265.004ZM263.283 757.658L262.038 754.341C261.876 753.921 261.71 753.406 261.54 752.795C261.432 753.264 261.278 753.779 261.078 754.341L259.818 757.658H263.283ZM273.808 759.336C273.808 760.278 273.466 761.013 272.782 761.54C272.099 762.068 271.171 762.331 269.999 762.331C268.729 762.331 267.753 762.168 267.069 761.841V760.639C267.509 760.825 267.987 760.971 268.505 761.079C269.022 761.186 269.535 761.24 270.043 761.24C270.873 761.24 271.498 761.084 271.918 760.771C272.338 760.454 272.548 760.014 272.548 759.453C272.548 759.082 272.472 758.779 272.321 758.545C272.174 758.305 271.925 758.086 271.574 757.885C271.227 757.685 270.697 757.458 269.984 757.204C268.988 756.848 268.275 756.426 267.846 755.937C267.421 755.449 267.208 754.812 267.208 754.026C267.208 753.2 267.519 752.544 268.139 752.055C268.759 751.567 269.579 751.323 270.6 751.323C271.664 751.323 272.643 751.518 273.537 751.909L273.148 752.993C272.265 752.622 271.405 752.436 270.57 752.436C269.911 752.436 269.396 752.578 269.025 752.861C268.654 753.144 268.468 753.537 268.468 754.04C268.468 754.411 268.537 754.717 268.673 754.956C268.81 755.19 269.04 755.407 269.362 755.608C269.689 755.803 270.187 756.02 270.856 756.26C271.979 756.66 272.75 757.09 273.17 757.549C273.595 758.008 273.808 758.603 273.808 759.336ZM288.258 762.185H286.837L280.985 753.198H280.927C281.005 754.253 281.044 755.219 281.044 756.098V762.185H279.894V751.477H281.3L287.138 760.427H287.196C287.187 760.295 287.165 759.873 287.13 759.16C287.096 758.442 287.084 757.929 287.094 757.622V751.477H288.258V762.185ZM297.934 762.185L296.601 758.779H292.309L290.99 762.185H289.73L293.964 751.433H295.011L299.223 762.185H297.934ZM296.212 757.658L294.967 754.341C294.806 753.921 294.64 753.406 294.469 752.795C294.362 753.264 294.208 753.779 294.008 754.341L292.748 757.658H296.212ZM303.991 762.185H302.746V752.583H299.354V751.477H307.382V752.583H303.991V762.185ZM317.086 751.477V758.406C317.086 759.626 316.718 760.586 315.98 761.284C315.243 761.982 314.23 762.331 312.941 762.331C311.652 762.331 310.653 761.98 309.945 761.277C309.242 760.573 308.891 759.607 308.891 758.376V751.477H310.136V758.464C310.136 759.358 310.38 760.044 310.868 760.522C311.356 761.001 312.074 761.24 313.021 761.24C313.925 761.24 314.621 761.001 315.109 760.522C315.597 760.039 315.841 759.348 315.841 758.449V751.477H317.086ZM321.173 757.732V762.185H319.928V751.477H322.865C324.179 751.477 325.148 751.728 325.773 752.231C326.403 752.734 326.718 753.491 326.718 754.502C326.718 755.918 326 756.875 324.564 757.373L327.472 762.185H326L323.407 757.732H321.173ZM321.173 756.662H322.88C323.759 756.662 324.403 756.489 324.813 756.142C325.224 755.791 325.429 755.266 325.429 754.568C325.429 753.86 325.219 753.349 324.799 753.037C324.384 752.724 323.715 752.568 322.792 752.568H321.173V756.662ZM335.932 762.185L334.599 758.779H330.307L328.988 762.185H327.729L331.962 751.433H333.009L337.221 762.185H335.932ZM334.21 757.658L332.965 754.341C332.804 753.921 332.638 753.406 332.467 752.795C332.36 753.264 332.206 753.779 332.006 754.341L330.746 757.658H334.21ZM338.693 762.185V751.477H339.938V761.057H344.662V762.185H338.693Z" fill="#211915"/>
<path d="M440.811 659.688C439.634 659.688 438.704 660.081 438.021 660.867C437.342 661.648 437.002 662.72 437.002 664.082C437.002 665.484 437.33 666.568 437.984 667.334C438.643 668.096 439.581 668.477 440.796 668.477C441.543 668.477 442.396 668.343 443.353 668.074V669.165C442.61 669.444 441.695 669.583 440.606 669.583C439.029 669.583 437.811 669.104 436.951 668.147C436.097 667.19 435.669 665.831 435.669 664.068C435.669 662.964 435.875 661.997 436.285 661.167C436.7 660.337 437.295 659.698 438.072 659.248C438.853 658.799 439.771 658.575 440.826 658.575C441.949 658.575 442.93 658.78 443.77 659.19L443.243 660.259C442.432 659.878 441.622 659.688 440.811 659.688ZM454.983 664.068C454.983 665.782 454.549 667.129 453.68 668.111C452.815 669.092 451.612 669.583 450.069 669.583C448.492 669.583 447.273 669.102 446.414 668.14C445.56 667.173 445.132 665.811 445.132 664.053C445.132 662.31 445.562 660.96 446.421 660.003C447.281 659.041 448.501 658.56 450.083 658.56C451.622 658.56 452.823 659.048 453.687 660.025C454.551 661.001 454.983 662.349 454.983 664.068ZM446.451 664.068C446.451 665.518 446.758 666.619 447.374 667.371C447.994 668.118 448.892 668.492 450.069 668.492C451.255 668.492 452.151 668.118 452.757 667.371C453.362 666.624 453.665 665.523 453.665 664.068C453.665 662.627 453.362 661.536 452.757 660.794C452.156 660.047 451.265 659.673 450.083 659.673C448.897 659.673 447.994 660.049 447.374 660.801C446.758 661.548 446.451 662.637 446.451 664.068ZM462.088 663.826H465.728V669.034C465.162 669.214 464.585 669.351 464 669.444C463.414 669.537 462.735 669.583 461.963 669.583C460.342 669.583 459.08 669.102 458.177 668.14C457.273 667.173 456.822 665.821 456.822 664.082C456.822 662.969 457.044 661.995 457.488 661.16C457.938 660.32 458.582 659.681 459.422 659.241C460.262 658.797 461.246 658.575 462.374 658.575C463.516 658.575 464.581 658.785 465.567 659.205L465.083 660.303C464.117 659.893 463.187 659.688 462.293 659.688C460.989 659.688 459.971 660.076 459.239 660.852C458.506 661.629 458.14 662.706 458.14 664.082C458.14 665.528 458.492 666.624 459.195 667.371C459.903 668.118 460.94 668.492 462.308 668.492C463.05 668.492 463.775 668.406 464.483 668.235V664.939H462.088V663.826ZM474.275 669.436H468.306V658.728H474.275V659.834H469.551V663.284H473.99V664.383H469.551V668.323H474.275V669.436ZM485.02 669.436H483.599L477.747 660.45H477.688C477.767 661.504 477.806 662.471 477.806 663.35V669.436H476.656V658.728H478.062L483.899 667.679H483.958C483.948 667.547 483.926 667.124 483.892 666.412C483.858 665.694 483.846 665.181 483.855 664.873V658.728H485.02V669.436ZM493.934 669.436H487.964V658.728H493.934V659.834H489.209V663.284H493.648V664.383H489.209V668.323H493.934V669.436ZM497.559 664.983V669.436H496.314V658.728H499.251C500.564 658.728 501.534 658.98 502.159 659.483C502.789 659.986 503.104 660.743 503.104 661.753C503.104 663.169 502.386 664.126 500.95 664.624L503.858 669.436H502.386L499.793 664.983H497.559ZM497.559 663.914H499.266C500.145 663.914 500.789 663.741 501.199 663.394C501.609 663.042 501.814 662.518 501.814 661.819C501.814 661.111 501.604 660.601 501.185 660.289C500.77 659.976 500.101 659.82 499.178 659.82H497.559V663.914ZM512.317 669.436L510.984 666.031H506.692L505.374 669.436H504.114L508.348 658.685H509.395L513.606 669.436H512.317ZM510.596 664.91L509.351 661.592C509.19 661.172 509.024 660.657 508.853 660.047C508.746 660.516 508.592 661.031 508.392 661.592L507.132 664.91H510.596ZM519.664 659.688C518.487 659.688 517.557 660.081 516.873 660.867C516.194 661.648 515.855 662.72 515.855 664.082C515.855 665.484 516.182 666.568 516.836 667.334C517.496 668.096 518.433 668.477 519.649 668.477C520.396 668.477 521.248 668.343 522.205 668.074V669.165C521.463 669.444 520.547 669.583 519.458 669.583C517.881 669.583 516.663 669.104 515.804 668.147C514.949 667.19 514.522 665.831 514.522 664.068C514.522 662.964 514.727 661.997 515.137 661.167C515.552 660.337 516.148 659.698 516.924 659.248C517.706 658.799 518.624 658.575 519.678 658.575C520.801 658.575 521.783 658.78 522.623 659.19L522.095 660.259C521.285 659.878 520.474 659.688 519.664 659.688ZM524.542 669.436V658.728H525.787V669.436H524.542ZM538.025 664.068C538.025 665.782 537.591 667.129 536.722 668.111C535.857 669.092 534.654 669.583 533.111 669.583C531.534 669.583 530.315 669.102 529.456 668.14C528.602 667.173 528.174 665.811 528.174 664.053C528.174 662.31 528.604 660.96 529.463 660.003C530.323 659.041 531.543 658.56 533.125 658.56C534.664 658.56 535.865 659.048 536.729 660.025C537.593 661.001 538.025 662.349 538.025 664.068ZM529.493 664.068C529.493 665.518 529.8 666.619 530.416 667.371C531.036 668.118 531.934 668.492 533.111 668.492C534.297 668.492 535.193 668.118 535.799 667.371C536.404 666.624 536.707 665.523 536.707 664.068C536.707 662.627 536.404 661.536 535.799 660.794C535.198 660.047 534.307 659.673 533.125 659.673C531.939 659.673 531.036 660.049 530.416 660.801C529.8 661.548 529.493 662.637 529.493 664.068ZM532.085 657.688C532.32 657.386 532.571 657.019 532.84 656.59C533.113 656.16 533.328 655.787 533.484 655.469H534.964V655.623C534.749 655.94 534.429 656.331 534.004 656.795C533.58 657.259 533.211 657.618 532.898 657.872H532.085V657.688ZM548.785 669.436H547.364L541.512 660.45H541.453C541.531 661.504 541.57 662.471 541.57 663.35V669.436H540.42V658.728H541.827L547.664 667.679H547.723C547.713 667.547 547.691 667.124 547.657 666.412C547.623 665.694 547.61 665.181 547.62 664.873V658.728H548.785V669.436Z" fill="#211915"/>
<path d="M443.016 708.437C443.016 709.521 442.645 710.355 441.902 710.941C441.165 711.522 440.108 711.813 438.731 711.813H437.471V716.024H436.226V705.316H439.002C441.678 705.316 443.016 706.356 443.016 708.437ZM437.471 710.744H438.592C439.695 710.744 440.494 710.565 440.987 710.209C441.48 709.853 441.727 709.281 441.727 708.495C441.727 707.787 441.495 707.26 441.031 706.913C440.567 706.566 439.844 706.393 438.863 706.393H437.471V710.744ZM451.233 716.024H445.264V705.316H451.233V706.422H446.509V709.872H450.948V710.971H446.509V714.911H451.233V716.024ZM456.91 716.024H455.665V706.422H452.273V705.316H460.301V706.422H456.91V716.024ZM463.165 711.571V716.024H461.919V705.316H464.856C466.17 705.316 467.139 705.568 467.764 706.071C468.394 706.574 468.709 707.331 468.709 708.341C468.709 709.757 467.991 710.714 466.556 711.212L469.463 716.024H467.991L465.398 711.571H463.165ZM463.165 710.502H464.871C465.75 710.502 466.395 710.329 466.805 709.982C467.215 709.63 467.42 709.105 467.42 708.407C467.42 707.699 467.21 707.189 466.79 706.876C466.375 706.564 465.706 706.408 464.783 706.408H463.165V710.502ZM480.486 710.656C480.486 712.37 480.052 713.717 479.183 714.699C478.318 715.68 477.115 716.171 475.572 716.171C473.995 716.171 472.776 715.69 471.917 714.728C471.062 713.761 470.635 712.399 470.635 710.641C470.635 708.898 471.065 707.548 471.924 706.591C472.784 705.629 474.004 705.148 475.586 705.148C477.125 705.148 478.326 705.636 479.19 706.613C480.054 707.589 480.486 708.937 480.486 710.656ZM471.954 710.656C471.954 712.106 472.261 713.207 472.876 713.959C473.497 714.706 474.395 715.08 475.572 715.08C476.758 715.08 477.654 714.706 478.26 713.959C478.865 713.212 479.168 712.111 479.168 710.656C479.168 709.215 478.865 708.124 478.26 707.382C477.659 706.635 476.768 706.261 475.586 706.261C474.4 706.261 473.497 706.637 472.876 707.389C472.261 708.136 471.954 709.225 471.954 710.656ZM474.546 704.276C474.781 703.974 475.032 703.607 475.301 703.178C475.574 702.748 475.789 702.375 475.945 702.057H477.425V702.211C477.21 702.528 476.89 702.919 476.465 703.383C476.041 703.847 475.672 704.206 475.359 704.459H474.546V704.276ZM482.881 716.024V705.316H484.126V714.896H488.851V716.024H482.881ZM496.644 716.024H490.674V705.316H496.644V706.422H491.919V709.872H496.358V710.971H491.919V714.911H496.644V716.024ZM508.318 710.656C508.318 712.37 507.884 713.717 507.015 714.699C506.15 715.68 504.947 716.171 503.404 716.171C501.827 716.171 500.608 715.69 499.749 714.728C498.895 713.761 498.467 712.399 498.467 710.641C498.467 708.898 498.897 707.548 499.756 706.591C500.616 705.629 501.836 705.148 503.418 705.148C504.957 705.148 506.158 705.636 507.022 706.613C507.886 707.589 508.318 708.937 508.318 710.656ZM499.786 710.656C499.786 712.106 500.093 713.207 500.708 713.959C501.329 714.706 502.227 715.08 503.404 715.08C504.59 715.08 505.486 714.706 506.092 713.959C506.697 713.212 507 712.111 507 710.656C507 709.215 506.697 708.124 506.092 707.382C505.491 706.635 504.6 706.261 503.418 706.261C502.232 706.261 501.329 706.637 500.708 707.389C500.093 708.136 499.786 709.225 499.786 710.656ZM523.157 710.568C523.157 712.335 522.676 713.688 521.714 714.625C520.757 715.558 519.378 716.024 517.576 716.024H514.61V705.316H517.891C519.556 705.316 520.85 705.778 521.773 706.701C522.696 707.624 523.157 708.913 523.157 710.568ZM521.839 710.612C521.839 709.215 521.487 708.163 520.784 707.455C520.086 706.747 519.046 706.393 517.664 706.393H515.855V714.948H517.371C518.855 714.948 519.971 714.584 520.718 713.856C521.465 713.124 521.839 712.042 521.839 710.612ZM525.552 716.024V705.316H526.797V716.024H525.552ZM535.711 716.024H529.742V705.316H535.711V706.422H530.987V709.872H535.425V710.971H530.987V714.911H535.711V716.024ZM544.134 713.175C544.134 714.118 543.792 714.853 543.108 715.38C542.425 715.907 541.497 716.171 540.325 716.171C539.056 716.171 538.079 716.007 537.396 715.68V714.479C537.835 714.665 538.313 714.811 538.831 714.918C539.349 715.026 539.861 715.08 540.369 715.08C541.199 715.08 541.824 714.923 542.244 714.611C542.664 714.293 542.874 713.854 542.874 713.292C542.874 712.921 542.798 712.619 542.647 712.384C542.5 712.145 542.251 711.925 541.9 711.725C541.553 711.525 541.023 711.298 540.311 711.044C539.314 710.688 538.602 710.265 538.172 709.777C537.747 709.289 537.535 708.651 537.535 707.865C537.535 707.04 537.845 706.383 538.465 705.895C539.085 705.407 539.905 705.163 540.926 705.163C541.99 705.163 542.969 705.358 543.863 705.749L543.475 706.833C542.591 706.461 541.731 706.276 540.896 706.276C540.237 706.276 539.722 706.417 539.351 706.701C538.98 706.984 538.794 707.377 538.794 707.88C538.794 708.251 538.863 708.556 539 708.795C539.136 709.03 539.366 709.247 539.688 709.447C540.015 709.643 540.513 709.86 541.182 710.099C542.305 710.5 543.077 710.929 543.497 711.388C543.921 711.847 544.134 712.443 544.134 713.175ZM552.293 716.024H546.324V705.316H552.293V706.422H547.569V709.872H552.007V710.971H547.569V714.911H552.293V716.024ZM554.673 716.024V705.316H555.918V714.896H560.643V716.024H554.673Z" fill="#211915"/>
<path d="M444.356 763.16H443.111V758.121H437.471V763.16H436.226V752.452H437.471V757.008H443.111V752.452H444.356V763.16ZM447.3 763.16V752.452H448.545V763.16H447.3ZM460.037 757.704C460.037 759.471 459.556 760.824 458.594 761.761C457.637 762.694 456.258 763.16 454.456 763.16H451.49V752.452H454.771C456.436 752.452 457.73 752.914 458.653 753.837C459.576 754.76 460.037 756.049 460.037 757.704ZM458.719 757.748C458.719 756.351 458.367 755.299 457.664 754.591C456.966 753.883 455.926 753.529 454.544 753.529H452.735V762.084H454.251C455.735 762.084 456.851 761.72 457.598 760.992C458.345 760.26 458.719 759.178 458.719 757.748ZM463.677 758.707V763.16H462.432V752.452H465.369C466.683 752.452 467.652 752.704 468.277 753.207C468.907 753.71 469.222 754.467 469.222 755.477C469.222 756.893 468.504 757.85 467.068 758.348L469.976 763.16H468.504L465.911 758.707H463.677ZM463.677 757.638H465.384C466.263 757.638 466.907 757.465 467.317 757.118C467.728 756.766 467.933 756.241 467.933 755.543C467.933 754.835 467.723 754.325 467.303 754.012C466.888 753.7 466.219 753.544 465.296 753.544H463.677V757.638ZM478.436 763.16L477.103 759.755H472.811L471.492 763.16H470.232L474.466 752.408H475.513L479.725 763.16H478.436ZM476.714 758.634L475.469 755.316C475.308 754.896 475.142 754.381 474.971 753.771C474.864 754.24 474.71 754.755 474.51 755.316L473.25 758.634H476.714ZM474.085 751.412C474.319 751.11 474.571 750.743 474.839 750.314C475.113 749.884 475.328 749.51 475.484 749.193H476.963V749.347C476.749 749.664 476.429 750.055 476.004 750.519C475.579 750.983 475.21 751.342 474.898 751.595H474.085V751.412ZM489.283 752.452V759.381C489.283 760.602 488.914 761.561 488.177 762.26C487.439 762.958 486.426 763.307 485.137 763.307C483.848 763.307 482.85 762.955 482.142 762.252C481.438 761.549 481.087 760.582 481.087 759.352V752.452H482.332V759.44C482.332 760.333 482.576 761.019 483.064 761.498C483.553 761.976 484.271 762.216 485.218 762.216C486.121 762.216 486.817 761.976 487.305 761.498C487.793 761.014 488.038 760.323 488.038 759.425V752.452H489.283ZM492.125 763.16V752.452H493.37V762.032H498.094V763.16H492.125ZM499.917 763.16V752.452H501.163V763.16H499.917ZM508.692 753.412C507.515 753.412 506.585 753.805 505.901 754.591C505.223 755.372 504.883 756.444 504.883 757.806C504.883 759.208 505.21 760.292 505.865 761.058C506.524 761.82 507.461 762.201 508.677 762.201C509.424 762.201 510.276 762.067 511.233 761.798V762.889C510.491 763.168 509.576 763.307 508.487 763.307C506.91 763.307 505.691 762.828 504.832 761.871C503.978 760.914 503.55 759.554 503.55 757.792C503.55 756.688 503.755 755.721 504.166 754.891C504.581 754.061 505.176 753.422 505.953 752.972C506.734 752.523 507.652 752.299 508.707 752.299C509.83 752.299 510.811 752.504 511.651 752.914L511.124 753.983C510.313 753.602 509.502 753.412 508.692 753.412ZM520.301 763.16L518.968 759.755H514.676L513.357 763.16H512.098L516.331 752.408H517.378L521.59 763.16H520.301ZM518.58 758.634L517.334 755.316C517.173 754.896 517.007 754.381 516.836 753.771C516.729 754.24 516.575 754.755 516.375 755.316L515.115 758.634H518.58Z" fill="#211915"/>
<path d="M47.3564 712.2C47.3564 713.142 47.0146 713.877 46.3311 714.404C45.6475 714.932 44.7197 715.195 43.5479 715.195C42.2783 715.195 41.3018 715.032 40.6182 714.705V713.503C41.0576 713.689 41.5361 713.835 42.0537 713.943C42.5713 714.05 43.084 714.104 43.5918 714.104C44.4219 714.104 45.0469 713.948 45.4668 713.635C45.8867 713.318 46.0967 712.878 46.0967 712.317C46.0967 711.946 46.021 711.643 45.8696 711.409C45.7231 711.169 45.4741 710.95 45.1226 710.75C44.7759 710.549 44.2461 710.322 43.5332 710.068C42.5371 709.712 41.8242 709.29 41.3945 708.801C40.9697 708.313 40.7573 707.676 40.7573 706.89C40.7573 706.064 41.0674 705.408 41.6875 704.919C42.3076 704.431 43.1279 704.187 44.1484 704.187C45.2129 704.187 46.1919 704.382 47.0854 704.773L46.6973 705.857C45.8135 705.486 44.9541 705.3 44.1191 705.3C43.46 705.3 42.9448 705.442 42.5737 705.725C42.2026 706.008 42.0171 706.401 42.0171 706.904C42.0171 707.275 42.0854 707.581 42.2222 707.82C42.3589 708.054 42.5884 708.271 42.9106 708.472C43.2378 708.667 43.7358 708.884 44.4048 709.124C45.5278 709.524 46.2993 709.954 46.7192 710.413C47.144 710.872 47.3564 711.467 47.3564 712.2ZM58.8408 709.68C58.8408 711.394 58.4062 712.742 57.5371 713.723C56.6729 714.705 55.4692 715.195 53.9263 715.195C52.3491 715.195 51.1309 714.714 50.2715 713.752C49.417 712.786 48.9897 711.423 48.9897 709.666C48.9897 707.922 49.4194 706.572 50.2788 705.615C51.1382 704.653 52.3589 704.172 53.9409 704.172C55.479 704.172 56.6802 704.661 57.5444 705.637C58.4087 706.614 58.8408 707.961 58.8408 709.68ZM50.3081 709.68C50.3081 711.13 50.6157 712.231 51.231 712.983C51.8511 713.73 52.7495 714.104 53.9263 714.104C55.1128 714.104 56.0088 713.73 56.6143 712.983C57.2197 712.236 57.5225 711.135 57.5225 709.68C57.5225 708.24 57.2197 707.148 56.6143 706.406C56.0137 705.659 55.1226 705.286 53.9409 705.286C52.7544 705.286 51.8511 705.662 51.231 706.414C50.6157 707.161 50.3081 708.25 50.3081 709.68ZM61.2358 715.049V704.341H62.481V713.921H67.2051V715.049H61.2358ZM75.7598 715.049L74.4268 711.643H70.1348L68.8164 715.049H67.5566L71.79 704.297H72.8374L77.0488 715.049H75.7598ZM74.0386 710.522L72.7935 707.205C72.6323 706.785 72.4663 706.27 72.2954 705.659C72.188 706.128 72.0342 706.643 71.834 707.205L70.5742 710.522H74.0386ZM79.7661 710.596V715.049H78.521V704.341H81.458C82.7715 704.341 83.7407 704.592 84.3657 705.095C84.9956 705.598 85.3105 706.355 85.3105 707.366C85.3105 708.782 84.5928 709.739 83.1572 710.237L86.0649 715.049H84.5928L82 710.596H79.7661ZM79.7661 709.526H81.4727C82.3516 709.526 82.9961 709.353 83.4062 709.006C83.8164 708.655 84.0215 708.13 84.0215 707.432C84.0215 706.724 83.8115 706.213 83.3916 705.901C82.9766 705.588 82.3076 705.432 81.3848 705.432H79.7661V709.526ZM92.9351 715.049H91.6899V704.341H97.6592V705.447H92.9351V709.365H97.3735V710.471H92.9351V715.049ZM108.733 709.68C108.733 711.394 108.299 712.742 107.43 713.723C106.565 714.705 105.362 715.195 103.819 715.195C102.242 715.195 101.023 714.714 100.164 713.752C99.3096 712.786 98.8823 711.423 98.8823 709.666C98.8823 707.922 99.312 706.572 100.171 705.615C101.031 704.653 102.251 704.172 103.833 704.172C105.372 704.172 106.573 704.661 107.437 705.637C108.301 706.614 108.733 707.961 108.733 709.68ZM100.201 709.68C100.201 711.13 100.508 712.231 101.124 712.983C101.744 713.73 102.642 714.104 103.819 714.104C105.005 714.104 105.901 713.73 106.507 712.983C107.112 712.236 107.415 711.135 107.415 709.68C107.415 708.24 107.112 707.148 106.507 706.406C105.906 705.659 105.015 705.286 103.833 705.286C102.647 705.286 101.744 705.662 101.124 706.414C100.508 707.161 100.201 708.25 100.201 709.68ZM114.424 715.049H113.179V705.447H109.788V704.341H117.815V705.447H114.424V715.049ZM128.729 709.68C128.729 711.394 128.294 712.742 127.425 713.723C126.561 714.705 125.357 715.195 123.814 715.195C122.237 715.195 121.019 714.714 120.159 713.752C119.305 712.786 118.877 711.423 118.877 709.666C118.877 707.922 119.307 706.572 120.167 705.615C121.026 704.653 122.247 704.172 123.829 704.172C125.367 704.172 126.568 704.661 127.432 705.637C128.296 706.614 128.729 707.961 128.729 709.68ZM120.196 709.68C120.196 711.13 120.503 712.231 121.119 712.983C121.739 713.73 122.637 714.104 123.814 714.104C125 714.104 125.896 713.73 126.502 712.983C127.107 712.236 127.41 711.135 127.41 709.68C127.41 708.24 127.107 707.148 126.502 706.406C125.901 705.659 125.01 705.286 123.829 705.286C122.642 705.286 121.739 705.662 121.119 706.414C120.503 707.161 120.196 708.25 120.196 709.68ZM137.239 704.341H138.58L134.72 715.049H133.489L129.651 704.341H130.97L133.431 711.27C133.714 712.065 133.938 712.839 134.104 713.591C134.28 712.8 134.51 712.012 134.793 711.226L137.239 704.341ZM149.354 709.68C149.354 711.394 148.919 712.742 148.05 713.723C147.186 714.705 145.982 715.195 144.439 715.195C142.862 715.195 141.644 714.714 140.784 713.752C139.93 712.786 139.502 711.423 139.502 709.666C139.502 707.922 139.932 706.572 140.792 705.615C141.651 704.653 142.872 704.172 144.454 704.172C145.992 704.172 147.193 704.661 148.057 705.637C148.921 706.614 149.354 707.961 149.354 709.68ZM140.821 709.68C140.821 711.13 141.128 712.231 141.744 712.983C142.364 713.73 143.262 714.104 144.439 714.104C145.625 714.104 146.521 713.73 147.127 712.983C147.732 712.236 148.035 711.135 148.035 709.68C148.035 708.24 147.732 707.148 147.127 706.406C146.526 705.659 145.635 705.286 144.454 705.286C143.267 705.286 142.364 705.662 141.744 706.414C141.128 707.161 140.821 708.25 140.821 709.68ZM151.749 715.049V704.341H152.994V713.921H157.718V715.049H151.749ZM162.837 715.049H161.592V705.447H158.201V704.341H166.229V705.447H162.837V715.049ZM174.578 715.049L173.245 711.643H168.953L167.635 715.049H166.375L170.608 704.297H171.656L175.867 715.049H174.578ZM172.857 710.522L171.612 707.205C171.451 706.785 171.285 706.27 171.114 705.659C171.006 706.128 170.853 706.643 170.652 707.205L169.393 710.522H172.857ZM177.339 715.049V704.341H178.584V715.049H177.339ZM186.114 705.3C184.937 705.3 184.007 705.693 183.323 706.479C182.645 707.261 182.305 708.333 182.305 709.695C182.305 711.096 182.632 712.18 183.287 712.947C183.946 713.708 184.883 714.089 186.099 714.089C186.846 714.089 187.698 713.955 188.655 713.687V714.778C187.913 715.056 186.998 715.195 185.909 715.195C184.332 715.195 183.113 714.717 182.254 713.76C181.399 712.803 180.972 711.443 180.972 709.68C180.972 708.577 181.177 707.61 181.587 706.78C182.002 705.95 182.598 705.31 183.375 704.861C184.156 704.412 185.074 704.187 186.128 704.187C187.251 704.187 188.233 704.392 189.073 704.802L188.545 705.872C187.735 705.491 186.924 705.3 186.114 705.3ZM197.723 715.049L196.39 711.643H192.098L190.779 715.049H189.52L193.753 704.297H194.8L199.012 715.049H197.723ZM196.001 710.522L194.756 707.205C194.595 706.785 194.429 706.27 194.258 705.659C194.151 706.128 193.997 706.643 193.797 707.205L192.537 710.522H196.001Z" fill="#211915"/>
<path d="M41.314 751.477H44.3389C45.7598 751.477 46.7876 751.689 47.4224 752.114C48.0571 752.539 48.3745 753.21 48.3745 754.128C48.3745 754.763 48.1963 755.288 47.8398 755.703C47.4883 756.113 46.9731 756.379 46.2944 756.501V756.574C47.9204 756.853 48.7334 757.707 48.7334 759.138C48.7334 760.095 48.4087 760.842 47.7593 761.379C47.1147 761.916 46.2114 762.185 45.0493 762.185H41.314V751.477ZM42.5591 756.062H44.6099C45.4888 756.062 46.1211 755.925 46.5068 755.652C46.8926 755.373 47.0854 754.907 47.0854 754.253C47.0854 753.652 46.8706 753.22 46.4409 752.956C46.0112 752.688 45.3276 752.553 44.3901 752.553H42.5591V756.062ZM42.5591 757.116V761.123H44.793C45.6572 761.123 46.3066 760.957 46.7412 760.625C47.1807 760.288 47.4004 759.763 47.4004 759.05C47.4004 758.386 47.1758 757.898 46.7266 757.585C46.2822 757.273 45.6035 757.116 44.6904 757.116H42.5591ZM51.0405 762.185V751.477H52.2856V762.185H51.0405ZM64.5244 756.816C64.5244 758.53 64.0898 759.878 63.2207 760.859C62.3564 761.841 61.1528 762.331 59.6099 762.331C58.0327 762.331 56.8145 761.85 55.9551 760.888C55.1006 759.922 54.6733 758.559 54.6733 756.802C54.6733 755.058 55.103 753.708 55.9624 752.751C56.8218 751.789 58.0425 751.308 59.6245 751.308C61.1626 751.308 62.3638 751.797 63.228 752.773C64.0923 753.75 64.5244 755.097 64.5244 756.816ZM55.9917 756.816C55.9917 758.266 56.2993 759.367 56.9146 760.119C57.5347 760.866 58.4331 761.24 59.6099 761.24C60.7964 761.24 61.6924 760.866 62.2979 760.119C62.9033 759.372 63.2061 758.271 63.2061 756.816C63.2061 755.376 62.9033 754.284 62.2979 753.542C61.6973 752.795 60.8062 752.422 59.6245 752.422C58.438 752.422 57.5347 752.798 56.9146 753.55C56.2993 754.297 55.9917 755.385 55.9917 756.816ZM71.6582 762.185L68.0254 752.693H67.9668C68.0352 753.445 68.0693 754.338 68.0693 755.373V762.185H66.9194V751.477H68.7944L72.1855 760.31H72.2441L75.6646 751.477H77.5249V762.185H76.2798V755.285C76.2798 754.494 76.314 753.635 76.3823 752.707H76.3237L72.6616 762.185H71.6582ZM87.2002 762.185L85.8672 758.779H81.5752L80.2568 762.185H78.9971L83.2305 751.433H84.2778L88.4893 762.185H87.2002ZM85.479 757.658L84.2339 754.341C84.0728 753.921 83.9067 753.406 83.7358 752.795C83.6284 753.264 83.4746 753.779 83.2744 754.341L82.0146 757.658H85.479ZM96.0039 759.336C96.0039 760.278 95.6621 761.013 94.9785 761.54C94.2949 762.068 93.3672 762.331 92.1953 762.331C90.9258 762.331 89.9492 762.168 89.2656 761.841V760.639C89.7051 760.825 90.1836 760.971 90.7012 761.079C91.2188 761.186 91.7314 761.24 92.2393 761.24C93.0693 761.24 93.6943 761.084 94.1143 760.771C94.5342 760.454 94.7441 760.014 94.7441 759.453C94.7441 759.082 94.6685 758.779 94.5171 758.545C94.3706 758.305 94.1216 758.086 93.77 757.885C93.4233 757.685 92.8936 757.458 92.1807 757.204C91.1846 756.848 90.4717 756.426 90.042 755.937C89.6172 755.449 89.4048 754.812 89.4048 754.026C89.4048 753.2 89.7148 752.544 90.335 752.055C90.9551 751.567 91.7754 751.323 92.7959 751.323C93.8604 751.323 94.8394 751.518 95.7329 751.909L95.3447 752.993C94.4609 752.622 93.6016 752.436 92.7666 752.436C92.1074 752.436 91.5923 752.578 91.2212 752.861C90.8501 753.144 90.6646 753.537 90.6646 754.04C90.6646 754.411 90.7329 754.717 90.8696 754.956C91.0063 755.19 91.2358 755.407 91.5581 755.608C91.8853 755.803 92.3833 756.02 93.0522 756.26C94.1753 756.66 94.9468 757.09 95.3667 757.549C95.7915 758.008 96.0039 758.603 96.0039 759.336ZM104.925 762.185L103.592 758.779H99.2998L97.9814 762.185H96.7217L100.955 751.433H102.002L106.214 762.185H104.925ZM103.204 757.658L101.958 754.341C101.797 753.921 101.631 753.406 101.46 752.795C101.353 753.264 101.199 753.779 100.999 754.341L99.7393 757.658H103.204Z" fill="#211915"/>
<path d="M17.9086 679.526C27.145 679.526 34.6326 671.629 34.6326 661.888C34.6326 652.147 27.145 644.25 17.9086 644.25C8.67217 644.25 1.18457 652.147 1.18457 661.888C1.18457 671.629 8.67217 679.526 17.9086 679.526Z" fill="#004756"/>
<path d="M16.724 725.763C25.9605 725.763 33.4481 717.866 33.4481 708.125C33.4481 698.384 25.9605 690.488 16.724 690.488C7.4876 690.488 0 698.384 0 708.125C0 717.866 7.4876 725.763 16.724 725.763Z" fill="#73B3C0"/>
<path d="M16.724 772C25.9605 772 33.4481 764.103 33.4481 754.362C33.4481 744.621 25.9605 736.725 16.724 736.725C7.4876 736.725 0 744.621 0 754.362C0 764.103 7.4876 772 16.724 772Z" fill="#474747"/>
<path d="M223.94 679.526C233.176 679.526 240.664 671.629 240.664 661.888C240.664 652.147 233.176 644.25 223.94 644.25C214.703 644.25 207.216 652.147 207.216 661.888C207.216 671.629 214.703 679.526 223.94 679.526Z" fill="#B77E4A"/>
<path d="M222.766 725.763C232.002 725.763 239.49 717.866 239.49 708.125C239.49 698.384 232.002 690.488 222.766 690.488C213.53 690.488 206.042 698.384 206.042 708.125C206.042 717.866 213.53 725.763 222.766 725.763Z" fill="#A73839"/>
<path d="M222.766 772C232.002 772 239.49 764.103 239.49 754.362C239.49 744.621 232.002 736.725 222.766 736.725C213.53 736.725 206.042 744.621 206.042 754.362C206.042 764.103 213.53 772 222.766 772Z" fill="#00646E"/>
<path d="M411.636 772C420.873 772 428.36 764.103 428.36 754.362C428.36 744.621 420.873 736.725 411.636 736.725C402.4 736.725 394.912 744.621 394.912 754.362C394.912 764.103 402.4 772 411.636 772Z" fill="#E4C55A"/>
<path d="M411.636 679.526C420.873 679.526 428.36 671.629 428.36 661.888C428.36 652.147 420.873 644.25 411.636 644.25C402.4 644.25 394.912 652.147 394.912 661.888C394.912 671.629 402.4 679.526 411.636 679.526Z" fill="#643623"/>
<path d="M411.636 725.763C420.873 725.763 428.36 717.866 428.36 708.125C428.36 698.384 420.873 690.488 411.636 690.488C402.4 690.488 394.912 698.384 394.912 708.125C394.912 717.866 402.4 725.763 411.636 725.763Z" fill="#AE5A40"/>
</g>
<defs>
<clipPath id="clip0">
<rect width="592" height="772" fill="white"/>
</clipPath>
</defs>
</svg>
