<svg xmlns="http://www.w3.org/2000/svg" viewBox="0 0 85.04 85.04"><defs><style>.cls-1{fill:#054959;}.cls-2{fill:#fff;stroke:#fff;stroke-miterlimit:10;stroke-width:0.3px;}</style></defs><title>hidroicon</title><g id="Capa_2" data-name="Capa 2"><g id="Layer_1" data-name="Layer 1"><circle class="cls-1" cx="42.52" cy="42.52" r="42.52"/><path class="cls-2" d="M65.13,35.81H58.89V22.71h6.24a.58.58,0,0,0,0-1.15H58.32a.55.55,0,0,0-.58.58v7A14.1,14.1,0,0,0,44.24,43.2v6.4a13.65,13.65,0,0,1-1.56.12,33.3,33.3,0,0,1-9.17-2.08l-.12-.06c-5.08-1.67-10.85-.29-13.91,3.35a.56.56,0,0,0,.06.81.45.45,0,0,0,.35.11.54.54,0,0,0,.46-.23c2.77-3.29,8-4.5,12.64-2.94l.11.06a35.11,35.11,0,0,0,9.46,2.13,16.78,16.78,0,0,0,6.35-1.38c1-.35,2-.75,3.12-1,4-1,8.31.17,12.11,3.34a.56.56,0,0,0,.81,0,.55.55,0,0,0-.06-.81c-4.09-3.41-8.77-4.68-13.15-3.58-.06,0-.12,0-.12.06V43.2A6.18,6.18,0,0,1,57.8,37h7.33a.54.54,0,0,0,.57-.57A.64.64,0,0,0,65.13,35.81Zm-14.6,7.33v4.33a.4.4,0,0,0,0,.23c-.69.23-1.32.46-2,.69a25.44,25.44,0,0,1-3.17,1V43.2A13,13,0,0,1,57.8,30.27v5.54A7.37,7.37,0,0,0,50.53,43.14Z"/><path class="cls-2" d="M51.8,53.06a26.59,26.59,0,0,0-3.23,1.1,16,16,0,0,1-6,1.33,33.38,33.38,0,0,1-9.11-2.08l-.12-.06c-5.08-1.67-10.85-.29-13.91,3.35a.56.56,0,0,0,.06.81.45.45,0,0,0,.35.11.54.54,0,0,0,.46-.23c2.77-3.29,8-4.5,12.64-2.94l.11.06a35.11,35.11,0,0,0,9.46,2.13,16.78,16.78,0,0,0,6.35-1.38c1-.35,2-.75,3.12-1,4-1,8.31.17,12.11,3.34a.56.56,0,0,0,.81-.05.55.55,0,0,0-.06-.81C60.86,53.18,56.18,52,51.8,53.06Z"/><path class="cls-2" d="M51.8,58.83a26.59,26.59,0,0,0-3.23,1.1,16,16,0,0,1-6,1.33,33.38,33.38,0,0,1-9.11-2.08l-.12-.06c-5.08-1.67-10.85-.29-13.91,3.35a.56.56,0,0,0,.06.81.45.45,0,0,0,.35.11.54.54,0,0,0,.46-.23c2.77-3.29,8-4.5,12.64-2.94l.11.06a35.11,35.11,0,0,0,9.46,2.13A16.78,16.78,0,0,0,48.91,61c1-.35,2-.75,3.12-1,4-1,8.31.17,12.11,3.34a.56.56,0,0,0,.81,0,.6.6,0,0,0-.06-.81C60.86,59,56.18,57.74,51.8,58.83Z"/><path class="cls-2" d="M23.06,37.43c.58.8,1,1.32.87,2a8,8,0,0,1-1.79,3.17.56.56,0,0,0,.11.81,1,1,0,0,0,.35.11.53.53,0,0,0,.46-.23,7.7,7.7,0,0,0,2-3.75A3.53,3.53,0,0,0,24,36.68a2.68,2.68,0,0,0-.4-.52c-1.1-1.56-1-2.6.46-4a.57.57,0,0,0-.81-.81c-1.78,1.79-2,3.4-.57,5.48A2.14,2.14,0,0,0,23.06,37.43Z"/><path class="cls-2" d="M30.62,37.43c.58.8,1,1.32.87,2a8,8,0,0,1-1.79,3.17.56.56,0,0,0,.11.81,1,1,0,0,0,.35.11.54.54,0,0,0,.46-.23,7.7,7.7,0,0,0,2-3.75,3.53,3.53,0,0,0-1.1-2.88,2.68,2.68,0,0,0-.4-.52c-1.1-1.56-1-2.6.46-4a.57.57,0,1,0-.81-.81c-1.79,1.79-2,3.4-.57,5.48A2.14,2.14,0,0,0,30.62,37.43Z"/><path class="cls-2" d="M38.18,37.43c.58.8,1,1.32.86,2a7.8,7.8,0,0,1-1.78,3.17.56.56,0,0,0,.11.81,1,1,0,0,0,.35.11.54.54,0,0,0,.46-.23,7.7,7.7,0,0,0,2-3.75,3.7,3.7,0,0,0-1-2.88,3.14,3.14,0,0,0-.4-.52c-1.1-1.56-1-2.6.46-4a.57.57,0,1,0-.81-.81c-1.79,1.79-2,3.4-.58,5.48A1.3,1.3,0,0,0,38.18,37.43Z"/></g></g></svg>