<svg xmlns="http://www.w3.org/2000/svg" viewBox="0 0 85.04 85.04"><defs><style>.cls-1{fill:#054959;}.cls-2{fill:#fff;}</style></defs><title>toxicoicon</title><g id="Capa_2" data-name="Capa 2"><g id="Layer_1" data-name="Layer 1"><circle class="cls-1" cx="42.52" cy="42.52" r="42.52"/><circle class="cls-2" cx="42.52" cy="44.11" r="5"/><path class="cls-2" d="M35.32,44.11H18.52a24,24,0,0,0,12,20.8l8.4-14.6A7.15,7.15,0,0,1,35.32,44.11Z"/><path class="cls-2" d="M46.12,37.91l8.4-14.6a24,24,0,0,0-23.9,0L39,37.91A7,7,0,0,1,46.12,37.91Z"/><path class="cls-2" d="M49.72,44.11h0a7.15,7.15,0,0,1-3.6,6.2l8.4,14.6a23.87,23.87,0,0,0,12-20.8Z"/></g></g></svg>